<svg xmlns="http://www.w3.org/2000/svg" viewBox="0 0 400 400"><defs><style>.cls-1{fill:none;}.cls-2{fill:#100f0d;}.cls-3{fill:#f58c11;}</style></defs><title>amazon_1</title><g id="Layer_2" data-name="Layer 2"><g id="Layer_1-2" data-name="Layer 1"><rect class="cls-1" width="400" height="400"/><path class="cls-2" d="M378,226.46a2.23,2.23,0,0,1-2.06.89c-2.1,0-4.21,0-6.31,0-1.66,0-2.07-.41-2.07-2.11q0-11.64,0-23.28a14.82,14.82,0,0,0-.51-4.3,4,4,0,0,0-3-3.13,4.51,4.51,0,0,0-4.58,1.49,9.87,9.87,0,0,0-2,5.39,28.36,28.36,0,0,0-.17,3.91v20.08c0,1.48-.48,2-2,2h-6.67c-1.26,0-1.79-.51-1.79-1.78q0-19.1,0-38.21c0-1.21.52-1.74,1.72-1.75H355c1.16,0,1.67.52,1.67,1.68,0,1.72,0,3.43,0,5.15,0,0,0,.06,0,.12.25-.09.26-.33.36-.52.39-.76.73-1.55,1.17-2.28A10.71,10.71,0,0,1,373.89,187c2.37,1.9,3.32,4.51,3.75,7.41a5.89,5.89,0,0,0,.34,2v1.77a2.33,2.33,0,0,0,0,1.43Z"/><path class="cls-3" d="M176.21,133.31c2.56,1,5.21,1.66,7.82,2.48,3.63,1.15,7.28,2.26,11.19,3.47L190,140.65l-13.45,3.57a1.75,1.75,0,0,1-1,.06l-18.15-4.88c-.11,0-.21-.08-.43-.16l11-3.45,7.36-2.3c.11,0,.23-.05.27-.18Z"/><path class="cls-3" d="M124.12,133.31c2.36.91,4.81,1.54,7.22,2.3,3.84,1.21,7.68,2.38,11.78,3.65l-4.52,1.21-14.06,3.73a1.94,1.94,0,0,1-1,.08l-18.15-4.89a3.25,3.25,0,0,1-.43-.15L115.34,136l7.53-2.35c.25-.08.54-.07.72-.31Z"/><path class="cls-2" d="M184.14,191.84c1.87-4.25,4.81-6.81,9.55-7,5.22-.26,8.43,2.44,10.4,7.12.45-.82.79-1.55,1.22-2.23,3.84-6,13.25-6.63,17.78-1.11a10.57,10.57,0,0,1,2.19,6c.23,2.45.09,4.91.08,7.37,0,7.76,0,15.52,0,23.29,0,1.73-.39,2.11-2.15,2.11h-6.49c-1.27,0-1.76-.5-1.76-1.78q0-11.73,0-23.46a32.32,32.32,0,0,0-.15-3.55c-.37-3.57-3.12-4.52-5.89-3.74-2.48.7-3.44,2.7-3.73,5.1a33.38,33.38,0,0,0-.19,4v21.41c0,1.56-.45,2-2,2h-6.58c-1.37,0-1.87-.5-1.87-1.87q0-11.61,0-23.2a16.53,16.53,0,0,0-.4-4.32c-.59-2.18-1.86-3.33-3.85-3.47a4.46,4.46,0,0,0-4.85,2.94,17.36,17.36,0,0,0-.85,6.48c0,7.11,0,14.22,0,21.33,0,1.74-.39,2.11-2.15,2.11H176c-1.28,0-1.77-.49-1.77-1.77V187.43c0-1.38.48-1.84,1.89-1.84h6.22c1.31,0,1.81.5,1.82,1.83Z"/><path class="cls-2" d="M287.36,213.66a38.19,38.19,0,0,1,6.95.53,25.06,25.06,0,0,1,6.94,2.35,2.89,2.89,0,0,1,1.69,2.78c0,1.72,0,3.44,0,5.16s-.88,2.12-2.3,1.46a28.47,28.47,0,0,0-25.65.11,1.32,1.32,0,0,1-2.06-1.24c0-2.19,0-4.38,0-6.58a5.72,5.72,0,0,1,1.15-3.2l14.06-20.17.57-.83c-.26-.24-.56-.12-.83-.12H276.34c-1.59,0-2-.41-2-2s0-3.14,0-4.71c0-1.21.45-1.71,1.63-1.71h24.53c1.19,0,1.66.49,1.68,1.68,0,1.39,0,2.78,0,4.17a3.78,3.78,0,0,1-.75,2.15l-8.88,12.74Z"/><path class="cls-3" d="M178.74,163.88c0-4.8,0-9.6,0-14.39a.94.94,0,0,1,.81-1.09q9.54-2.81,19-5.66c.77-.23.91-.07.91.71q-.09,14.09-.11,28.16a.92.92,0,0,1-.78,1c-6.31,2.1-12.61,4.23-18.91,6.34-.94.32-.94.31-.94-.72Z"/><path class="cls-3" d="M126.63,163.9c0-4.8,0-9.6,0-14.4,0-.63.16-.92.79-1.1q9.53-2.79,19-5.65c.73-.22.93-.13.92.69q-.09,14.09-.1,28.17a.92.92,0,0,1-.78,1q-9.5,3.15-19,6.38c-.74.25-.88.1-.88-.65C126.65,173.55,126.63,168.73,126.63,163.9Z"/><path class="cls-3" d="M121.22,179.28l-5.57-1.86c-4.76-1.59-9.51-3.2-14.28-4.76a.92.92,0,0,1-.77-1q0-14.13,0-28.25c0-.69.13-.84.82-.64q9.6,2.88,19.21,5.71c.44.13.67.28.67.82q0,14.79,0,29.58C121.27,179,121.24,179.06,121.22,179.28Z"/><path class="cls-3" d="M69.17,251.26c0,4.85,0,9.71,0,14.57,0,.69-.11.85-.81.61Q58.8,263.22,49.2,260a.89.89,0,0,1-.71-1q0-14.13,0-28.26c0-.69.13-.85.84-.64Q58.9,233,68.47,235.8a.84.84,0,0,1,.73,1c0,4.83,0,9.66,0,14.49Z"/><path class="cls-3" d="M43.08,207.61c0,4.8,0,9.6,0,14.4,0,.74-.07,1-.89.71q-9.52-3.24-19.09-6.39a.86.86,0,0,1-.7-1q0-14.13,0-28.26c0-.79.19-.85.89-.64q9.51,2.87,19,5.65a.89.89,0,0,1,.77,1c0,4.83,0,9.66,0,14.48Z"/><path class="cls-3" d="M152.76,142.53c1.94.57,3.84,1.11,5.72,1.67,4.71,1.4,9.4,2.82,14.11,4.18a.93.93,0,0,1,.8,1.09q0,14.49,0,29c0,.65,0,.87-.79.61q-9.57-3.24-19.16-6.4a.85.85,0,0,1-.72-1q0-14.21,0-28.42C152.72,143,152.74,142.82,152.76,142.53Z"/><path class="cls-3" d="M95.19,207.71c0,4.8,0,9.59,0,14.39,0,.68-.09.87-.81.63q-9.58-3.24-19.17-6.4a.88.88,0,0,1-.7-1q0-14.13,0-28.25c0-.82.23-.83.9-.63q9.51,2.87,19,5.65a.89.89,0,0,1,.77,1c0,4.86,0,9.72,0,14.58Z"/><path class="cls-3" d="M74.53,251.26c0-4.8,0-9.6,0-14.39a.93.93,0,0,1,.81-1.09q9.49-2.76,19-5.61c.75-.23,1-.14,1,.68q-.08,14.09-.06,28.16a.88.88,0,0,1-.7,1q-9.59,3.18-19.15,6.43c-.73.25-.8,0-.8-.63C74.55,261,74.53,256.11,74.53,251.26Z"/><path class="cls-3" d="M48.51,207.61c0-4.8,0-9.6,0-14.4a1,1,0,0,1,.87-1.14q9.49-2.77,19-5.63c.71-.21.88-.12.88.65q-.06,14-.06,28.08c0,.75-.27,1-.92,1.22q-9.42,3.12-18.83,6.33c-.69.23-.9.17-.9-.62C48.52,217.27,48.51,212.44,48.51,207.61Z"/><path class="cls-3" d="M100.62,207.58c0-4.8,0-9.6,0-14.4a.94.94,0,0,1,.81-1.1q9.59-2.79,19.13-5.66c.58-.18.76-.13.75.53q0,14.22,0,28.44a.84.84,0,0,1-.71.92c-6.36,2.13-12.73,4.25-19.08,6.42-.78.27-.86,0-.86-.67C100.63,217.23,100.62,212.41,100.62,207.58Z"/><path class="cls-2" d="M146.25,249.47c-1.31,5-2.57,9.79-3.81,14.56-.63,2.43-.62,2.44-3.13,2.43-1.4,0-1.65-.19-2-1.56Q134,253.47,130.83,242c-.37-1.29,0-1.75,1.34-1.77h.53c2.64,0,2.63,0,3.33,2.6q1.8,6.68,3.63,13.35c.07.25,0,.6.39.79,1.21-4.58,2.41-9.13,3.62-13.69.18-.68.35-1.38.55-2.05a1.32,1.32,0,0,1,1.31-1c2.6-.15,2.67-.11,3.37,2.37l4,14.25c0,.09,0,.23.16.27.29-.18.25-.52.32-.78q2.1-7.29,4.14-14.58c.36-1.26.69-1.51,2-1.53,2.52,0,2.64.14,2,2.56q-3,10.95-5.95,21.9c-.43,1.6-.58,1.72-2.26,1.72h-.71c-1.3,0-1.61-.21-2-1.44q-1.8-6.34-3.59-12.7Z"/><path class="cls-2" d="M366.74,240.14A12.53,12.53,0,0,1,372,241.2a7.76,7.76,0,0,1,4,4.32,1.15,1.15,0,0,1-.9,1.73c-.19.06-.4.1-.6.15-2.06.46-2.06.46-3.28-1.26a6,6,0,0,0-7.75-1.33,2.78,2.78,0,0,0-1.17,2.79,2.43,2.43,0,0,0,1.74,2.15,48.93,48.93,0,0,0,5.89,1.25,11.62,11.62,0,0,1,4.45,1.64,7.37,7.37,0,0,1-.19,12c-4,2.73-11.33,2.33-15-.82a7.75,7.75,0,0,1-2.4-3.65,1.14,1.14,0,0,1,.86-1.63,20.48,20.48,0,0,1,2.18-.43,1.2,1.2,0,0,1,1.38.71,6.64,6.64,0,0,0,7,3.7,7.25,7.25,0,0,0,2.55-.72,3.15,3.15,0,0,0,1.74-3,2.79,2.79,0,0,0-1.95-2.6,32.59,32.59,0,0,0-5.61-1.29,14.9,14.9,0,0,1-3.46-1.06,6.39,6.39,0,0,1-4-6.15,6.67,6.67,0,0,1,3.93-6.43A11.77,11.77,0,0,1,366.74,240.14Z"/><path class="cls-2" d="M225.7,240.14a12,12,0,0,1,5.26,1.08,7.59,7.59,0,0,1,4,4.33,1.13,1.13,0,0,1-.84,1.69,7.31,7.31,0,0,1-.78.18c-2,.42-2,.42-3.14-1.24a5.92,5.92,0,0,0-7.8-1.32,2.76,2.76,0,0,0-1.16,2.71,2.49,2.49,0,0,0,1.72,2.17,50,50,0,0,0,5.81,1.24,17.12,17.12,0,0,1,3.15.88,7.34,7.34,0,0,1,1,12.93c-3.85,2.38-10.43,2.15-14.12-.48a7.94,7.94,0,0,1-3-4.14,1.13,1.13,0,0,1,.83-1.64c.72-.19,1.45-.31,2.18-.44a1.15,1.15,0,0,1,1.39.69c1.23,3.09,3.85,3.67,6.73,3.72a5.51,5.51,0,0,0,2.73-.69,3.11,3.11,0,0,0,1.8-3.1,2.77,2.77,0,0,0-2-2.54,31.65,31.65,0,0,0-5.53-1.26,15.59,15.59,0,0,1-4-1.34c-4.76-2.45-4.36-9.51-.28-11.88A12,12,0,0,1,225.7,240.14Z"/><path class="cls-2" d="M315.66,253.27a15.75,15.75,0,0,0,1,5.57,8.82,8.82,0,0,0,.78,1.49,4.42,4.42,0,0,0,7.46.05A8.43,8.43,0,0,0,326,257.8c.33-1.1.6-1.31,1.77-1.32a14.9,14.9,0,0,1,1.77,0c.69.07,1.25.44,1.11,1.21-.6,3.4-2.69,7.32-7.06,8.38-5,1.22-9.39-.87-11.41-5.61a17.47,17.47,0,0,1,.21-14.71c2-4.32,5.81-6.19,10.66-5.46,3.84.59,6.92,3.94,7.57,8.25a1.12,1.12,0,0,1-.92,1.39,3.4,3.4,0,0,1-1,.06c-1.82-.05-2.31.29-2.9-2.09a4.8,4.8,0,0,0-4.37-3.82,5,5,0,0,0-4.65,3.12,7.94,7.94,0,0,0-.54,1.4,17.35,17.35,0,0,0-.49,2.25C315.71,251.67,315.71,252.47,315.66,253.27Z"/><path class="cls-2" d="M290.28,259.08q2.72-8.52,5.4-17c.12-.36.24-.73.35-1.09a1.28,1.28,0,0,1,1-.95,6.5,6.5,0,0,1,2.81,0,.94.94,0,0,1,.68,1.37q-3.9,11.87-7.76,23.74a1.47,1.47,0,0,1-1.64,1.16c-.74,0-1.48,0-2.22,0-1.21,0-1.49-.19-1.88-1.33-1.12-3.3-2.22-6.6-3.33-9.9-1.5-4.45-3-8.9-4.5-13.34-.42-1.23,0-1.77,1.29-1.79.62,0,1.25,0,1.87,0,1.35,0,1.72.26,2.13,1.52q2.69,8.25,5.36,16.51A2.72,2.72,0,0,0,290.28,259.08Z"/><path class="cls-3" d="M27,182.88l5.81-1.83c4.09-1.28,8.18-2.55,12.26-3.84a1.83,1.83,0,0,1,1.2-.05c6,1.88,12.08,3.73,18.13,5.6a4.13,4.13,0,0,1,.47.24l-6,1.58c-4.17,1.11-8.34,2.21-12.51,3.33a2.12,2.12,0,0,1-1.12,0q-9.1-2.48-18.23-4.89Z"/><path class="cls-3" d="M90.79,226.71c-2.83.76-5.53,1.49-8.24,2.2-3.19.85-6.4,1.68-9.59,2.55a4.25,4.25,0,0,1-2.32,0c-5.72-1.57-11.46-3.1-17.2-4.63l-.63-.2,5.52-1.75,12.68-4a2,2,0,0,1,1.21-.09l18.28,5.66A2.85,2.85,0,0,1,90.79,226.71Z"/><path class="cls-3" d="M116.8,183l-12.17,3.24-6.25,1.66a1.67,1.67,0,0,1-.86.06L79,183a14.91,14.91,0,0,1,2.5-.87l15.64-4.91a2,2,0,0,1,1.29-.05q8.88,2.78,17.78,5.51C116.37,182.74,116.63,182.74,116.8,183Z"/><path class="cls-2" d="M268.32,244.39c.36-.51.6-.87.86-1.21a6.5,6.5,0,0,1,5.89-2.81c1.11.07,1.49.46,1.46,1.57,0,.81.28,1.69-.25,2.42s-1.47.43-2.22.62c-2.87.72-4.22,2.86-5,5.46a11.52,11.52,0,0,0-.35,3.52v10.83c0,1.17-.36,1.53-1.54,1.55-.53,0-1.07,0-1.6,0-1.25,0-1.59-.33-1.59-1.57q0-9.91,0-19.81c0-.86,0-1.72,0-2.58s.43-1.32,1.37-1.35c.57,0,1.13,0,1.69,0a1.17,1.17,0,0,1,1.3,1.32C268.33,243,268.32,243.58,268.32,244.39Z"/><path class="cls-2" d="M307.74,253.27v11.56c0,1.46-.36,1.8-1.85,1.81-.59,0-1.19,0-1.78,0-1,0-1.43-.47-1.43-1.42q0-12,0-24c0-1,.46-1.4,1.43-1.42.68,0,1.36,0,2,0,1.12,0,1.56.45,1.57,1.56Z"/><path class="cls-2" d="M308.19,233.64a3,3,0,1,1-3-3A3,3,0,0,1,308.19,233.64Z"/><path class="cls-2" d="M267.7,219.87a11.84,11.84,0,0,1-2.67-8.21c.08-5.39.24-10.78-.1-16.16a10.39,10.39,0,0,0-7.33-9.8,22.12,22.12,0,0,0-16.45.46,12.65,12.65,0,0,0-7.82,9.54c-.24,1.11.19,1.82,1.22,1.94,2.24.27,4.47.51,6.71.73,1.07.1,1.57-.21,1.79-1.27.67-3.17,3.43-4.94,7-4.58a4.52,4.52,0,0,1,4.23,4.08c.17,1.18.09,2.37.16,3.55,0,.67-.2.84-.83.9a71.56,71.56,0,0,0-10.1,1.41,15.27,15.27,0,0,0-8.19,4.49c-3.19,3.58-3.85,7.82-3,12.37.71,3.61,2.69,6.39,6.2,7.62a15,15,0,0,0,13.83-1.55,26.47,26.47,0,0,0,3.55-3,19.66,19.66,0,0,0,3.78,4.58c1.06.87,1.69.89,2.72,0l5-4.3C268.56,221.63,268.69,221.06,267.7,219.87Zm-13.29-10.26a15.56,15.56,0,0,1-.86,5.93,7.35,7.35,0,0,1-3.73,4.2,4.52,4.52,0,0,1-6.59-3.54c-.76-4.61,1.51-7.78,6.28-8.74a25.06,25.06,0,0,1,4.23-.42c.58,0,.72.17.68.7S254.41,209,254.41,209.61Z"/><path class="cls-2" d="M167.58,219.27a10.58,10.58,0,0,1-2.22-6.77c.06-5.3.08-10.6,0-15.91-.11-6-3-9.74-8.81-11.36a22.63,22.63,0,0,0-14.38.64,12.83,12.83,0,0,0-8.49,9.91c-.22,1.08.22,1.75,1.28,1.87q3.27.38,6.54.71c1.18.12,1.69-.18,1.92-1.32.64-3.1,3.43-4.92,7-4.51a4.48,4.48,0,0,1,4.12,3.89,30.88,30.88,0,0,1,.17,3.72c0,.65-.16.85-.82.91a77.22,77.22,0,0,0-9.32,1.24,16.41,16.41,0,0,0-8.35,4c-3.59,3.52-4.48,7.87-3.63,12.66a9.75,9.75,0,0,0,6.69,8.13,15.84,15.84,0,0,0,10.63-.24,17.8,17.8,0,0,0,6.32-4.55,19.22,19.22,0,0,0,3.81,4.62,1.7,1.7,0,0,0,2.65,0c1.49-1.27,2.95-2.56,4.44-3.84C169.1,221.45,169.16,221.31,167.58,219.27Zm-12.87-9.48a13.72,13.72,0,0,1-1.08,6.32,7.35,7.35,0,0,1-3.08,3.44,4.6,4.6,0,0,1-7.05-3.7c-.5-4.57,1.68-7.45,6.33-8.39a26.13,26.13,0,0,1,4.23-.42c.6,0,.69.2.66.7C154.69,208.42,154.71,209.1,154.71,209.79Z"/><path class="cls-2" d="M340.55,200.85a21.84,21.84,0,0,0-5.18-11.2c-6.25-7-20.34-7.26-26,4a28.61,28.61,0,0,0-2.8,12.7A29,29,0,0,0,309,218.4c3.58,7.76,11.16,11.41,19.17,9.12,5.56-1.59,9-5.49,11.07-10.69A29,29,0,0,0,340.55,200.85Zm-11.28,13.31a9.62,9.62,0,0,1-1.58,3.91,4.65,4.65,0,0,1-7.88-.28,14.39,14.39,0,0,1-1.73-5.9c-.26-2-.24-4-.31-6a31.39,31.39,0,0,1,.84-8.51,10.49,10.49,0,0,1,.74-1.88,4.73,4.73,0,0,1,4.66-2.79,4.65,4.65,0,0,1,4.55,3.31,21.83,21.83,0,0,1,1.15,6.35A47.25,47.25,0,0,1,329.27,214.16Z"/><path class="cls-2" d="M207.47,245.9a9,9,0,0,0-10.85-5.76,7.53,7.53,0,0,0-4.06,3v-9.76c0-.94-.42-1.36-1.34-1.39-.62,0-1.24,0-1.86,0-1.15,0-1.54.4-1.54,1.56v30.55c0,1,.32,1.47,1.14,1.61a1.58,1.58,0,0,0,2-1.12c.21-.61.4-1.23.66-2a9.07,9.07,0,0,0,3.77,3A9,9,0,0,0,207,260.87,18.15,18.15,0,0,0,207.47,245.9ZM202.71,259a5,5,0,0,1-3.33,3.18,5.45,5.45,0,0,1-5.91-3.08,10.21,10.21,0,0,1-.9-4c0-.74,0-1.48,0-2.22a12.45,12.45,0,0,1,.51-4.73,7.64,7.64,0,0,1,2.36-3.37,4.26,4.26,0,0,1,6.57,1.13,12.13,12.13,0,0,1,1.67,5.55A15.09,15.09,0,0,1,202.71,259Z"/><path class="cls-2" d="M168.46,254c2.43,0,4.86,0,7.28,0h7.38c.94,0,1.45-.4,1.45-1.17a16,16,0,0,0-2.22-8.38c-3.62-5.93-13.9-6-17.74,1a16.47,16.47,0,0,0-1.2,13.3c1.4,4.49,4.46,7.18,9.21,7.65,4.08.41,8.34-1.05,10.62-5.13,1.26-2.27,1.06-2.69-1.5-3.15-1.74-.31-1.79-.28-2.66,1.26a5.46,5.46,0,0,1-5.1,3.11A5.85,5.85,0,0,1,168.7,259a10.41,10.41,0,0,1-.91-4.3C167.77,254.13,167.91,254,168.46,254Zm4.66-10.14a4.84,4.84,0,0,1,4.89,2,7.64,7.64,0,0,1,1.43,3.94c.06.58-.14.68-.67.67-1.71,0-3.43,0-5.14,0h-5.06c-.28,0-.55.09-.55-.41A6.84,6.84,0,0,1,173.12,243.85Z"/><path class="cls-2" d="M244.75,254c2.36.05,4.73,0,7.1,0h7.37c1,0,1.45-.38,1.45-1.17a15.93,15.93,0,0,0-2.11-8.22c-3.56-6.1-13.95-6.25-17.85.8a16.91,16.91,0,0,0-1.7,11.43c1,5.43,4.33,8.77,9.46,9.51a10.62,10.62,0,0,0,10.88-5.11c1.27-2.25,1.06-2.71-1.49-3.15-1.74-.31-1.79-.28-2.66,1.26a5.45,5.45,0,0,1-5.1,3.11,5.82,5.82,0,0,1-5.31-3.55,10.19,10.19,0,0,1-.88-4C243.88,254.22,244,254,244.75,254Zm-.61-4a7.48,7.48,0,0,1,3.18-5.4,5,5,0,0,1,6.9,1.37,7.75,7.75,0,0,1,1.33,3.89c0,.46-.05.62-.54.61-1.72,0-3.43,0-5.15,0h-5.14C244.41,250.46,244,250.57,244.14,250Z"/><path class="cls-2" d="M338.84,254c2.39.05,4.79,0,7.19,0h7.2c1.28,0,1.67-.39,1.62-1.63a17.86,17.86,0,0,0-.85-5c-1.39-4.11-4.06-6.75-8.51-7.24a10.37,10.37,0,0,0-10.7,5.43,16.59,16.59,0,0,0-1.25,12.74,10.46,10.46,0,0,0,11.24,8.08,10,10,0,0,0,9.28-6.31c.42-1,.11-1.58-.95-1.81-.43-.1-.87-.15-1.31-.23-1.44-.27-1.65-.17-2.32,1.09a5.53,5.53,0,0,1-5.25,3.31,5.87,5.87,0,0,1-5.41-3.82,11.85,11.85,0,0,1-.76-3.81C338,254.2,338.14,254,338.84,254Zm4.35-10.1a4.93,4.93,0,0,1,5,1.81,7.64,7.64,0,0,1,1.56,4.16c0,.45-.06.62-.55.61-1.74,0-3.49,0-5.23,0h-5.05c-.25,0-.58.17-.59-.37C338.23,247.56,340.7,244.36,343.19,243.9Z"/></g></g></svg>