<svg xmlns="http://www.w3.org/2000/svg" xmlns:xlink="http://www.w3.org/1999/xlink" viewBox="0 0 290 290"><defs><style>.cls-1{fill:none;stroke-miterlimit:10;stroke-width:6px;stroke:url(#linear-gradient);}.cls-2{fill:#fff;}</style><linearGradient id="linear-gradient" y1="145" x2="290" y2="145" gradientUnits="userSpaceOnUse"><stop offset="0" stop-color="#fcdff4"/><stop offset="0.25" stop-color="#ed42bf"/><stop offset="0.5" stop-color="#aa1bbe"/><stop offset="0.75" stop-color="#4c0288"/><stop offset="1" stop-color="#0b002a"/></linearGradient></defs><title>hubAnalyst</title><g id="Layer_2" data-name="Layer 2"><g id="Layer_1-2" data-name="Layer 1"><circle class="cls-1" cx="145" cy="145" r="142"/><path class="cls-2" d="M224.47,151.77,211.88,101.3A24.44,24.44,0,0,0,180.43,84l-4.23,1.42a4.43,4.43,0,0,0-2.81,5.62l1.4,4.21a4.45,4.45,0,0,0,5.62,2.82l3.66-1.22a11.82,11.82,0,0,1,9.21.48,11,11,0,0,1,5.66,7.17l10.69,42.73a76.69,76.69,0,0,0-22.56-3.46,72.93,72.93,0,0,0-31.9,7.42H134.84a72.85,72.85,0,0,0-31.91-7.43,76.9,76.9,0,0,0-22.55,3.46l10.68-42.73a11,11,0,0,1,5.66-7.17,11.91,11.91,0,0,1,9.21-.48l3.66,1.22a4.44,4.44,0,0,0,5.62-2.81l1.4-4.22a4.44,4.44,0,0,0-2.81-5.62L109.56,84a24.44,24.44,0,0,0-31.44,17.26L65.53,151.77a17.83,17.83,0,0,0-.53,4.3v19.52a31.82,31.82,0,0,0,32,31.63h10.31A31.85,31.85,0,0,0,139.22,178l.82-10.73H150l.81,10.73a31.85,31.85,0,0,0,31.91,29.27H193a31.82,31.82,0,0,0,32-31.63V156.08A17.85,17.85,0,0,0,224.47,151.77Zm-103,24.84a14.13,14.13,0,0,1-14.18,12.84H97a14.06,14.06,0,0,1-14.22-13.86V165.16a60.35,60.35,0,0,1,20.16-3.59,54.35,54.35,0,0,1,19.42,3.59l-.87,11.45Zm85.73-1A14.06,14.06,0,0,1,193,189.45H182.69a14.13,14.13,0,0,1-14.18-12.84l-.87-11.45a54.41,54.41,0,0,1,19.43-3.59,60.33,60.33,0,0,1,20.15,3.59v10.43Z"/></g></g></svg>