<svg xmlns="http://www.w3.org/2000/svg" xmlns:xlink="http://www.w3.org/1999/xlink" viewBox="0 0 290 290"><defs><style>.cls-1{fill:none;stroke-miterlimit:10;stroke-width:6px;stroke:url(#linear-gradient);}.cls-2{fill:#fff;}</style><linearGradient id="linear-gradient" y1="145" x2="290" y2="145" gradientUnits="userSpaceOnUse"><stop offset="0" stop-color="#fcdff4"/><stop offset="0.25" stop-color="#ed42bf"/><stop offset="0.5" stop-color="#aa1bbe"/><stop offset="0.75" stop-color="#4c0288"/><stop offset="1" stop-color="#0b002a"/></linearGradient></defs><title>hubFlow</title><g id="Layer_2" data-name="Layer 2"><g id="Layer_1-2" data-name="Layer 1"><circle class="cls-1" cx="145" cy="145" r="142"/><path class="cls-2" d="M97,169H73a8,8,0,0,0-8,8v24a8,8,0,0,0,8,8H97a8,8,0,0,0,8-8V177A8,8,0,0,0,97,169Zm-6-20h48v12h12V149h48v12h12V146.6a9.62,9.62,0,0,0-9.6-9.6H151V121h10a8,8,0,0,0,8-8V89a8,8,0,0,0-8-8H129a8,8,0,0,0-8,8v24a8,8,0,0,0,8,8h10v16H88.6a9.62,9.62,0,0,0-9.6,9.6V161H91Zm66,20H133a8,8,0,0,0-8,8v24a8,8,0,0,0,8,8h24a8,8,0,0,0,8-8V177A8,8,0,0,0,157,169Zm60,0H193a8,8,0,0,0-8,8v24a8,8,0,0,0,8,8h24a8,8,0,0,0,8-8V177A8,8,0,0,0,217,169Z"/></g></g></svg>