<svg xmlns="http://www.w3.org/2000/svg" xmlns:xlink="http://www.w3.org/1999/xlink" viewBox="0 0 559.45 198.03"><defs><style>.cls-1{font-size:19.78px;fill:#fff;font-family:Roboto-Regular, Roboto;}.cls-2{letter-spacing:-0.01em;}.cls-3{letter-spacing:-0.05em;}.cls-4{letter-spacing:-0.02em;}.cls-5{letter-spacing:-0.01em;}.cls-6{fill:url(#linear-gradient);}</style><linearGradient id="linear-gradient" y1="99.02" x2="559.45" y2="99.02" gradientUnits="userSpaceOnUse"><stop offset="0" stop-color="#fcdff4"/><stop offset="0.25" stop-color="#ed42bf"/><stop offset="0.5" stop-color="#aa1bbe"/><stop offset="0.75" stop-color="#4c0288"/><stop offset="1" stop-color="#0b002a"/></linearGradient></defs><title>hubGraph1_2</title><g id="Layer_2" data-name="Layer 2"><g id="Layer_1-2" data-name="Layer 1"><text class="cls-1" transform="translate(165.54 39.58)">Junior</text><text class="cls-1" transform="translate(165.54 72.54)">College</text><text class="cls-1" transform="translate(165.54 105.51)">Amateur</text><text class="cls-1" transform="translate(165.54 138.48)">P<tspan class="cls-2" x="12.48" y="0">r</tspan><tspan x="18.98" y="0">ofessional</tspan></text><text class="cls-1" transform="translate(165.54 171.45)">Senior</text><text class="cls-1" transform="translate(22.74 104.82)">Player</text><text class="cls-1" transform="translate(371.15 23.28)"><tspan class="cls-3">T</tspan><tspan x="10.85" y="0">ournament</tspan></text><text class="cls-1" transform="translate(371.13 56.25)">Public<tspan class="cls-4" x="54.44" y="0"> </tspan><tspan class="cls-3" x="58.95" y="0">T</tspan><tspan x="69.79" y="0">ournament</tspan></text><text class="cls-1" transform="translate(371.13 89.21)">P<tspan class="cls-5" x="12.48" y="0">r</tspan><tspan x="18.98" y="0">o Am</tspan></text><text class="cls-1" transform="translate(371.13 122.18)">Charity</text><text class="cls-1" transform="translate(371.13 155.15)">Qualifier</text><text class="cls-1" transform="translate(371.13 186.47)">State Open</text><path class="cls-6" d="M550.58,56.55c1.94-3.23,4.71-5.12,7.58-5.19h1.25V48.89h-1.22c-2.9-.07-5.67-2-7.59-5.19a22.66,22.66,0,0,0-11.27-9.87A22.64,22.64,0,0,0,550.58,24c1.94-3.24,4.71-5.13,7.68-5.2l1.19-.09-.1-2.38h-1.17c-2.9-.07-5.67-2-7.59-5.19-4.22-7-10.77-11.1-18-11.1h-158c-7.21,0-13.77,4.05-18,11.1-1.92,3.22-4.68,5.11-7.53,5.19H329.38a7.23,7.23,0,0,0-7.23,7.23V32.6H300.09c-2.9-.06-5.67-2-7.6-5.19-4.21-7.06-10.77-11.1-18-11.1H169.59c-7.21,0-13.77,4-18,11.1-1.92,3.22-4.68,5.11-7.61,5.19H123.87a7.24,7.24,0,0,0-7.23,7.24v58H96.48c-2.9-.07-5.66-2-7.59-5.19-4.22-7.06-10.77-11.1-18-11.1H26.79c-7.21,0-13.77,4-18,11.1-1.92,3.21-4.68,5.11-7.6,5.19L0,97.86l.09,2.36,1.16,0c2.88.08,5.64,2,7.56,5.2,4.21,7,10.77,11.1,18,11.1H70.9c7.22,0,13.77-4,18-11.1,1.93-3.24,4.7-5.13,7.57-5.2h20.18V158.2a7.24,7.24,0,0,0,7.23,7.24H144c2.89.08,5.65,2,7.57,5.19,4.21,7.06,10.77,11.11,18,11.11H274.5c7.22,0,13.78-4.05,18-11.11,1.93-3.23,4.7-5.12,7.58-5.19h22.08v9.06a7.23,7.23,0,0,0,7.23,7.23h19.71c2.89.08,5.65,2,7.57,5.19,4.21,7.06,10.77,11.1,18,11.1h158c7.22,0,13.77-4,18-11.1,1.94-3.23,4.71-5.13,7.58-5.19h1.25v-2.47h-1.22c-2.9-.07-5.67-2-7.59-5.2a22.63,22.63,0,0,0-11.27-9.86,22.64,22.64,0,0,0,11.26-9.87c1.94-3.24,4.71-5.13,7.68-5.2l1.15-.09v-2.29l-1.14-.08h-.07c-2.9-.06-5.67-2-7.61-5.19a22.64,22.64,0,0,0-11.26-9.87,22.6,22.6,0,0,0,11.26-9.87c1.94-3.23,4.71-5.13,7.58-5.19h1.25v-2.47h-1.22c-2.9-.07-5.67-2-7.59-5.2A22.63,22.63,0,0,0,539.32,99a22.64,22.64,0,0,0,11.26-9.87c1.94-3.24,4.71-5.13,7.68-5.2l1.15-.09V81.57l-1.14-.08h-.07c-2.9-.06-5.67-2-7.6-5.19a22.7,22.7,0,0,0-11.27-9.87A22.6,22.6,0,0,0,550.58,56.55ZM86.77,104.18c-3.76,6.29-9.54,9.9-15.87,9.9H26.79c-6.32,0-12.1-3.61-15.86-9.9A13.79,13.79,0,0,0,5.77,99a13.89,13.89,0,0,0,5.16-5.17c3.76-6.29,9.54-9.9,15.86-9.9H70.9c6.33,0,12.11,3.61,15.87,9.9A13.87,13.87,0,0,0,91.92,99,13.84,13.84,0,0,0,86.77,104.18Zm272-91.81c3.75-6.29,9.54-9.9,15.86-9.9h158c6.33,0,12.11,3.61,15.87,9.9a13.76,13.76,0,0,0,5.15,5.16,13.72,13.72,0,0,0-5.15,5.17c-3.76,6.29-9.54,9.89-15.87,9.89h-158c-6.32,0-12.11-3.6-15.86-9.89a13.87,13.87,0,0,0-5.15-5.17A13.91,13.91,0,0,0,358.78,12.37Zm-29.4,6.39h19.71c2.89.08,5.65,2,7.57,5.19a22.62,22.62,0,0,0,11.27,9.87,22.58,22.58,0,0,0-11.27,9.87c-1.92,3.21-4.68,5.11-7.61,5.19H324.62V23.53A4.77,4.77,0,0,1,329.38,18.76Zm19.7,127.91H324.62V116.55h24.47c2.89.08,5.65,2,7.57,5.19a22.58,22.58,0,0,0,11.27,9.87,22.62,22.62,0,0,0-11.27,9.87C354.74,144.69,352,146.58,349.08,146.67ZM301.3,130.38h-1.22c-2.9-.08-5.66-2-7.59-5.2a22.7,22.7,0,0,0-11.27-9.87,22.63,22.63,0,0,0,11.27-9.86c1.93-3.24,4.7-5.13,7.58-5.2h22.08v30.13Zm-182.2,0V100.25H144c2.89.08,5.65,2,7.57,5.2a22.57,22.57,0,0,0,11.26,9.86,22.64,22.64,0,0,0-11.26,9.87c-1.92,3.22-4.68,5.11-7.53,5.19ZM144,67.66h0c2.89.08,5.65,2,7.57,5.19a22.64,22.64,0,0,0,11.26,9.87,22.6,22.6,0,0,0-11.26,9.87c-1.92,3.2-4.66,5.09-7.59,5.19H119.1V67.65Zm178.11,0V97.78H300.08c-2.9-.07-5.66-2-7.59-5.19a22.66,22.66,0,0,0-11.27-9.87,22.7,22.7,0,0,0,11.27-9.87c1.93-3.23,4.7-5.13,7.58-5.19ZM295.52,99a13.91,13.91,0,0,0-5.15,5.16c-3.76,6.29-9.54,9.9-15.87,9.9H169.59c-6.33,0-12.11-3.61-15.86-9.9A13.86,13.86,0,0,0,148.57,99a13.89,13.89,0,0,0,5.16-5.17c3.75-6.29,9.54-9.9,15.86-9.9H274.5c6.33,0,12.11,3.61,15.87,9.9A13.94,13.94,0,0,0,295.52,99Zm-5.15-27.43c-3.76,6.29-9.54,9.9-15.87,9.9H169.59c-6.33,0-12.11-3.61-15.86-9.9a13.87,13.87,0,0,0-5.15-5.17,13.91,13.91,0,0,0,5.15-5.16c3.75-6.29,9.53-9.9,15.86-9.9H274.5c6.33,0,12.11,3.61,15.87,9.9a13.91,13.91,0,0,0,5.15,5.16A13.87,13.87,0,0,0,290.37,71.59ZM153.73,126.45c3.75-6.29,9.53-9.9,15.86-9.9H274.5c6.33,0,12.11,3.61,15.87,9.9a13.91,13.91,0,0,0,5.15,5.16,13.87,13.87,0,0,0-5.15,5.17c-3.76,6.29-9.54,9.89-15.87,9.89H169.59c-6.32,0-12.11-3.6-15.86-9.89a13.87,13.87,0,0,0-5.15-5.17A13.91,13.91,0,0,0,153.73,126.45Zm170.89-12.37V84h24.47c2.89.08,5.65,2,7.57,5.19A22.62,22.62,0,0,0,367.93,99a22.55,22.55,0,0,0-11.27,9.86c-1.92,3.22-4.68,5.12-7.53,5.2Zm23.31-32.59H324.62V51.36h24.47c2.89.08,5.65,2,7.57,5.19a22.58,22.58,0,0,0,11.27,9.87,22.62,22.62,0,0,0-11.27,9.87c-1.92,3.22-4.68,5.11-7.53,5.19ZM322.15,35.06V65.19H300.08c-2.9-.07-5.66-2-7.59-5.2a22.63,22.63,0,0,0-11.27-9.86,22.66,22.66,0,0,0,11.27-9.87c1.93-3.24,4.7-5.13,7.58-5.2Zm-168.42-6.4c3.75-6.29,9.54-9.9,15.86-9.9H274.5c6.33,0,12.11,3.61,15.87,9.9a13.87,13.87,0,0,0,5.15,5.17A13.91,13.91,0,0,0,290.37,39c-3.76,6.29-9.54,9.9-15.87,9.9H169.59c-6.33,0-12.11-3.61-15.86-9.9a13.86,13.86,0,0,0-5.16-5.16A13.82,13.82,0,0,0,153.73,28.66ZM119.1,39.83a4.78,4.78,0,0,1,4.77-4.77H144c2.89.09,5.65,2,7.57,5.2a22.64,22.64,0,0,0,11.26,9.87A22.57,22.57,0,0,0,151.61,60c-1.92,3.22-4.68,5.11-7.53,5.2h-25Zm0,118.37V132.84H144c2.89.08,5.65,2,7.57,5.19a22.64,22.64,0,0,0,11.26,9.87,22.6,22.6,0,0,0-11.26,9.87C149.69,161,147,162.87,144,163H123.87A4.78,4.78,0,0,1,119.1,158.2Zm171.27,11.17c-3.76,6.29-9.54,9.9-15.87,9.9H169.59c-6.33,0-12.11-3.61-15.86-9.9a13.86,13.86,0,0,0-5.16-5.16,13.89,13.89,0,0,0,5.16-5.17c3.75-6.29,9.53-9.9,15.86-9.9H274.5c6.33,0,12.11,3.61,15.87,9.9a14,14,0,0,0,5.15,5.17A13.91,13.91,0,0,0,290.37,169.37ZM301.3,163h-1.22c-2.9-.07-5.66-2-7.59-5.19a22.66,22.66,0,0,0-11.27-9.87A22.7,22.7,0,0,0,292.49,138c1.93-3.23,4.7-5.13,7.58-5.19h22.08V163Zm28.08,16.3a4.77,4.77,0,0,1-4.76-4.77V149.14h24.47c2.89.09,5.65,2,7.57,5.2a22.62,22.62,0,0,0,11.27,9.87,22.55,22.55,0,0,0-11.27,9.86c-1.92,3.22-4.68,5.11-7.53,5.2Zm219.09-3.93a13.76,13.76,0,0,0,5.15,5.16,13.72,13.72,0,0,0-5.15,5.17c-3.76,6.29-9.54,9.9-15.87,9.9h-158c-6.32,0-12.11-3.61-15.86-9.9a13.87,13.87,0,0,0-5.15-5.17,13.91,13.91,0,0,0,5.15-5.16c3.75-6.29,9.54-9.9,15.86-9.9h158C538.93,165.44,544.71,169.05,548.47,175.34Zm0-32.6a13.72,13.72,0,0,0,5.15,5.17,13.76,13.76,0,0,0-5.15,5.16c-3.76,6.29-9.54,9.9-15.87,9.9h-158c-6.32,0-12.11-3.61-15.86-9.9a13.86,13.86,0,0,0-5.16-5.16,13.82,13.82,0,0,0,5.16-5.17c3.75-6.29,9.54-9.9,15.86-9.9h158C538.93,132.84,544.71,136.45,548.47,142.74Zm0-32.59a13.76,13.76,0,0,0,5.15,5.16,13.8,13.8,0,0,0-5.15,5.17c-3.76,6.29-9.54,9.9-15.87,9.9h-158c-6.32,0-12.11-3.61-15.86-9.9a13.86,13.86,0,0,0-5.16-5.16,14,14,0,0,0,5.16-5.17c3.75-6.29,9.54-9.9,15.86-9.9h158C538.93,100.25,544.71,103.86,548.47,110.15Zm0-32.6a13.72,13.72,0,0,0,5.15,5.17,13.76,13.76,0,0,0-5.15,5.16c-3.76,6.29-9.54,9.9-15.87,9.9h-158c-6.32,0-12.11-3.61-15.86-9.9a13.91,13.91,0,0,0-5.15-5.16,13.94,13.94,0,0,0,5.15-5.17c3.75-6.29,9.54-9.89,15.86-9.89h158C538.93,67.66,544.71,71.26,548.47,77.55ZM532.6,65.19h-158c-6.32,0-12.11-3.61-15.86-9.9a13.86,13.86,0,0,0-5.16-5.16A13.89,13.89,0,0,0,358.78,45c3.75-6.29,9.54-9.9,15.86-9.9h158c6.33,0,12.11,3.61,15.87,9.9a13.87,13.87,0,0,0,5.15,5.17,13.76,13.76,0,0,0-5.15,5.16C544.71,61.58,538.93,65.19,532.6,65.19Z"/></g></g></svg>