<svg xmlns="http://www.w3.org/2000/svg" xmlns:xlink="http://www.w3.org/1999/xlink" viewBox="0 0 290 290"><defs><style>.cls-1{fill:none;stroke-miterlimit:10;stroke-width:6px;stroke:url(#linear-gradient);}.cls-2{fill:#fff;}</style><linearGradient id="linear-gradient" y1="145" x2="290" y2="145" gradientUnits="userSpaceOnUse"><stop offset="0" stop-color="#fcdff4"/><stop offset="0.25" stop-color="#ed42bf"/><stop offset="0.5" stop-color="#aa1bbe"/><stop offset="0.75" stop-color="#4c0288"/><stop offset="1" stop-color="#0b002a"/></linearGradient></defs><title>hubLog</title><g id="Layer_2" data-name="Layer 2"><g id="Layer_1-2" data-name="Layer 1"><circle class="cls-1" cx="145" cy="145" r="142"/><path class="cls-2" d="M220.59,109.38l-14.4,14.41a3.76,3.76,0,0,1-5.32,0L166.18,89.1a3.77,3.77,0,0,1,0-5.31l14.41-14.41a15,15,0,0,1,21.22,0l18.78,18.78A15,15,0,0,1,220.59,109.38ZM153.81,96.17,71.74,178.23l-6.62,38a7.51,7.51,0,0,0,8.69,8.69l38-6.66,82.06-82.06a3.76,3.76,0,0,0,0-5.32L159.15,96.17a3.78,3.78,0,0,0-5.34,0Zm-50,75a4.36,4.36,0,0,1,0-6.19l48.12-48.13a4.38,4.38,0,0,1,6.19,6.19L110,171.2a4.35,4.35,0,0,1-6.18,0ZM92.49,197.48h15v11.35l-20.15,3.53-9.72-9.72,3.53-20.16H92.49Z"/></g></g></svg>