<svg xmlns="http://www.w3.org/2000/svg" xmlns:xlink="http://www.w3.org/1999/xlink" viewBox="0 0 290 290"><defs><style>.cls-1{fill:#fff;}.cls-2{fill:none;stroke-miterlimit:10;stroke-width:6px;stroke:url(#linear-gradient);}</style><linearGradient id="linear-gradient" y1="145" x2="290" y2="145" gradientUnits="userSpaceOnUse"><stop offset="0" stop-color="#fcdff4"/><stop offset="0.25" stop-color="#ed42bf"/><stop offset="0.5" stop-color="#aa1bbe"/><stop offset="0.75" stop-color="#4c0288"/><stop offset="1" stop-color="#0b002a"/></linearGradient></defs><title>hubMan</title><g id="Layer_2" data-name="Layer 2"><g id="Layer_1-2" data-name="Layer 1"><path class="cls-1" d="M89,137a16,16,0,1,0-16-16A16,16,0,0,0,89,137Zm112,0a16,16,0,1,0-16-16A16,16,0,0,0,201,137Zm8,8H193a16,16,0,0,0-11.28,4.65A36.57,36.57,0,0,1,200.5,177H217a8,8,0,0,0,8-8v-8A16,16,0,0,0,209,145Zm-64,0a28,28,0,1,0-28-28A28,28,0,0,0,145,145Zm19.2,8h-2.07a38.66,38.66,0,0,1-34.25,0H125.8A28.81,28.81,0,0,0,97,181.8V189a12,12,0,0,0,12,12h72a12,12,0,0,0,12-12v-7.2A28.81,28.81,0,0,0,164.2,153Zm-55.93-3.35A15.94,15.94,0,0,0,97,145H81a16,16,0,0,0-16,16v8a8,8,0,0,0,8,8H89.48a36.64,36.64,0,0,1,18.8-27.35Z"/><circle class="cls-2" cx="145" cy="145" r="142"/></g></g></svg>