<svg xmlns="http://www.w3.org/2000/svg" xmlns:xlink="http://www.w3.org/1999/xlink" viewBox="0 0 290 290"><defs><style>.cls-1{fill:none;stroke-miterlimit:10;stroke-width:6px;stroke:url(#linear-gradient);}.cls-2{fill:#fff;}</style><linearGradient id="linear-gradient" y1="145" x2="290" y2="145" gradientUnits="userSpaceOnUse"><stop offset="0" stop-color="#fcdff4"/><stop offset="0.25" stop-color="#ed42bf"/><stop offset="0.5" stop-color="#aa1bbe"/><stop offset="0.75" stop-color="#4c0288"/><stop offset="1" stop-color="#0b002a"/></linearGradient></defs><title>hubRoad</title><g id="Layer_2" data-name="Layer 2"><g id="Layer_1-2" data-name="Layer 1"><circle class="cls-1" cx="145" cy="145" r="142"/><path class="cls-2" d="M220.56,65l-1.43.27-47.46,18.4L118.33,65,68.2,81.89A4.47,4.47,0,0,0,65,86.16v134.4A4.4,4.4,0,0,0,69.44,225l1.43-.27,47.46-18.4L171.67,225l50.13-16.89a4.47,4.47,0,0,0,3.2-4.27V69.44A4.4,4.4,0,0,0,220.56,65ZM171.67,207.22l-53.34-18.75V82.78l53.34,18.75Z"/></g></g></svg>