<svg xmlns="http://www.w3.org/2000/svg" xmlns:xlink="http://www.w3.org/1999/xlink" viewBox="0 0 290 290"><defs><style>.cls-1{fill:none;stroke-miterlimit:10;stroke-width:6px;stroke:url(#linear-gradient);}.cls-2{fill:#fff;}</style><linearGradient id="linear-gradient" y1="145" x2="290" y2="145" gradientUnits="userSpaceOnUse"><stop offset="0" stop-color="#fcdff4"/><stop offset="0.25" stop-color="#ed42bf"/><stop offset="0.5" stop-color="#aa1bbe"/><stop offset="0.75" stop-color="#4c0288"/><stop offset="1" stop-color="#0b002a"/></linearGradient></defs><title>hubStrat</title><g id="Layer_2" data-name="Layer 2"><g id="Layer_1-2" data-name="Layer 1"><circle class="cls-1" cx="145" cy="145" r="142"/><path class="cls-2" d="M108.08,126A284.92,284.92,0,0,1,97,203.67h96c-9.8-33.2-11-63-11.07-77.66l15.14-14.11a4,4,0,0,0,1.27-2.92V69a4,4,0,0,0-4-4H181a4,4,0,0,0-4,4V83.67H161V69a4,4,0,0,0-4-4H133a4,4,0,0,0-4,4V83.67H113V69a4,4,0,0,0-4-4H95.67a4,4,0,0,0-4,4v40a4,4,0,0,0,1.27,2.92L108.08,126Zm26.25,13.66a10.67,10.67,0,1,1,21.34,0V161H134.33ZM209,213v8a4,4,0,0,1-4,4H85a4,4,0,0,1-4-4v-8a4,4,0,0,1,4-4H205A4,4,0,0,1,209,213Z"/></g></g></svg>