<svg xmlns="http://www.w3.org/2000/svg" xmlns:xlink="http://www.w3.org/1999/xlink" viewBox="0 0 532.87 158.83"><defs><style>.cls-1{fill:url(#linear-gradient);}.cls-2{fill:url(#linear-gradient-2);}.cls-3{fill:url(#linear-gradient-3);}.cls-4{fill:#f2f2f2;}.cls-5{fill:url(#linear-gradient-4);}.cls-6{fill:url(#linear-gradient-5);}.cls-7{fill:url(#linear-gradient-6);}.cls-8{fill:url(#linear-gradient-7);}.cls-9{fill:url(#linear-gradient-8);}.cls-10{fill:url(#linear-gradient-9);}</style><linearGradient id="linear-gradient" x1="79.41" y1="164.65" x2="79.41" y2="8.12" gradientUnits="userSpaceOnUse"><stop offset="0" stop-color="#faaf40"/><stop offset="0.3" stop-color="#f9ec31"/><stop offset="0.4" stop-color="#f9de34"/><stop offset="0.58" stop-color="#fab93e"/><stop offset="0.62" stop-color="#faaf40"/><stop offset="0.99" stop-color="#f9ec31"/></linearGradient><linearGradient id="linear-gradient-2" x1="149.18" y1="148.74" x2="48.3" y2="48.49" gradientUnits="userSpaceOnUse"><stop offset="0" stop-color="#f9ec31"/><stop offset="0.3" stop-color="#f9de34"/><stop offset="0.87" stop-color="#fab93e"/><stop offset="1" stop-color="#faaf40"/></linearGradient><linearGradient id="linear-gradient-3" x1="79.41" y1="19.07" x2="79.41" y2="156.91" gradientUnits="userSpaceOnUse"><stop offset="0" stop-color="#90278e"/><stop offset="0.4" stop-color="#82298f"/><stop offset="1" stop-color="#652d90"/></linearGradient><linearGradient id="linear-gradient-4" x1="453.46" y1="164.65" x2="453.46" y2="8.12" xlink:href="#linear-gradient"/><linearGradient id="linear-gradient-5" x1="523.22" y1="148.74" x2="422.34" y2="48.49" xlink:href="#linear-gradient-2"/><linearGradient id="linear-gradient-6" x1="453.46" y1="19.07" x2="453.46" y2="156.91" xlink:href="#linear-gradient-3"/><linearGradient id="linear-gradient-7" x1="266.44" y1="164.65" x2="266.44" y2="8.12" xlink:href="#linear-gradient"/><linearGradient id="linear-gradient-8" x1="336.2" y1="148.74" x2="235.32" y2="48.49" xlink:href="#linear-gradient-2"/><linearGradient id="linear-gradient-9" x1="266.44" y1="19.07" x2="266.44" y2="156.91" xlink:href="#linear-gradient-3"/></defs><title>hubServe</title><g id="Layer_2" data-name="Layer 2"><g id="Layer_1-2" data-name="Layer 1"><circle class="cls-1" cx="79.41" cy="79.41" r="79.41"/><circle class="cls-2" cx="79.41" cy="79.41" r="72.16"/><circle class="cls-3" cx="79.41" cy="79.41" r="68.92"/><path class="cls-4" d="M111.46,37.29h0a2,2,0,0,0-2.32,1.61l-4.87,27a1.6,1.6,0,0,0,0,.48,2.05,2.05,0,0,0-1,1.11c-.18.61-1,4.18-1.47,6h0l-.27,1.12-.69,4.24h0A13.93,13.93,0,0,1,99.58,83c-1.82,2.76-6.65,2-6.65,2-9.56-1.35-22.11,3.69-22.11,3.69C55,95,46.94,105.34,45.91,107c-.74,1.19.9,3.06,1.9,4a23.2,23.2,0,0,0,4.78,3.63h0c7,4.3,20.45,9.94,33,5,13-5.16,19.27-16.73,20-23.15a1,1,0,0,0-.16-.22,1.23,1.23,0,0,1,.22.27c.55-4.85.58-10.8,1.12-16l.72-4.94h0c.09-.86.71-6.78.88-7.58a1.29,1.29,0,0,0-.36-1.06,2.27,2.27,0,0,0,.11-.34l4.87-27A2,2,0,0,0,111.46,37.29Z"/><circle class="cls-5" cx="453.46" cy="79.41" r="79.41"/><circle class="cls-6" cx="453.46" cy="79.41" r="72.16"/><circle class="cls-7" cx="453.46" cy="79.41" r="68.92"/><polygon class="cls-4" points="450.86 97.01 450.86 112.51 444.96 118 433.26 112.09 432.41 110.71 435.73 107.4 443.31 107.4 443.31 103.32 434.07 103.32 434.06 103.31 430.21 107.15 431.31 108.92 428.02 103.6 417.3 96.83 417.41 84.73 413.26 74.25 413.82 75.65 425.18 75.65 425.18 75.64 433.62 67.21 441.2 67.21 441.2 63.14 431.93 63.14 431.93 63.14 431.93 63.14 423.49 71.58 412.21 71.58 411.56 69.94 420.59 55.86 425 46.93 434.37 44.7 444.35 40.82 450.86 45 450.86 51.19 437.24 51.19 437.24 55.26 450.86 55.26 450.86 76.65 441.59 76.65 441.59 76.68 433.2 85.08 425.61 85.08 425.61 89.15 434.85 89.15 434.87 89.17 443.31 80.72 450.86 80.72 450.86 92.94 441.59 92.94 441.59 97.01 450.86 97.01"/><polygon class="cls-4" points="456.05 97.01 456.05 112.51 461.96 118 473.65 112.09 474.5 110.71 471.19 107.4 463.6 107.4 463.6 103.32 472.84 103.32 472.86 103.31 476.7 107.15 475.61 108.92 478.9 103.6 489.62 96.83 489.5 84.73 493.65 74.25 493.09 75.65 481.73 75.65 481.73 75.64 473.3 67.21 465.71 67.21 465.71 63.14 474.98 63.14 474.98 63.14 474.98 63.14 483.43 71.58 494.71 71.58 495.35 69.94 486.32 55.86 481.91 46.93 472.55 44.7 462.57 40.82 456.05 45 456.05 51.19 469.68 51.19 469.68 55.26 456.05 55.26 456.05 76.65 465.32 76.65 465.32 76.68 473.71 85.08 481.31 85.08 481.31 89.15 472.06 89.15 472.05 89.17 463.6 80.72 456.05 80.72 456.05 92.94 465.32 92.94 465.32 97.01 456.05 97.01"/><circle class="cls-8" cx="266.44" cy="79.41" r="79.41"/><circle class="cls-9" cx="266.44" cy="79.41" r="72.16"/><circle class="cls-10" cx="266.44" cy="79.41" r="68.92"/><rect class="cls-4" x="254.96" y="40.8" width="22.94" height="77.23" transform="translate(345.85 -187.02) rotate(90)"/><rect class="cls-4" x="254.96" y="40.8" width="22.94" height="77.23" transform="translate(532.87 158.83) rotate(180)"/></g></g></svg>