<svg xmlns="http://www.w3.org/2000/svg" xmlns:xlink="http://www.w3.org/1999/xlink" viewBox="0 0 290 290"><defs><style>.cls-1{fill:none;stroke-miterlimit:10;stroke-width:6px;stroke:url(#linear-gradient);}.cls-2{fill:#fff;}</style><linearGradient id="linear-gradient" y1="145" x2="290" y2="145" gradientUnits="userSpaceOnUse"><stop offset="0" stop-color="#fcdff4"/><stop offset="0.25" stop-color="#ed42bf"/><stop offset="0.5" stop-color="#aa1bbe"/><stop offset="0.75" stop-color="#4c0288"/><stop offset="1" stop-color="#0b002a"/></linearGradient></defs><title>hubSign</title><g id="Layer_2" data-name="Layer 2"><g id="Layer_1-2" data-name="Layer 1"><circle class="cls-1" cx="145" cy="145" r="142"/><path class="cls-2" d="M201,81H167.56a23.9,23.9,0,0,0-45.12,0H89A16,16,0,0,0,73,97V209a16,16,0,0,0,16,16H201a16,16,0,0,0,16-16V97A16,16,0,0,0,201,81Zm-56,0a8,8,0,1,1-8,8A8,8,0,0,1,145,81ZM129,193,97,161l11.28-11.28L129,170.36l52.72-52.72L193,129Z"/></g></g></svg>