<svg xmlns="http://www.w3.org/2000/svg" xmlns:xlink="http://www.w3.org/1999/xlink" viewBox="0 0 290 290"><defs><style>.cls-1{fill:none;stroke-miterlimit:10;stroke-width:6px;stroke:url(#linear-gradient);}.cls-2{fill:#fff;}</style><linearGradient id="linear-gradient" y1="145" x2="290" y2="145" gradientUnits="userSpaceOnUse"><stop offset="0" stop-color="#fcdff4"/><stop offset="0.25" stop-color="#ed42bf"/><stop offset="0.5" stop-color="#aa1bbe"/><stop offset="0.75" stop-color="#4c0288"/><stop offset="1" stop-color="#0b002a"/></linearGradient></defs><title>hubTour</title><g id="Layer_2" data-name="Layer 2"><g id="Layer_1-2" data-name="Layer 1"><circle class="cls-1" cx="145" cy="145" r="142"/><path class="cls-2" d="M110,195h70a10,10,0,0,1-10,10h-5a10,10,0,0,0-10,10v6.25a3.76,3.76,0,0,1-3.75,3.75h-12.5a3.76,3.76,0,0,1-3.75-3.75V215a10,10,0,0,0-10-10h-5A10,10,0,0,1,110,195Zm100-65a64.9,64.9,0,0,1-30.47,55H110.47A65,65,0,1,1,210,130Zm-56.28,13.72a10.29,10.29,0,0,0,3.44-20,10.16,10.16,0,0,1-13.1,13.09A10.28,10.28,0,0,0,153.72,143.72Zm15.34,14.65a10.26,10.26,0,0,0-6.9-9.65,10.16,10.16,0,0,1-13.1,13.09,10.28,10.28,0,0,0,20-3.44Zm20-20a10.26,10.26,0,0,0-6.9-9.65,10.16,10.16,0,0,1-13.1,13.09,10.28,10.28,0,0,0,20-3.44Z"/></g></g></svg>