<svg xmlns="http://www.w3.org/2000/svg" xmlns:xlink="http://www.w3.org/1999/xlink" viewBox="0 0 290 290"><defs><style>.cls-1{fill:#fff;}.cls-2{fill:none;stroke-miterlimit:10;stroke-width:6px;stroke:url(#linear-gradient);}</style><linearGradient id="linear-gradient" y1="145" x2="290" y2="145" gradientUnits="userSpaceOnUse"><stop offset="0" stop-color="#fcdff4"/><stop offset="0.25" stop-color="#ed42bf"/><stop offset="0.5" stop-color="#aa1bbe"/><stop offset="0.75" stop-color="#4c0288"/><stop offset="1" stop-color="#0b002a"/></linearGradient></defs><title>hubTest</title><g id="Layer_2" data-name="Layer 2"><g id="Layer_1-2" data-name="Layer 1"><path class="cls-1" d="M95,135h4.22a49.93,49.93,0,0,0,91.56,0H195a5,5,0,0,0,5-5V100a5,5,0,0,0-5-5h-4.22a49.93,49.93,0,0,0-91.56,0H95a5,5,0,0,0-5,5v30A5,5,0,0,0,95,135Zm12.5-27.5c0-6.91,6.72-12.5,15-12.5h45c8.28,0,15,5.59,15,12.5V115a30,30,0,0,1-30,30h-15a30,30,0,0,1-30-30ZM130,130l3.75-11.25L145,115l-11.25-3.75L130,100l-3.75,11.25L115,115l11.25,3.75Zm47.38,35.44a59.6,59.6,0,0,1-64.75,0A41.88,41.88,0,0,0,75,207v3a15,15,0,0,0,15,15h25V205a10,10,0,0,1,10-10h40a10,10,0,0,1,10,10v20h25a15,15,0,0,0,15-15v-3A41.88,41.88,0,0,0,177.38,165.44ZM160,205a5,5,0,1,0,5,5A5,5,0,0,0,160,205Zm-30,0a5,5,0,0,0-5,5v15h10V210A5,5,0,0,0,130,205Z"/><circle class="cls-2" cx="145" cy="145" r="142"/></g></g></svg>