<svg xmlns="http://www.w3.org/2000/svg" viewBox="0 0 400 400"><defs><style>.cls-1{fill:none;}.cls-2{fill:#efda4f;}.cls-3{fill:#fefefe;}.cls-4{fill:#323330;}</style></defs><title>javascript</title><g id="Layer_2" data-name="Layer 2"><g id="Layer_1-2" data-name="Layer 1"><rect class="cls-1" width="400" height="400"/><path class="cls-2" d="M50.9,50.1H349c0,1.2.1,2.5.1,3.7V343.7c0,5.7.6,5.1-5.3,5.1H56.1c-5.9,0-5.2.6-5.2-5.1ZM280.8,325.2c3.3.5,7.9-1.1,12.7-1.8a35.16,35.16,0,0,0,7-2.1c22.9-8,30-31.1,22.3-51.7-4.3-11.5-13.9-17.7-24.2-23.1-8.7-4.6-18.1-7.6-26.7-12.4-7.2-4.1-10.4-11.7-6-18.7,2.9-4.6,10-7,16.9-5.2,5.3,1.5,8.9,5,11.7,9.6.4.7.3,2.4,2.2,1.2,6.3-4.2,12.8-8.4,19.2-12.4,1.4-.9,1.1-1.6.5-2.7-4.9-8.1-11.4-14.5-20.6-17.7-8.4-2.9-17-3.4-25.9-2.4-17.3,2.1-33,15.5-33.1,34.5,0,8.5.9,16.5,5.7,24,5.8,9,14.4,13.9,23.6,18.3,8.3,4,17.2,6.8,25,11.8,4.7,3.1,7.2,7.4,6.5,13.2-.6,4.9-3.6,8-7.9,9.9-7.4,3.2-14.9,2.8-22.4.3-6.8-2.3-11.1-7.6-15.2-13.1-.6-.9-.8-2.1-2.4-1.2-6.4,3.8-12.8,7.7-19.3,11.4-1.8,1-1.8,1.9-.9,3.5a49.24,49.24,0,0,0,9.8,12.4C250.6,321.1,264.3,324.7,280.8,325.2Zm-96.1-87c0,15.8.1,31.6-.1,47.4-.1,5-1.1,10-6.3,12.4a17.42,17.42,0,0,1-16.3-.2c-4.5-2.4-6.8-6.7-9.3-10.8-.6-.9-.6-1.7-2.1-.8-6.6,4.1-13.3,8-20,12-1.2.7-1.6,1.3-.8,2.8a39.85,39.85,0,0,0,9,12.1c12.2,10.9,26.6,13.7,42.4,11,7.4-1.3,14.3-4,19.8-9.2,8.5-7.9,11.7-18.4,11.8-29.4.4-32,.1-64,.2-96,0-2.5-1-2.8-3.1-2.8-7.3.1-14.7.2-22,0-2.9-.1-3.4.9-3.4,3.6C184.7,206.3,184.7,222.2,184.7,238.2Z"/><path class="cls-3" d="M50.9,50.1V343.7c0,5.7-.7,5.1,5.2,5.1H343.8c5.9,0,5.3.6,5.3-5.1V53.8c0-1.2,0-2.5-.1-3.7,1.5.7.7,2,.7,3,.1,43.3,0,86.7,0,130q0,81.75.1,163.6c0,2.6-.5,3.1-3.1,3.1q-146.85-.15-293.7,0c-2.6,0-3.1-.5-3.1-3.1Q50.05,199.85,50,53C50.2,52.1,49.4,50.8,50.9,50.1Z"/><path class="cls-4" d="M184.7,238.2c0-15.9.1-31.9-.1-47.8,0-2.7.5-3.7,3.4-3.6,7.3.2,14.7.1,22,0,2.1,0,3.1.2,3.1,2.8-.1,32,.2,64-.2,96-.1,11-3.3,21.5-11.8,29.4-5.6,5.1-12.4,7.9-19.8,9.2-15.8,2.7-30.2,0-42.4-11a42.92,42.92,0,0,1-9-12.1c-.8-1.5-.4-2.1.8-2.8,6.7-4,13.4-7.9,20-12,1.4-.9,1.5-.1,2.1.8,2.5,4.1,4.9,8.3,9.3,10.8,5.4,2.9,10.9,2.7,16.3.2,5.1-2.4,6.2-7.5,6.3-12.4C184.8,269.8,184.7,254,184.7,238.2Z"/></g></g></svg>