<svg xmlns="http://www.w3.org/2000/svg" viewBox="0 0 586.68 586.68"><defs><style>.cls-1{fill:none;}.cls-2{fill:#fff;}</style></defs><title>jebwhite</title><g id="Layer_2" data-name="Layer 2"><g id="Layer_2-2" data-name="Layer 2"><path class="cls-1" d="M467.59,176.26V119.09H410.42A211.57,211.57,0,0,1,467.59,176.26Z"/><path class="cls-1" d="M316.85,84.67l-23.51-43-23.51,43a208.45,208.45,0,0,1,47,0Z"/><path class="cls-1" d="M176.26,119.09H119.09v57.17A211.57,211.57,0,0,1,176.26,119.09Z"/><path class="cls-1" d="M84.67,269.83l-43,23.51,43,23.51a208.45,208.45,0,0,1,0-47Z"/><path class="cls-1" d="M480,257.79a187.31,187.31,0,0,0-7.14-26.7q-2.37-6.85-5.26-13.45A191.11,191.11,0,0,0,369,119.09q-6.6-2.88-13.44-5.26a189.81,189.81,0,0,0-124.51,0q-6.85,2.39-13.45,5.26a191.19,191.19,0,0,0-98.55,98.55q-2.88,6.6-5.26,13.45a189.81,189.81,0,0,0,0,124.51q2.39,6.84,5.26,13.44a191.11,191.11,0,0,0,98.55,98.55q6.6,2.88,13.45,5.26a187.31,187.31,0,0,0,26.7,7.14,190.36,190.36,0,0,0,71.11,0,188,188,0,0,0,26.7-7.14q6.84-2.37,13.44-5.26A191,191,0,0,0,467.59,369q2.88-6.6,5.26-13.44A188,188,0,0,0,480,328.9a190.36,190.36,0,0,0,0-71.11Z"/><path class="cls-1" d="M119.09,410.42v57.17h57.17A211.57,211.57,0,0,1,119.09,410.42Z"/><path class="cls-1" d="M545,293.34l-43-23.51a210,210,0,0,1,0,47Z"/><path class="cls-1" d="M410.42,467.59h57.17V410.42A211.57,211.57,0,0,1,410.42,467.59Z"/><path class="cls-1" d="M269.83,502l23.51,43,23.51-43a210,210,0,0,1-47,0Z"/><path class="cls-2" d="M497.63,244.64a208.12,208.12,0,0,0-10-31.06V99.09H373.1a206.82,206.82,0,0,0-31.05-10L293.34,0l-48.7,89.06a206.94,206.94,0,0,0-31.06,10H99.09V213.58a206.94,206.94,0,0,0-10,31.06L0,293.34l89.06,48.71a206.82,206.82,0,0,0,10,31.05V487.59H213.58a208.12,208.12,0,0,0,31.06,10l48.7,89,48.71-89a208,208,0,0,0,31.05-10H487.59V373.1a208,208,0,0,0,10-31.05l89-48.71Zm-24.78,111q-2.37,6.84-5.26,13.44A191,191,0,0,1,369,467.59q-6.6,2.88-13.44,5.26A188,188,0,0,1,328.9,480a190.36,190.36,0,0,1-71.11,0,187.31,187.31,0,0,1-26.7-7.14q-6.85-2.37-13.45-5.26A191.11,191.11,0,0,1,119.09,369q-2.88-6.6-5.26-13.44a189.81,189.81,0,0,1,0-124.51q2.39-6.85,5.26-13.45a191.19,191.19,0,0,1,98.55-98.55q6.6-2.88,13.45-5.26a189.81,189.81,0,0,1,124.51,0q6.84,2.39,13.44,5.26a191.11,191.11,0,0,1,98.55,98.55q2.88,6.6,5.26,13.45a187.31,187.31,0,0,1,7.14,26.7,190.36,190.36,0,0,1,0,71.11A188,188,0,0,1,472.85,355.6Zm-5.26-236.51v57.17a211.57,211.57,0,0,0-57.17-57.17ZM293.34,41.68l23.51,43a208.45,208.45,0,0,0-47,0ZM119.09,119.09h57.17a211.57,211.57,0,0,0-57.17,57.17ZM41.68,293.34l43-23.51a208.45,208.45,0,0,0,0,47Zm77.41,174.25V410.42a211.57,211.57,0,0,0,57.17,57.17ZM293.34,545l-23.51-43a210,210,0,0,0,47,0Zm174.25-77.41H410.42a211.57,211.57,0,0,0,57.17-57.17ZM502,269.83l43,23.51-43,23.51a210,210,0,0,0,0-47Z"/><path class="cls-2" d="M428.52,289.64v-.33c7.06-5.38,19.17-20.51,19.17-45.73,0-34.64-21.86-56.16-63.22-56.16H289.65v19.17l10.76,1.68c4.72.94,8.11,6,9.71,14.46H254.41c1.7-8.66,5.35-13.85,10.34-14.8l10.76-1.68V187.42H194.14v18.83l10.76,1.68c6.73,1.35,10.76,11.1,10.76,27.24v81.37c0,46.41-10.09,57.84-25.22,57.84-12.78,0-22.86-9.08-22.86-16.14,0-6.05,3.69-11.1,8.07-15.8,5-5.38,6.72-11.1,6.72-17.83,0-10.08-9.75-16.81-20.85-16.81-14.46,0-23.87,11.77-23.87,34.3,0,33.29,17.48,57.16,58.84,57.16,5.63,0,9.54,0,14.7-.09h8.22v.09H393.22c33.62,0,55.82-21.52,55.82-63.55C449,316.88,442.65,301.41,428.52,289.64ZM311.17,351.51a79.21,79.21,0,0,1-.86,12.68c-1.63,6.28-4.73,11.35-10.11,14.3L294,380.72a32.08,32.08,0,0,1-6.46.61C273.21,381.33,269,373.2,269,362V316h27.74V296.15H269V259.72c0-12.89,4.2-19.62,18.49-19.62,11.22,0,21,7.94,23.67,23.29Zm68.26,24.22H360.6c-7.06,0-11.43-8.75-11.43-24.22V299.4h29.25c17.82,0,28.92,14.79,28.92,36C407.34,354.2,397.59,375.73,379.43,375.73Zm0-99.54H349.17V236.85c0-16.48,4.37-25.55,11.43-25.55h23.87c11.1,0,22.87,14.12,22.87,35.3C407.34,264.76,397.92,276.19,379.43,276.19Z"/></g></g></svg>