<svg xmlns="http://www.w3.org/2000/svg" xmlns:xlink="http://www.w3.org/1999/xlink" viewBox="0 0 2868.01 600.76"><defs><style>.cls-1{fill:none;}.cls-2{clip-path:url(#clip-path);}.cls-3{clip-path:url(#clip-path-2);}.cls-4{fill:#fff;}</style><clipPath id="clip-path" transform="translate(0.01 -0.01)"><rect class="cls-1" width="2868" height="600.75"/></clipPath><clipPath id="clip-path-2" transform="translate(0.01 -0.01)"><rect class="cls-1" width="2868" height="600.75"/></clipPath></defs><title>mantis</title><g id="Layer_2" data-name="Layer 2"><g id="Layer_1-2" data-name="Layer 1"><g id="Vector_Smart_Object" data-name="Vector Smart Object"><g class="cls-2"><g class="cls-3"><path class="cls-4" d="M420.42,254.13a4.7,4.7,0,0,1-4.71-4.7v-4a4.72,4.72,0,0,1,3.59-4.57c17.77-4.35,27.21-21.67,28.82-53l6.72-148.74c-8.45-9.28-20.34-15.65-35.42-18.92a4.69,4.69,0,0,1-3.71-4.6v-4a4.73,4.73,0,0,1,4.71-4.7h.48c12.49,1.3,26,2.06,40.19,2.19l17.23.45a4.74,4.74,0,0,1,4.08,2.6l107.11,214.2a4.62,4.62,0,0,1,0,4.25l-10.8,20.95a4.7,4.7,0,0,1-4.18,2.56h0a4.7,4.7,0,0,1-4.18-2.61L481.12,73.12l-5.27,113.66c-.19,8-.32,13-.64,16.13h.17c0,23.48,8.79,35.52,27.6,37.88a4.71,4.71,0,0,1,4.12,4.66v4a4.71,4.71,0,0,1-4.71,4.7c-.17,0-2.52-.22-7.07-.67-17.21-1.3-28.77-2-34.26-2-7.34,0-20.88.88-40.23,2.63a2.82,2.82,0,0,1-.41,0" transform="translate(0.01 -0.01)"/><path d="M420.42,11.63q19,2,40.64,2.2l17.13.45,107.12,214.2-10.8,21L477.26,54.86l-6.11,131.7q-.4,16.86-.46,16.85s0-.15,0-.49v0q0,38.54,31.71,42.54v4c-.15,0-2.35-.23-6.58-.66q-26.3-2-34.75-2-11.3,0-40.64,2.65v-4q29.81-7.29,32.41-57.36l6.8-150.67Q445.79,21.11,420.42,15.6v-4m0-9.42A9.42,9.42,0,0,0,411,11.63v4a9.42,9.42,0,0,0,7.42,9.18c13.52,2.94,23.91,8.23,31.64,16.12l-6.64,146.77c-2.22,43-19.54,47.25-25.24,48.64a9.42,9.42,0,0,0-7.18,9.15v4a9.42,9.42,0,0,0,9.42,9.41c.28,0,.56,0,.84,0,19.2-1.75,32.59-2.61,39.8-2.61,5.36,0,16.83.66,34.05,2,4.57.47,7.11.69,7.28.69a9.43,9.43,0,0,0,9.42-9.41v-4a9.42,9.42,0,0,0-8.25-9.34c-10.92-1.37-23.45-6.38-23.47-33.2a9.94,9.94,0,0,0-.08-1.34c.28-3.67.4-8.47.55-14.8L485,91.36l81.1,162.25a9.44,9.44,0,0,0,8.37,5.23h.06a9.4,9.4,0,0,0,8.36-5.12l10.8-20.95a9.39,9.39,0,0,0,.06-8.51L486.62,10.06a9.41,9.41,0,0,0-8.19-5.19l-17.15-.45c-14.19-.15-27.56-.89-39.89-2.17a7.87,7.87,0,0,0-1,0" transform="translate(0.01 -0.01)"/><path class="cls-4" d="M648.26,254.13a4.67,4.67,0,0,1-4.7-4.7v-4a4.7,4.7,0,0,1,3.53-4.55c16.59-4.29,24.66-18.32,24.66-42.86H672c-.32-2.71-.45-7.16-.68-14.65l-5.23-110.1L598.92,211.35a4.7,4.7,0,0,1-4.19,2.63h0a4.73,4.73,0,0,1-4.22-2.6l-97.24-195a4.69,4.69,0,0,1,4.21-6.8h20a4.75,4.75,0,0,1,4.21,2.6l72.8,145.24,71-145.2a4.7,4.7,0,0,1,4.24-2.64h18.09a4.68,4.68,0,0,1,4.68,4.48l11.05,232.52a4.7,4.7,0,0,1-4.7,4.91H689.6q-9.72,0-25.45,1.32s-15.76,1.33-15.89,1.33" transform="translate(0.01 -0.01)"/><path d="M687.73,14.27l11,232.52h-9.15q-9.89,0-25.84,1.32l-15.51,1.31v-4q28.2-7.29,28.19-47.42v0s-.16-4.93-.47-14.79L669.87,54.65,594.7,209.27l-97.24-195h20L594.48,168,669.64,14.27h18.09m0-9.41H669.64a9.39,9.39,0,0,0-8.45,5.27L594.38,146.81,525.84,10a9.41,9.41,0,0,0-8.41-5.18h-20A9.4,9.4,0,0,0,489,18.47l97.25,195a9.38,9.38,0,0,0,8.41,5.21h.06a9.44,9.44,0,0,0,8.41-5.29L662.22,91.9l4.35,91.79c.17,5.36.3,9.56.59,12.86A8.78,8.78,0,0,0,667,198c0,29.44-12.06,36-21.14,38.31a9.43,9.43,0,0,0-7.06,9.11v4a9.44,9.44,0,0,0,9.42,9.42c.26,0,.54,0,.81,0l15.51-1.32c10.29-.87,18.75-1.28,25-1.28h9.15a9.45,9.45,0,0,0,9.41-9.88l-11-232.5a9.4,9.4,0,0,0-9.41-9" transform="translate(0.01 -0.01)"/><path class="cls-4" d="M767.71,254.11c-23-1.75-40.31-2.63-51.56-2.63a4.68,4.68,0,0,1-4.69-4.48L700.18,14.5A4.7,4.7,0,0,1,701.46,11a4.77,4.77,0,0,1,3.41-1.45h8c11.26,0,27.32-.88,47.76-2.64H761a4.73,4.73,0,0,1,3.17,1.24,4.65,4.65,0,0,1,1.54,3.46v4a4.72,4.72,0,0,1-4,4.65c-9.68,1.58-16.83,5.61-21.91,12.31-5.54,7-8.21,15.08-8.21,25L732.13,81l5.16,105.51c.9,18.41,3.91,32,9,40.39,4.74,8,12.06,12.58,22.38,13.86a4.71,4.71,0,0,1,4.12,4.66v4a4.76,4.76,0,0,1-1.51,3.46,4.65,4.65,0,0,1-3.2,1.24,2.06,2.06,0,0,1-.35,0" transform="translate(0.01 -0.01)"/><path d="M761,11.63v4q-16.2,2.66-24.9,14.12-9.15,11.46-9.17,27.8l.49,23.59,5.16,105.67q1.41,28.89,9.64,42.57,8.22,13.92,25.84,16.11v4q-34.79-2.66-51.91-2.65L704.88,14.28h8q17.14,0,48.15-2.65m0-9.42a5.29,5.29,0,0,0-.79,0C739.89,4,724,4.87,712.86,4.87h-8a9.4,9.4,0,0,0-9.41,9.84l11.27,232.52a9.43,9.43,0,0,0,9.42,9c11.12,0,28.36.88,51.18,2.61.24,0,.49,0,.73,0a9.35,9.35,0,0,0,6.38-2.52,9.46,9.46,0,0,0,3-6.89v-4a9.42,9.42,0,0,0-8.25-9.34c-8.9-1.13-14.91-4.8-18.9-11.56-4.69-7.79-7.49-20.63-8.34-38.25L736.83,80.65l-.48-23.34c0-8.56,2.34-15.73,7.12-21.74,4.46-5.87,10.65-9.32,19.07-10.69a9.43,9.43,0,0,0,7.89-9.28v-4A9.4,9.4,0,0,0,761,2.21" transform="translate(0.01 -0.01)"/><path class="cls-4" d="M1050.46,254.13a4.67,4.67,0,0,1-4.7-4.71v-4a4.71,4.71,0,0,1,4-4.65c12.31-2,13.89-8.21,13.89-13.44,0-4.61-1.94-13.87-11.22-31.79l-19.61-38.5H949.9l-21,38.57-1,2.41a4.87,4.87,0,0,1-1.13,1.64h0c.15,0-.9,1.94-2.61,5.18a35.33,35.33,0,0,0-4.39,16.77c0,5.76,1.71,14.06,16.6,19.39a4.69,4.69,0,0,1,3.13,4.42v4a4.7,4.7,0,0,1-4.71,4.71c-2.77,0-7.55-.36-14.38-1.13a224.6,224.6,0,0,0-24.38-1.51A240.52,240.52,0,0,0,871.71,253c-7,.75-11.6,1.11-13.88,1.11a4.71,4.71,0,0,1-4.7-4.71v-4a4.68,4.68,0,0,1,2.67-4.23c16.25-7.76,31.34-24.25,44.9-49L977.44,52a60.1,60.1,0,0,0-21.57-22.22c-9.69-5.72-21.25-8.92-34.34-9.48A4.71,4.71,0,0,1,917,15.59v-4a4.72,4.72,0,0,1,4.7-4.71H930q11.17,0,30.63,1.36,19.93,1.29,26,1.3a4.68,4.68,0,0,1,4.18,2.58l118.63,232.49a4.71,4.71,0,0,1-4.1,6.85c-15,.29-33.38,1.17-54.5,2.62a1.77,1.77,0,0,1-.32,0m-30.93-123L993,78.84l-28.74,52.27Z" transform="translate(0.01 -0.01)"/><path d="M930,11.62q11,0,30.3,1.33,20.19,1.34,26.3,1.32l118.63,232.52q-22.79.42-54.74,2.63v-4q17.88-2.85,17.86-18.09,0-11.24-11.74-34l-20.92-41H947.11l-22.33,41-1.17,2.86c-.15.15-1.33,2.28-3.52,6.4a39.92,39.92,0,0,0-4.93,19q0,16.74,19.73,23.81v4c-2.67,0-7.29-.35-13.86-1.09a226.88,226.88,0,0,0-24.9-1.54,246.22,246.22,0,0,0-24.9,1.54c-6.74.74-11.2,1.09-13.39,1.09v-4q25.85-12.33,47-51L982.8,52a64.8,64.8,0,0,0-24.53-26.26q-15.64-9.27-36.54-10.15v-4H930m26.29,124.2h71L993.15,68.75l-36.9,67.07M930,2.21h-8.23a9.41,9.41,0,0,0-9.41,9.41v4a9.38,9.38,0,0,0,9,9.39c12.29.53,23.09,3.5,32.13,8.85A54.37,54.37,0,0,1,972,52.09L896.56,190c-13.06,23.85-27.46,39.64-42.78,47a9.42,9.42,0,0,0-5.35,8.49v4a9.42,9.42,0,0,0,9.41,9.42c1.62,0,4.9-.14,14.4-1.15a234.55,234.55,0,0,1,23.89-1.49A220.51,220.51,0,0,1,920,257.67a148.49,148.49,0,0,0,14.89,1.17,9.42,9.42,0,0,0,9.41-9.42v-4a9.37,9.37,0,0,0-6.23-8.85c-12-4.29-13.5-10.26-13.5-15a30.53,30.53,0,0,1,3.82-14.57c1.55-2.9,2.55-4.74,3-5.5a8.58,8.58,0,0,0,.92-1.75l1-2.39,19.39-35.65h77.19l18.3,35.88c9.32,18.05,10.71,26.37,10.71,29.7,0,3,0,7.19-9.94,8.79a9.41,9.41,0,0,0-7.92,9.3v4a9.45,9.45,0,0,0,9.41,9.42c.23,0,.43,0,.66,0,21-1.45,39.28-2.34,54.27-2.6a9.42,9.42,0,0,0,8.19-13.7L994.94,10a9.4,9.4,0,0,0-8.38-5.12c-3.84,0-12.48-.43-25.69-1.3-13-.9-23.36-1.35-30.91-1.35m42.22,124.2,20.63-37.52,19.05,37.52Z" transform="translate(0.01 -0.01)"/><path class="cls-4" d="M1170.58,254.11c-21.09-1.75-36.77-2.63-46.61-2.63a4.68,4.68,0,0,1-4.18-2.56L1001.16,16.4a4.7,4.7,0,0,1,4.2-6.83h23a4.7,4.7,0,0,1,4.35,2.92q4.65,11.35,13,28.63C1054.21,58,1056,62.2,1056.56,64a21.1,21.1,0,0,1,2.09,4.58l54.95,106.82c18.61,36.09,38.45,58.19,59,65.68a4.73,4.73,0,0,1,3.11,4.42v4a4.73,4.73,0,0,1-1.53,3.46,4.64,4.64,0,0,1-3.18,1.24,2.55,2.55,0,0,1-.39,0" transform="translate(0.01 -0.01)"/><path d="M1028.37,14.27q4.73,11.48,13.16,28.9c6.25,12.5,9.79,19.93,10.56,22.29a26.34,26.34,0,0,1,2.13,4.63l55.19,107.43q28.92,56,61.56,67.93v4q-32-2.65-47-2.63L1005.35,14.27h23m0-9.41h-23A9.4,9.4,0,0,0,997,18.55L1115.59,251a9.44,9.44,0,0,0,8.39,5.16c9.72,0,25.26.87,46.22,2.6.24,0,.5,0,.77,0a9.44,9.44,0,0,0,9.41-9.42v-4a9.39,9.39,0,0,0-6.19-8.83c-19.37-7.08-38.35-28.4-56.4-63.43L1062.86,66.3a38.28,38.28,0,0,0-2.18-4.82c-.94-2.46-3.33-7.75-10.73-22.53-5.48-11.27-9.81-20.82-12.86-28.24a9.4,9.4,0,0,0-8.72-5.85" transform="translate(0.01 -0.01)"/><path class="cls-4" d="M1522.88,214.43a4.66,4.66,0,0,1-2.93-1L1275.87,17.94a4.72,4.72,0,0,1,3-8.38h27.71a4.8,4.8,0,0,1,3,1l189.88,151.83V80.68c0-14.83-1-26.3-3.12-34.09a32.58,32.58,0,0,0-11.75-17.15c-6-4.59-14-7.7-23.64-9.19a4.7,4.7,0,0,1-4-4.66v-4a4.71,4.71,0,0,1,4.7-4.7c.15,0,3,.2,8.61.68,20.23,1.29,34.2,2,41.43,2,6.59,0,22.68-.88,47.81-2.61a1.94,1.94,0,0,1,.34,0,4.6,4.6,0,0,1,3.2,1.26,4.67,4.67,0,0,1,1.51,3.44v4a4.73,4.73,0,0,1-4.13,4.68,34.48,34.48,0,0,0-18.86,8.36A32.84,32.84,0,0,0,1530.7,45c-2.06,7-3.11,17.17-3.11,30.21V209.72a4.73,4.73,0,0,1-2.67,4.25,4.82,4.82,0,0,1-2,.46" transform="translate(0.01 -0.01)"/><path d="M1559.76,11.63v4a39.42,39.42,0,0,0-21.36,9.49,37.67,37.67,0,0,0-12.22,18.52q-3.3,11.27-3.29,31.55V209.71L1278.83,14.28h27.71l197.54,157.93V80.67q0-22.95-3.27-35.29a37.6,37.6,0,0,0-13.39-19.64Q1477.31,18,1461.58,15.6v-4c.15,0,2.9.22,8.22.65q30.75,2,41.81,2,10.08,0,48.15-2.65m-98.18-9.42a9.41,9.41,0,0,0-9.41,9.42v4a9.42,9.42,0,0,0,8,9.3c8.86,1.35,16.11,4.16,21.55,8.3a28.12,28.12,0,0,1,10,14.72c1.94,7.26,2.92,18.33,2.92,32.75v72L1312.43,6.92a9.38,9.38,0,0,0-5.89-2h-27.71a9.4,9.4,0,0,0-5.89,16.73L1517,217.05a9.48,9.48,0,0,0,5.89,2.07,9.41,9.41,0,0,0,9.41-9.41V75.16c0-12.6,1-22.33,2.92-28.9a28.27,28.27,0,0,1,9.22-14A30,30,0,0,1,1561,24.93a9.42,9.42,0,0,0,8.23-9.33v-4a9.43,9.43,0,0,0-9.42-9.42c-.2,0-.43,0-.66,0-25,1.75-41,2.64-47.49,2.64-7.13,0-21-.68-41.2-2-5.67-.47-8.66-.68-8.83-.68" transform="translate(0.01 -0.01)"/><path class="cls-4" d="M1252,254.13a4.67,4.67,0,0,1-3.16-1.22,4.74,4.74,0,0,1-1.55-3.48v-4a4.71,4.71,0,0,1,3.71-4.59c12.16-2.67,20.14-7.73,24.36-15.51,4.44-8.24,6.7-23.53,6.7-45.4l-.22-112.89L1266.72,55c-22.91-18.37-42.39-30.12-57.88-34.92a4.72,4.72,0,0,1-3.32-4.5v-4A4.62,4.62,0,0,1,1207,8.2a4.74,4.74,0,0,1,3.22-1.28l42.34,2.67a4.63,4.63,0,0,1,2.65,1l270.6,217.08a4.67,4.67,0,0,1,1.77,3.67v18.09a4.71,4.71,0,0,1-4.71,4.7h-4.69a4.79,4.79,0,0,1-3-1l-205.17-164v92.8c0,21.27,2.79,36,8.3,43.84s13.93,12.65,26,15.08a4.69,4.69,0,0,1,3.77,4.61v4a4.69,4.69,0,0,1-4.71,4.7,2,2,0,0,1-.34,0c-23.43-1.75-39.51-2.63-47.81-2.63-9.36,0-23.76.88-42.79,2.63a3.1,3.1,0,0,1-.43,0" transform="translate(0.01 -0.01)"/><path d="M1210.23,11.63l42,2.65,270.6,217.06v18.09h-4.69L1305.37,79.36V181.93q0,33.51,9.16,46.55t28.9,17v4q-35.49-2.66-48.15-2.65-14.35,0-43.24,2.65v-4q20.2-4.41,27.5-17.87t7.26-47.66l-.22-115.14-16.92-13.46q-35.22-28.24-59.43-35.73v-4m0-9.42a9.41,9.41,0,0,0-9.41,9.42v4a9.42,9.42,0,0,0,6.62,9c15,4.63,33.89,16.09,56.34,34.09l13.39,10.65.22,110.63c0,26.26-3.33,38-6.13,43.15-3.52,6.51-10.47,10.82-21.22,13.15a9.44,9.44,0,0,0-7.42,9.21v4a9.42,9.42,0,0,0,9.42,9.41c.28,0,.56,0,.86,0,18.9-1.75,33.15-2.61,42.38-2.61,8.17,0,24.13.88,47.45,2.61.23,0,.45,0,.7,0a9.42,9.42,0,0,0,9.41-9.41v-4a9.42,9.42,0,0,0-7.57-9.23c-10.78-2.2-18.33-6.49-23.06-13.19-3.39-4.82-7.43-15.87-7.43-41.11v-83l197.54,157.86a9.34,9.34,0,0,0,5.87,2.07h4.69a9.41,9.41,0,0,0,9.41-9.41V231.34a9.4,9.4,0,0,0-3.52-7.36L1258.17,6.92a9.3,9.3,0,0,0-5.3-2l-42.06-2.66a5.62,5.62,0,0,0-.58,0" transform="translate(0.01 -0.01)"/><path class="cls-4" d="M1853.13,254.11c-27.48-1.75-43.18-2.63-46.66-2.63h-6.12a4.71,4.71,0,0,1-4.71-4.71V14.28a4.71,4.71,0,0,1,4.71-4.71h84.56A388.09,388.09,0,0,0,1930.16,7a5.44,5.44,0,0,1,.57,0,4.73,4.73,0,0,1,4.7,4.7c0,2.86-.24,8-.71,15.51-.47,6.72-.7,15.06-.7,25.08a171,171,0,0,1-1.22,20.2,4.68,4.68,0,0,1-4.67,4.14h-5.63a4.71,4.71,0,0,1-4.71-4.58c-.28-11-3.2-20.16-8.66-27.26-5.28-6.81-17.39-10.29-36-10.29h-48.6V187.67c0,17.12,2.54,30,7.55,38.38,4.8,8,12.06,12.82,22.21,14.79a4.69,4.69,0,0,1,3.82,4.61v4a4.78,4.78,0,0,1-1.49,3.44,4.68,4.68,0,0,1-3.22,1.26,1.56,1.56,0,0,1-.3,0" transform="translate(0.01 -0.01)"/><path d="M1930.72,11.63q0,4.17-.7,15.22-.7,10.14-.71,25.36a169.41,169.41,0,0,1-1.17,19.63h-5.65q-.45-18.06-9.62-30-9.4-12.12-39.7-12.12h-53.33v158q0,27.14,8.23,40.81t25.38,17v4q-41.6-2.66-47-2.65h-6.1V14.28h84.56a391.08,391.08,0,0,0,45.8-2.65m0-9.42a9.56,9.56,0,0,0-1.09.06,385.79,385.79,0,0,1-44.71,2.6h-84.56a9.41,9.41,0,0,0-9.41,9.41v232.5a9.42,9.42,0,0,0,9.41,9.41h6.1c2.33,0,12.27.45,46.38,2.63l.61,0a9.45,9.45,0,0,0,9.41-9.41v-4a9.39,9.39,0,0,0-7.64-9.24c-8.78-1.7-15-5.82-19.07-12.6-4.58-7.6-6.89-19.69-6.89-36V39.13h43.91c16.57,0,28,3,32.27,8.47,4.89,6.36,7.4,14.38,7.64,24.49a9.44,9.44,0,0,0,9.41,9.17h5.65a9.41,9.41,0,0,0,9.34-8.31,178.53,178.53,0,0,0,1.24-20.74c0-9.84.22-18.16.7-24.72q.72-11.53.71-15.86a9.39,9.39,0,0,0-9.41-9.42" transform="translate(0.01 -0.01)"/><path class="cls-4" d="M1730.35,254.13a4.67,4.67,0,0,1-4.7-4.7v-4a4.69,4.69,0,0,1,3.61-4.57c11.71-2.79,19.47-8.13,23.68-16.32,4.33-8.55,6.53-23.4,6.53-44.18v-146h-55.19c-13.89,0-23.64,2.54-29,7.55-5.59,5.23-10.43,15.68-14.4,31.06a4.74,4.74,0,0,1-4.57,3.52H1651a4.68,4.68,0,0,1-4.68-4.31c-.17-2-.25-4.24-.25-6.57a90.83,90.83,0,0,1,1-11.9,361.74,361.74,0,0,0,2.77-42.15,4.72,4.72,0,0,1,4.7-4.7,5.83,5.83,0,0,1,.59,0c8.11,1,18.39,1.66,30.55,2l20,.66H1783a4.7,4.7,0,0,1,4.7,4.71V246.77a4.7,4.7,0,0,1-4.7,4.71h-7c-10,0-25.19.88-45.16,2.63a3,3,0,0,1-.42,0" transform="translate(0.01 -0.01)"/><path d="M1654.48,11.63q12.45,1.55,31,2l20,.68H1783v232.5h-7q-15.27,0-45.57,2.65v-4q19.48-4.64,26.77-18.75,7-13.89,7.06-46.33V29.72h-59.9q-22.82,0-32.19,8.82t-15.74,33.3H1651c-.15-1.9-.25-4-.25-6.17a84.44,84.44,0,0,1,1-11.26,365.28,365.28,0,0,0,2.81-42.78m0-9.42a9.41,9.41,0,0,0-9.41,9.42,357.8,357.8,0,0,1-2.75,41.67,90.67,90.67,0,0,0-1,12.37c0,2.47.1,4.78.27,6.93a9.44,9.44,0,0,0,9.39,8.66h5.4a9.4,9.4,0,0,0,9.11-7.06c4.69-18.07,9.7-25.64,13.07-28.8,3-2.86,10-6.27,25.75-6.27h50.48V180.38c0,24.93-3.29,36.64-6,42.06-3.54,6.85-10.26,11.4-20.55,13.87a9.35,9.35,0,0,0-7.23,9.15v4a9.42,9.42,0,0,0,9.41,9.41c.26,0,.54,0,.81,0,19.84-1.75,34.9-2.61,44.76-2.61h7a9.4,9.4,0,0,0,9.41-9.41V14.28A9.39,9.39,0,0,0,1783,4.87h-77.52l-19.65-.68c-12.1-.28-22.21-.92-30.15-1.9a7.76,7.76,0,0,0-1.17-.08" transform="translate(0.01 -0.01)"/><path class="cls-4" d="M2153.36,254.1a438.75,438.75,0,0,0-51.12-2.62,4.71,4.71,0,0,1-4.71-4.71V14.28a4.71,4.71,0,0,1,4.71-4.71A446.35,446.35,0,0,0,2153.36,7a5.46,5.46,0,0,1,.57,0,4.68,4.68,0,0,1,3.12,1.2,4.6,4.6,0,0,1,1.58,3.5v4a4.71,4.71,0,0,1-3.89,4.63c-8.14,1.43-14.71,5.47-20.15,12.38-3.8,4.93-8.37,17.17-8.37,47.18V185c0,26.66,4.76,37.9,8.73,42.64,5.89,7,12.65,11.43,20.09,13.23a4.71,4.71,0,0,1,3.59,4.58v4a4.73,4.73,0,0,1-4.7,4.7,5.44,5.44,0,0,1-.57,0" transform="translate(0.01 -0.01)"/><path d="M2153.92,11.63v4q-13.86,2.43-23,14.12-9.41,12.14-9.39,50.07V185q0,34,9.86,45.67t22.55,14.78v4a439.05,439.05,0,0,0-51.69-2.65V14.28a446.81,446.81,0,0,0,51.69-2.65m0-9.42a9.82,9.82,0,0,0-1.09.06,441.5,441.5,0,0,1-50.6,2.6,9.42,9.42,0,0,0-9.41,9.41v232.5a9.43,9.43,0,0,0,9.41,9.41,431,431,0,0,1,50.56,2.58c.38,0,.76.07,1.13.07a9.42,9.42,0,0,0,9.42-9.41v-4a9.41,9.41,0,0,0-7.2-9.15c-6.53-1.58-12.27-5.44-17.58-11.73-2.86-3.37-7.64-13-7.64-39.57V79.79c0-30.21,4.65-40.74,7.42-44.31a27.17,27.17,0,0,1,17.2-10.62,9.41,9.41,0,0,0,7.8-9.26v-4a9.4,9.4,0,0,0-9.42-9.42" transform="translate(0.01 -0.01)"/><path class="cls-4" d="M2033.18,254.13a4.69,4.69,0,0,1-3.2-1.24,4.75,4.75,0,0,1-1.5-3.46v-4a4.71,4.71,0,0,1,3.59-4.57c10.71-2.62,17.9-8.06,22-16.64,4.39-9,6.59-26.11,6.59-50.69V74.93c0-18.22-2.26-31.65-6.7-39.89-4.2-7.62-11.34-12.5-21.8-14.85a4.71,4.71,0,0,1-3.67-4.6v-4a4.7,4.7,0,0,1,4.7-4.7h.36c18.92,1.45,36.14,2.34,51.18,2.64a4.73,4.73,0,0,1,4.62,4.71V246.77a4.71,4.71,0,0,1-4.71,4.71c-11.11,0-28.29.88-51.09,2.63a2.11,2.11,0,0,1-.36,0" transform="translate(0.01 -0.01)"/><path d="M2033.18,11.63q28.66,2.19,51.45,2.65v232.5q-16.92,0-51.45,2.65v-4q18.1-4.41,25.13-19.2,7-14.55,7-52.71V74.93q0-28.67-7.26-42.13-7.29-13.24-24.91-17.2v-4m0-9.42a9.41,9.41,0,0,0-9.41,9.42v4a9.43,9.43,0,0,0,7.34,9.17c9.08,2.05,15.19,6.15,18.73,12.55,2.77,5.14,6.1,15.87,6.1,37.61v98.62c0,29.74-3.31,42.84-6.1,48.62-3.46,7.27-9.64,11.88-18.9,14.14a9.42,9.42,0,0,0-7.17,9.15v4a9.42,9.42,0,0,0,9.41,9.41c.25,0,.47,0,.72,0,22.68-1.73,39.74-2.61,50.73-2.61a9.41,9.41,0,0,0,9.41-9.41V14.28a9.39,9.39,0,0,0-9.22-9.41c-15-.3-32.08-1.19-50.9-2.64-.27,0-.49,0-.74,0" transform="translate(0.01 -0.01)"/><path class="cls-4" d="M2429.5,224.57a4.62,4.62,0,0,1-3.37-1.43,4.66,4.66,0,0,1-.36-6.13c4.65-6.07,7-14.87,7-26.26a52.75,52.75,0,0,0-8-28.8,66.66,66.66,0,0,0-21-20.56c-8.72-5.37-23.29-11.22-43.32-17.39-31.64-9.81-51.84-18-61.74-25.17-10.67-7.85-16.06-20-16.06-36,0-18.35,8-33,23.72-43.39,15.17-9.77,36.65-14.7,63.91-14.7,18.28,0,40.83,3,67,8.94a4.71,4.71,0,0,1,3.67,4.59l.45,9.68c0,4.59.17,9.81.47,15.89q.73,11.34.72,20.1,0,5.85-.47,14.38a4.7,4.7,0,0,1-4.71,4.44h-4.93a4.73,4.73,0,0,1-4.71-4.66c-.13-15.42-6.43-26.49-19.25-33.91-13.16-7.64-29.44-11.5-48.38-11.5-14.85,0-27.15,3-36.52,8.77-8.94,5.48-13.27,11.6-13.27,18.73,0,7.82,3.31,13.82,10.11,18.36,8.13,5.64,24.54,12.48,48.88,20.4,23.63,7.65,39.76,13.74,49.3,18.6a72.33,72.33,0,0,1,26.41,23.57,62.83,62.83,0,0,1,10.7,35.54c0,19.9-7.93,35.73-23.57,47a4.64,4.64,0,0,1-2.75.9" transform="translate(0.01 -0.01)"/><path d="M2370.31,9.42q27,0,66,8.83v1.54l.47,8.38c0,4.4.17,9.71.47,15.89q.7,11.23.71,19.86c0,3.82-.17,8.52-.47,14.11h-4.93q-.26-25.61-21.61-37.95Q2390,27.95,2360.2,27.94q-23.72,0-39,9.49-15.49,9.48-15.51,22.72,0,14.12,12.22,22.29,12.7,8.81,50,21,34.76,11.27,48.62,18.32a67.56,67.56,0,0,1,24.68,22.06,57.89,57.89,0,0,1,9.84,32.86q0,27.57-21.59,43.24,8-10.37,8-29.12,0-17.64-8.7-31.32a71.2,71.2,0,0,0-22.55-22.06q-13.63-8.38-44.38-17.87-46.29-14.34-60.37-24.49-14.11-10.37-14.1-32.21,0-25.15,21.61-39.49,21.6-13.89,61.31-13.89m0-9.41c-28.18,0-50.53,5.16-66.39,15.38C2286.67,26.83,2278,42.76,2278,62.8c0,17.64,6,31,17.94,39.78,10.39,7.51,31,15.94,63.15,25.9,19.67,6.06,33.88,11.75,42.24,16.91a61.8,61.8,0,0,1,19.62,19.2c4.78,7.55,7.15,16.13,7.15,26.16,0,10.32-2,18.17-6,23.36a9.4,9.4,0,0,0,13,13.37c16.92-12.26,25.48-29.39,25.48-50.85a67.59,67.59,0,0,0-11.42-38.1,77.31,77.31,0,0,0-28.16-25.18c-9.83-5-26.19-11.18-50.08-18.92-29.76-9.66-42.27-16.06-47.55-19.73-5.7-3.8-8.18-8.26-8.18-14.55,0-2,0-8,11-14.7,8.66-5.38,20.12-8.1,34.07-8.1,18.11,0,33.6,3.66,46,10.87,11.43,6.6,16.8,16.09,16.93,29.87a9.41,9.41,0,0,0,9.41,9.36h4.93a9.43,9.43,0,0,0,9.39-8.91c.32-5.8.49-10.69.49-14.62,0-5.88-.24-12.75-.73-20.45-.28-5.89-.45-11-.45-15.3l-.47-8.92v-1A9.41,9.41,0,0,0,2438.39,9c-26.56-6-49.46-9-68.08-9" transform="translate(0.01 -0.01)"/><path class="cls-4" d="M2348.93,256.34c-10,0-23.87-1.73-41.32-5.16-14.68-2.88-25.79-4.4-33-4.55a4.72,4.72,0,0,1-3.35-1.49l-1.64-1.75a4.75,4.75,0,0,1-1.26-3.52q.22-3.65.23-9.41,0-6.93-1.39-21.41c-.81-10.09-1.19-17.54-1.19-22.49a125.2,125.2,0,0,1,1-17,4.7,4.7,0,0,1,4.67-4.07h5.4a4.71,4.71,0,0,1,4.69,4.43c1,17.61,8.37,31.73,22.47,43.16a73.46,73.46,0,0,0,47.76,17c13.51,0,24.58-3.55,32.9-10.57s12.2-14.91,12.2-24.42c0-9.94-3.74-17.43-11.41-22.85-8.18-5.86-24.88-12.71-49.63-20.29-20.79-6.46-35.21-11.67-44.11-15.93-10.73-5.19-19.26-12.33-25.34-21.21a51.48,51.48,0,0,1-10-30.89c0-12.6,4.5-25.06,13.36-37a4.67,4.67,0,0,1,3.78-1.9,4.59,4.59,0,0,1,2.17.54,4.71,4.71,0,0,1,2.32,5.63,44.39,44.39,0,0,0-2.6,13.54c0,10.48,2.65,19.76,7.9,27.61a54.8,54.8,0,0,0,20.33,18.73c8.51,4.56,23,9.86,43.09,15.76,27.58,7.88,47.08,16.45,59.58,26.18,12.59,9.88,19,23.29,19,39.89,0,16.06-6.46,30.76-19.2,43.67-12.92,13.06-32.23,19.71-57.38,19.71" transform="translate(0.01 -0.01)"/><path d="M2273.77,49.79a49.19,49.19,0,0,0-2.82,15Q2271,82,2279.64,95a58.93,58.93,0,0,0,22.07,20.3q13.15,7,43.93,16.11,40.18,11.46,58,25.37,17.13,13.44,17.15,36.17,0,22.31-17.85,40.37-18.11,18.3-54,18.32-14.58,0-40.42-5.08-22.53-4.41-33.83-4.63l-1.63-1.77c.15-2.51.24-5.73.24-9.7,0-4.7-.47-12-1.41-21.83q-1.18-14.81-1.19-22.07a123.59,123.59,0,0,1,.94-16.34h5.41q1.63,28.25,24.18,46.56A77.84,77.84,0,0,0,2352,234.87q22.09,0,35.94-11.69t13.85-28q0-17.23-13.38-26.7-12.93-9.25-51-21Q2306.9,138,2294,131.84q-15-7.26-23.49-19.63A46.7,46.7,0,0,1,2261.31,84q0-17.41,12.46-34.18m0-9.41a9.38,9.38,0,0,0-7.57,3.78c-9.48,12.8-14.3,26.18-14.3,39.81a56.2,56.2,0,0,0,10.95,33.77c6.42,9.36,15.55,17,27,22.57,9.14,4.37,23.77,9.66,44.76,16.19,30.25,9.28,43,15.8,48.28,19.62,6.48,4.57,9.45,10.61,9.45,19,0,8-3.42,14.85-10.5,20.8-7.57,6.38-17.34,9.48-29.88,9.48a68,68,0,0,1-44.78-16c-13-10.58-19.8-23.6-20.76-39.81a9.4,9.4,0,0,0-9.39-8.87h-5.41a9.41,9.41,0,0,0-9.31,8.13,132,132,0,0,0-1,17.62c0,5.14.41,12.82,1.2,22.82.93,9.64,1.4,16.68,1.4,21.08,0,3.73-.08,6.76-.23,9.11a9.4,9.4,0,0,0,2.51,7l1.65,1.77a9.47,9.47,0,0,0,6.7,3c6.93.13,17.77,1.62,32.19,4.44,18,3.54,31.8,5.27,42.23,5.27,26.44,0,46.87-7.11,60.72-21.1,13.63-13.86,20.56-29.65,20.56-47,0-18.11-7-32.78-20.75-43.58-13-10.13-33-19-61.25-27-19.73-5.78-33.9-11-42-15.35a49.29,49.29,0,0,1-18.68-17.18c-4.82-7.19-7.13-15.36-7.13-25a40.54,40.54,0,0,1,2.35-12.08,9.41,9.41,0,0,0-4.63-11.28,9.2,9.2,0,0,0-4.31-1" transform="translate(0.01 -0.01)"/><path class="cls-4" d="M89.05,593a4.68,4.68,0,0,1-4.71-4.71v-4A4.7,4.7,0,0,1,88,579.71c11.71-2.78,19.47-8.13,23.68-16.32,4.33-8.54,6.54-23.39,6.54-44.18v-146H63c-13.89,0-23.64,2.54-28.95,7.55-5.59,5.23-10.43,15.68-14.4,31.06a4.73,4.73,0,0,1-4.57,3.52H9.65A4.68,4.68,0,0,1,5,411.07c-.17-2-.25-4.24-.25-6.57a90.83,90.83,0,0,1,1-11.9,361.71,361.71,0,0,0,2.77-42.14,4.7,4.7,0,0,1,1.6-3.52,4.75,4.75,0,0,1,3.11-1.19c.18,0,.39,0,.58,0,8.11,1,18.39,1.65,30.55,2l20,.65h77.35a4.69,4.69,0,0,1,4.7,4.71v232.5a4.69,4.69,0,0,1-4.7,4.7h-7c-10,0-25.19.89-45.16,2.64a2.82,2.82,0,0,1-.41,0" transform="translate(0.01 -0.01)"/><path d="M13.17,350.46q12.45,1.55,31,2l20,.67h77.51v232.5h-7q-15.27,0-45.57,2.65v-4q19.49-4.62,26.77-18.75,7.05-13.89,7.06-46.32V368.55H63q-22.81,0-32.19,8.83t-15.74,33.3H9.65c-.15-1.9-.24-4-.24-6.18a84.31,84.31,0,0,1,1-11.25,367.6,367.6,0,0,0,2.8-42.79m0-9.41a9.4,9.4,0,0,0-9.41,9.41A355.78,355.78,0,0,1,1,392.14,90.42,90.42,0,0,0,0,404.5q0,3.71.29,6.93a9.41,9.41,0,0,0,9.37,8.66h5.4A9.39,9.39,0,0,0,24.16,413c4.69-18.07,9.7-25.64,13.07-28.8,3.05-2.86,10-6.27,25.75-6.27h50.49V519.22c0,24.92-3.3,36.63-6,42-3.54,6.85-10.26,11.41-20.55,13.87a9.36,9.36,0,0,0-7.23,9.15v4a9.44,9.44,0,0,0,9.41,9.42c.26,0,.55,0,.81,0,19.84-1.75,34.9-2.62,44.76-2.62h7a9.4,9.4,0,0,0,9.42-9.41V353.11a9.4,9.4,0,0,0-9.42-9.41H64.15L44.49,343c-12.1-.28-22.21-.92-30.15-1.9a9.18,9.18,0,0,0-1.17-.07" transform="translate(0.01 -0.01)"/><path class="cls-4" d="M211.83,593c-27.49-1.75-43.19-2.64-46.67-2.64H159a4.71,4.71,0,0,1-4.7-4.7V353.11a4.71,4.71,0,0,1,4.7-4.71H243.6a390,390,0,0,0,45.25-2.61,5.46,5.46,0,0,1,.57,0,4.73,4.73,0,0,1,4.7,4.71c0,2.86-.24,8-.71,15.51-.47,6.72-.7,15.06-.7,25.07a171,171,0,0,1-1.22,20.2,4.67,4.67,0,0,1-4.67,4.14h-5.63a4.68,4.68,0,0,1-4.7-4.57c-.29-11-3.2-20.16-8.66-27.26-5.29-6.82-17.4-10.3-36-10.3h-48.6V526.5c0,17.13,2.54,30,7.55,38.38,4.8,8,12.07,12.82,22.21,14.8a4.68,4.68,0,0,1,3.82,4.61v4a4.67,4.67,0,0,1-4.7,4.71,1.46,1.46,0,0,1-.3,0" transform="translate(0.01 -0.01)"/><path d="M289.41,350.46c0,2.79-.22,7.87-.7,15.23Q288,375.83,288,391a169.71,169.71,0,0,1-1.17,19.64h-5.65q-.45-18.07-9.61-30-9.4-12.1-39.7-12.12H178.54v158q0,27.13,8.22,40.81t25.38,17v4q-41.59-2.65-47-2.65h-6.1V353.11h84.56a391.08,391.08,0,0,0,45.8-2.65m0-9.41c-.38,0-.73,0-1.09.05a383.59,383.59,0,0,1-44.71,2.6H159.05a9.41,9.41,0,0,0-9.41,9.41v232.5a9.41,9.41,0,0,0,9.41,9.41h6.1c2.34,0,12.28.45,46.39,2.64l.6,0a9.43,9.43,0,0,0,9.41-9.42v-4a9.4,9.4,0,0,0-7.64-9.24c-8.77-1.69-15-5.82-19.07-12.59-4.58-7.61-6.89-19.69-6.89-36V378h43.92c16.56,0,28,3,32.26,8.47,4.89,6.36,7.4,14.38,7.64,24.49a9.44,9.44,0,0,0,9.41,9.17h5.65a9.41,9.41,0,0,0,9.34-8.3A176.65,176.65,0,0,0,297.41,391c0-9.84.23-18.16.7-24.71.49-7.7.71-13,.71-15.87a9.37,9.37,0,0,0-9.41-9.41" transform="translate(0.01 -0.01)"/><path class="cls-4" d="M613.15,567.6a4.72,4.72,0,0,1-3.71-7.61c16.32-20.82,24.61-52.95,24.61-95.49,0-37.42-8.21-66.87-24.38-87.53a4.7,4.7,0,0,1,3.71-7.61,4.56,4.56,0,0,1,2.29.6c33.72,18.9,50.81,51.52,50.81,97,0,44.74-17.09,78.36-50.79,99.93a4.83,4.83,0,0,1-2.54.74" transform="translate(0.01 -0.01)"/><path d="M613.39,374.06q48.38,27.13,48.38,92.88,0,64.83-48.62,95.95,25.61-32.64,25.6-98.38,0-58-25.36-90.45m0-9.41A9.41,9.41,0,0,0,606,379.86c15.51,19.8,23.36,48.28,23.36,84.65,0,41.45-7.94,72.61-23.58,92.58a9.41,9.41,0,0,0,12.48,13.72c35.14-22.47,52.95-57.43,52.95-103.87,0-47.29-17.88-81.3-53.2-101.1a9.61,9.61,0,0,0-4.59-1.19" transform="translate(0.01 -0.01)"/><path class="cls-4" d="M422.65,566.27a4.88,4.88,0,0,1-2.47-.69c-33-20.39-49.69-53.35-49.69-98,0-45.9,17.17-78.82,51-97.85a4.7,4.7,0,0,1,2.3-.62,4.81,4.81,0,0,1,3.48,1.52,4.73,4.73,0,0,1,.41,5.86c-16.6,24.07-25,55.47-25,93.29,0,34.2,8.05,64.25,23.94,89.25a4.69,4.69,0,0,1-4,7.22" transform="translate(0.01 -0.01)"/><path d="M423.83,373.84q-25.87,37.5-25.85,96,0,52.94,24.68,91.77-47.46-29.34-47.46-94,0-66.39,48.63-93.75m0-9.41a9.63,9.63,0,0,0-4.62,1.19c-35.44,19.95-53.42,54.25-53.42,102,0,46.36,17.47,80.68,51.92,102a9.4,9.4,0,0,0,12.87-13c-15.38-24.22-23.19-53.4-23.19-86.7,0-36.86,8.13-67.35,24.19-90.64a9.4,9.4,0,0,0-7.75-14.74" transform="translate(0.01 -0.01)"/><path class="cls-4" d="M518.25,596.06c-33.9,0-60.57-11.65-79.29-34.6-18.46-22.68-27.84-54.1-27.84-93.42,0-40.81,9.55-72.72,28.37-94.82,19.05-22,45.37-33.2,78.29-33.2,33.36,0,60.14,11.14,79.63,33.13,19.18,21.68,28.91,53.66,28.91,95.11,0,27.62-4.59,51.38-13.61,70.61S590.82,572.7,574.35,582c-15.93,9.32-34.83,14.06-56.1,14.06m-.47-228.54c-50.73,0-75.39,33.9-75.39,103.61,0,65.41,25,97.2,76.33,97.2s76.11-32.66,76.11-99.86c0-67.93-25.21-101-77.05-101" transform="translate(0.01 -0.01)"/><path d="M517.78,344.72q48.13,0,76.1,31.55,27.74,31.32,27.73,92,0,40.58-13.16,68.6-12.9,27.81-36.4,41-23,13.44-53.8,13.46-48.86,0-75.64-32.87T415.84,468q0-59.78,27.24-91.77,27.26-31.54,74.7-31.55M518.72,573q80.81,0,80.81-104.57,0-105.66-81.75-105.66-80.11,0-80.1,108.32,0,101.89,81,101.91m-.94-237.73c-34.36,0-61.88,11.71-81.81,34.81-19.62,23-29.54,55.94-29.54,97.92,0,40.41,9.72,72.85,28.88,96.38,19.65,24.11,47.55,36.35,82.94,36.35,22.12,0,41.81-5,58.54-14.76,17.22-9.7,30.78-24.92,40.21-45.2,9.3-19.82,14-44.25,14-72.55,0-42.61-10.12-75.67-30.08-98.24-20.42-23-48.39-34.71-83.16-34.71m.94,228.32c-30.74,0-71.63-9.6-71.63-92.5,0-66.55,23.12-98.91,70.69-98.91,31.06,0,72.34,10,72.34,96.25,0,85.29-40.76,95.16-71.4,95.16" transform="translate(0.01 -0.01)"/><path class="cls-4" d="M762.13,593a4.63,4.63,0,0,1-3.2-1.26,4.72,4.72,0,0,1-1.51-3.45v-4a4.7,4.7,0,0,1,3.54-4.56c17.85-4.57,26.52-22.64,26.52-55.23V409.58c0-28.54-8.75-45.12-26.75-50.65a4.72,4.72,0,0,1-3.31-4.5v-4a4.73,4.73,0,0,1,4.71-4.71,2.82,2.82,0,0,1,.41,0c16.1,1.45,32.59,2.33,49,2.63a4.72,4.72,0,0,1,4.63,4.71v232.5a4.7,4.7,0,0,1-4.55,4.7q-20.4.68-49.17,2.64a1.77,1.77,0,0,1-.32,0" transform="translate(0.01 -0.01)"/><path d="M762.13,350.46q24.42,2.21,49.33,2.65v232.5q-20.46.67-49.33,2.65v-4q30-7.74,30.06-59.78V409.59q0-45.88-30.06-55.16v-4m0-9.41a9.42,9.42,0,0,0-9.42,9.41v4a9.39,9.39,0,0,0,6.65,9c5.8,1.79,23.42,7.23,23.42,46.18V524.51c0,44.74-17.3,49.18-23,50.67a9.4,9.4,0,0,0-7.06,9.11v4a9.46,9.46,0,0,0,9.42,9.42c.2,0,.43,0,.64,0,19.05-1.3,35.54-2.19,49-2.64a9.4,9.4,0,0,0,9.11-9.39V353.11a9.42,9.42,0,0,0-9.26-9.41c-16.29-.3-32.66-1.18-48.65-2.61a5.91,5.91,0,0,0-.84,0" transform="translate(0.01 -0.01)"/><path class="cls-4" d="M948.87,584.14a4.7,4.7,0,0,1-3.31-8c13.61-13.48,20.21-30.27,20.21-51.36,0-22.4-7.11-40.71-21.14-54.43a4.72,4.72,0,0,1,3.3-8.08,4.5,4.5,0,0,1,1.52.26c31.72,10.81,47.82,31.16,47.82,60.49a60.69,60.69,0,0,1-13.48,38.66A63.45,63.45,0,0,1,950.09,584a4.38,4.38,0,0,1-1.22.17" transform="translate(0.01 -0.01)"/><path d="M947.93,466.93q44.64,15.22,44.63,56A55.9,55.9,0,0,1,980.1,558.7a58.5,58.5,0,0,1-31.23,20.75q21.6-21.41,21.61-54.73,0-35.72-22.55-57.79m0-9.41a9.4,9.4,0,0,0-6.59,16.13c13.27,13,19.73,29.71,19.73,51.07,0,19.77-6.15,35.49-18.82,48a9.4,9.4,0,0,0,9.07,15.78,68.06,68.06,0,0,0,36.16-24A65.33,65.33,0,0,0,1002,523c0-21.7-8.87-50.58-51-65a9.54,9.54,0,0,0-3.05-.49" transform="translate(0.01 -0.01)"/><path class="cls-4" d="M947.76,457.5a4.69,4.69,0,0,1-3.65-7.66c8.8-10.86,13.27-24,13.27-39,0-12-2.51-22.8-7.44-32.21S939.25,362.82,933,359.75a4.75,4.75,0,0,1-2.39-5.74,4.69,4.69,0,0,1,4.46-3.2,6,6,0,0,1,.92.09c16.45,3.28,29.35,10.09,38.33,20.26,9,10.41,13.61,22.13,13.61,34.88,0,11.27-3.79,22-11.28,31.94-7.53,9.64-16.77,16.12-27.56,19.32a4,4,0,0,1-1.33.2" transform="translate(0.01 -0.01)"/><path d="M935.06,355.51q23.27,4.64,35.71,18.75,12.45,14.36,12.46,31.78,0,15.42-10.33,29.1-10.33,13.25-25.15,17.66,14.34-17.66,14.35-41.92,0-19.19-8-34.42c-5.47-10.42-11.82-17.43-19-20.95m0-9.41A9.42,9.42,0,0,0,930.92,364c5.35,2.61,10.34,8.3,14.84,16.88,4.59,8.75,6.92,18.84,6.92,30,0,14.08-4,25.84-12.23,36a9.39,9.39,0,0,0,7.3,15.32,9.18,9.18,0,0,0,2.69-.4c11.73-3.48,21.78-10.5,29.88-20.87,8.2-10.86,12.33-22.57,12.33-34.9,0-13.91-5-26.66-14.76-37.93-9.71-11-23.49-18.34-41-21.82a9,9,0,0,0-1.85-.19" transform="translate(0.01 -0.01)"/><path class="cls-4" d="M881.92,593c-9.34,0-19.61-.54-30.51-1.56-9.47-.71-17-1.09-22.57-1.09a4.71,4.71,0,0,1-4.71-4.71V353.1a4.65,4.65,0,0,1,1.38-3.31,4.71,4.71,0,0,1,3.33-1.4H883c3.46,0,6.34,0,7.24.1a22.76,22.76,0,0,1,2.75.39c3.2.45,5,.7,6.78,1a75.83,75.83,0,0,1,7.89,2c2.27.7,3.53,1.09,4.72,1.54a67.15,67.15,0,0,1,7.66,3.75c1.94,1,2.79,1.45,3.58,2a61.39,61.39,0,0,1,9.79,7.79c13.91,14.14,19.84,27.69,19.84,45.4,0,23.65-7.76,39.74-24.3,50.06,22.51,18.39,28.87,32.58,28.87,61.16A72.1,72.1,0,0,1,940,571.91c-12.18,14-31.7,21.06-58.07,21.06M852.8,513.05c0,33,4.61,45.19,8.47,49.62,3.84,2.63,11.22,4.35,21.12,4.35,16.72,0,28.67-4.47,35.52-13.2,6.8-9.05,10.28-19.9,10.28-32.17,0-9.79-2.2-18.2-6.55-25.06s-10-11.78-16.62-14.49c-7.25-2.69-18.54-4.07-33.43-4.07H852.8Zm54.06-60L905,448.74a33.78,33.78,0,0,0,9.68-6c7.19-6.78,10.71-16.47,10.71-29.65,0-13.57-3.79-23.53-11.58-30.46a41.18,41.18,0,0,0-9.22-5.92l-2-.95a40.14,40.14,0,0,0-10.28-2.84c-2.14-.28-20.1-.53-23.73-.53-5,0-9.13,1-12.24,2.9-2.33,7.63-3.5,20.41-3.5,38.07V453h13.38c2.73,0,21.82-.3,24.33-.55a49.48,49.48,0,0,0,12.53-2.8Z" transform="translate(0.01 -0.01)"/><path d="M828.84,353.1l39.1.06c1.56,0,8.9-.06,14.73-.06,3.45,0,6.35,0,7.21.08,1.36.11,2.56.43,3.86.58,1.75.23,3.47.47,5.14.77a75.44,75.44,0,0,1,7.36,1.92c1.49.45,3,.89,4.43,1.43a57,57,0,0,1,7.05,3.48c1.1.61,2.28,1.11,3.34,1.79a57.55,57.55,0,0,1,9,7.19c11.6,11.77,18.45,24,18.45,42.08,0,22.64-7.11,39.34-28.1,49.33,25.77,19.66,32.68,32.36,32.68,61.88a67.22,67.22,0,0,1-16.68,45.21q-16.92,19.42-54.5,19.41-13.86,0-30.06-1.54-14.57-1.11-23-1.09V353.1m19.25,104.57h18.09c2.79,0,22.24-.32,24.8-.57A55.49,55.49,0,0,0,904.72,454c.75-.29,1.43-.66,2.14-1a39,39,0,0,0,11-6.89q12.2-11.49,12.19-33.1,0-22.27-13.15-34a45.84,45.84,0,0,0-10.3-6.63c-.74-.38-1.47-.75-2.24-1.07a45.37,45.37,0,0,0-11.48-3.18c-2.41-.34-21.78-.55-24.36-.55q-10.11,0-16.21,4.63-4.23,11.91-4.24,41v44.35m34.3,114.05q27.48,0,39.23-15,11.26-15,11.28-35.09,0-16.1-7.29-27.56-7.5-11.71-18.78-16.34-12-4.39-35.24-4.4h-23.5V513q0,41.7,9.64,52.73,8.22,6,24.66,6m-53.55-228a9.41,9.41,0,0,0-9.41,9.41V585.62a9.43,9.43,0,0,0,9.41,9.41c5.38,0,12.87.34,22.3,1.05,10.88,1.06,21.29,1.58,30.78,1.58,27.79,0,48.51-7.62,61.59-22.64a76.72,76.72,0,0,0,19-51.39c0-27.86-6.08-43.26-25.85-60.79,14.46-11.18,21.27-27.53,21.27-50.42,0-18.81-6.51-33.83-21.16-48.68a64.77,64.77,0,0,0-10.59-8.46,26.79,26.79,0,0,0-2.9-1.63l-1-.51a66.67,66.67,0,0,0-8.23-4c-1.28-.51-2.67-.94-4.06-1.36l-1-.32a85.2,85.2,0,0,0-8.4-2.14c-1.84-.36-3.78-.62-5.74-.89l-1.09-.17c-1-.19-2.09-.35-3.2-.45s-4.16-.11-8-.11l-11.46,0h-3.27l-39.08-.05Zm31.45,34.79a20.8,20.8,0,0,1,8.25-1.4c3.88,0,20.8.23,23.19.47a36.82,36.82,0,0,1,9,2.53l1.16.54a39.35,39.35,0,0,1,8.83,5.57c6.65,5.91,9.92,14.72,9.92,26.88,0,11.81-3,20.37-9.24,26.21a28.59,28.59,0,0,1-8.34,5.15l-1,.48A46.92,46.92,0,0,1,890,447.75c-2.32.17-20.56.51-23.84.51h-8.67V413.32c0-18.75,1.37-29.1,2.78-34.84m-2.78,104.26h14.08c14.32,0,25.09,1.28,32,3.82,5.42,2.24,10.15,6.4,14.14,12.58s5.78,13.49,5.78,22.49c0,11.39-3.07,21-9.4,29.42-5.8,7.4-16.51,11.26-31.7,11.26-8,0-14.32-1.24-18.2-3.56-2.39-3.5-6.68-14.21-6.68-45.72Z" transform="translate(0.01 -0.01)"/><path class="cls-4" d="M1380.51,593c-21.08-1.75-36.76-2.64-46.61-2.64a4.68,4.68,0,0,1-4.18-2.56L1211.09,355.24a4.71,4.71,0,0,1,4.2-6.84h23a4.69,4.69,0,0,1,4.35,2.92q4.66,11.35,13,28.63c8.43,16.89,10.2,21.09,10.78,22.84a20.26,20.26,0,0,1,2.09,4.57l55,106.83c18.62,36.08,38.46,58.18,59,65.67a4.71,4.71,0,0,1,3.11,4.43v4a4.72,4.72,0,0,1-4.71,4.71,2.55,2.55,0,0,1-.39,0" transform="translate(0.01 -0.01)"/><path d="M1238.31,353.11q4.71,11.46,13.16,28.89c6.25,12.5,9.79,19.94,10.56,22.29a26.69,26.69,0,0,1,2.12,4.63l55.2,107.43q28.9,56,61.55,67.93v4q-32-2.65-47-2.64L1215.29,353.11h23m0-9.42h-23a9.41,9.41,0,0,0-8.38,13.69l118.61,232.5a9.45,9.45,0,0,0,8.4,5.15c9.71,0,25.26.87,46.21,2.6.24,0,.51,0,.77,0a9.42,9.42,0,0,0,9.41-9.41v-4a9.35,9.35,0,0,0-6.19-8.82c-19.37-7.08-38.34-28.41-56.4-63.44l-54.93-106.88a36.31,36.31,0,0,0-2.18-4.82c-.94-2.47-3.33-7.76-10.73-22.54-5.48-11.27-9.81-20.81-12.86-28.23a9.39,9.39,0,0,0-8.71-5.86" transform="translate(0.01 -0.01)"/><path class="cls-4" d="M1260.39,593a4.67,4.67,0,0,1-4.7-4.7v-4a4.7,4.7,0,0,1,4-4.64c12.31-2,13.89-8.21,13.89-13.45,0-4.61-1.94-13.87-11.22-31.79l-19.61-38.49h-82.87l-21,38.57-1,2.41a5,5,0,0,1-1.12,1.63h0c.15,0-.9,1.94-2.61,5.18a35.36,35.36,0,0,0-4.39,16.77c0,5.76,1.71,14.06,16.6,19.39a4.68,4.68,0,0,1,3.13,4.42v4a4.7,4.7,0,0,1-4.71,4.7c-2.76,0-7.55-.36-14.38-1.13a227,227,0,0,0-24.38-1.5,243.25,243.25,0,0,0-24.41,1.52c-7,.75-11.6,1.11-13.87,1.11a4.71,4.71,0,0,1-4.71-4.7v-4a4.71,4.71,0,0,1,2.67-4.23c16.25-7.76,31.35-24.25,44.9-49l76.74-140.24a60,60,0,0,0-21.57-22.21c-9.69-5.73-21.25-8.93-34.33-9.49a4.7,4.7,0,0,1-4.5-4.71v-4a4.71,4.71,0,0,1,4.7-4.7h8.21q11.19,0,30.63,1.35c13.29.87,22,1.3,26,1.3a4.7,4.7,0,0,1,4.18,2.58l118.63,232.5a4.69,4.69,0,0,1-.15,4.55,4.77,4.77,0,0,1-4,2.3c-15,.28-33.38,1.16-54.5,2.61a1.77,1.77,0,0,1-.32,0m-30.92-123-26.57-52.28L1174.16,470Z" transform="translate(0.01 -0.01)"/><path d="M1139.89,350.45q11,0,30.31,1.34c13.45.88,22.23,1.32,26.29,1.32l118.63,232.51q-22.78.42-54.74,2.64v-4q17.88-2.85,17.87-18.09,0-11.24-11.75-34l-20.91-41H1157l-22.33,41-1.17,2.86c-.15.15-1.33,2.28-3.52,6.4a39.88,39.88,0,0,0-4.93,19q0,16.74,19.73,23.81v4q-4,0-13.85-1.1a227.2,227.2,0,0,0-24.91-1.54,246.22,246.22,0,0,0-24.9,1.54q-10.11,1.11-13.39,1.1v-4q25.85-12.33,47-50.95l78-142.5a64.86,64.86,0,0,0-24.53-26.26q-15.65-9.26-36.54-10.15v-4h8.23m26.3,124.2h70.94l-34.05-67.07-36.89,67.07M1139.89,341h-8.23a9.42,9.42,0,0,0-9.41,9.41v4a9.4,9.4,0,0,0,9,9.4c12.29.52,23.09,3.5,32.13,8.84A54.46,54.46,0,0,1,1182,390.92l-75.47,137.89c-13.06,23.85-27.46,39.64-42.78,47a9.4,9.4,0,0,0-5.35,8.48v4a9.42,9.42,0,0,0,9.41,9.41c1.62,0,4.9-.13,14.4-1.15a234.55,234.55,0,0,1,23.89-1.49,220.36,220.36,0,0,1,23.87,1.47,148.7,148.7,0,0,0,14.89,1.17,9.41,9.41,0,0,0,9.41-9.41v-4a9.36,9.36,0,0,0-6.23-8.84c-12-4.29-13.5-10.26-13.5-15a30.43,30.43,0,0,1,3.83-14.57c1.54-2.9,2.54-4.74,3-5.49a8.36,8.36,0,0,0,.92-1.75l1-2.4,19.39-35.65h77.2l18.29,35.88c9.32,18,10.71,26.37,10.71,29.7,0,3,0,7.2-9.94,8.8a9.4,9.4,0,0,0-7.92,9.29v4a9.43,9.43,0,0,0,9.41,9.41c.23,0,.43,0,.66,0,21-1.45,39.29-2.33,54.27-2.6a9.42,9.42,0,0,0,8.19-13.7L1204.87,348.81a9.4,9.4,0,0,0-8.38-5.12c-3.84,0-12.48-.43-25.69-1.29-13-.91-23.36-1.36-30.91-1.36m42.22,124.2,20.63-37.52,19,37.52Z" transform="translate(0.01 -0.01)"/><path class="cls-4" d="M1676.21,575.1a4.73,4.73,0,0,1-4.71-4.71V464.07a4.71,4.71,0,0,1,4.52-4.7q11.14-.45,20.42-1.32,15.61-1.35,20.41-1.34a4.7,4.7,0,0,1,4.7,4.71v4a4.71,4.71,0,0,1-3,4.39c-12.34,4.72-18.35,17.43-18.35,38.85v56a4.69,4.69,0,0,1-4.07,4.67,81.5,81.5,0,0,0-8.35,2.47,50.14,50.14,0,0,0-5.91,1.69c-1.72.64-3.2,1.13-4.41,1.45a4.78,4.78,0,0,1-1.22.17" transform="translate(0.01 -0.01)"/><path d="M1716.84,461.42v4q-21.37,8.16-21.36,43.24v56a82.43,82.43,0,0,0-9.17,2.65,50,50,0,0,0-6.12,1.77c-1.56.59-2.9,1-4,1.32V464.07c7.53-.3,14.4-.73,20.67-1.33q15.27-1.33,20-1.32m0-9.41c-3.44,0-10.22.43-20.78,1.35-6.17.58-12.9,1-20.22,1.3a9.42,9.42,0,0,0-9,9.41V570.39a9.41,9.41,0,0,0,9.41,9.41,8.89,8.89,0,0,0,2.45-.34,44.26,44.26,0,0,0,4.85-1.58,41,41,0,0,1,5-1.43c4.73-1.49,7.29-2.28,8.46-2.48a9.83,9.83,0,0,0,8-9.32v-56c0-28.61,11.52-33,15.3-34.45a9.41,9.41,0,0,0,6.06-8.79v-4a9.41,9.41,0,0,0-9.41-9.41" transform="translate(0.01 -0.01)"/><path class="cls-4" d="M1499.8,565.39a4.64,4.64,0,0,1-2.79-.92c-31.51-23.17-47.49-55.17-47.49-95.12,0-24.45,5.38-45.42,16-62.27,10.35-16.43,22.81-29.19,37-37.91a4.71,4.71,0,0,1,2.46-.7,4.72,4.72,0,0,1,3.77,7.53c-18.39,24.49-27.73,56-27.73,93.8,0,8.89,1.11,21.8,3.26,38.44,2.09,15.85,8.65,32.64,19.52,49.94a4.77,4.77,0,0,1-.79,6,4.67,4.67,0,0,1-3.2,1.24" transform="translate(0.01 -0.01)"/><path d="M1505,373.18q-28.67,38.18-28.65,96.62,0,13.67,3.28,39.05,3.3,24.93,20.19,51.84-45.57-33.56-45.57-91.34,0-35.49,15.29-59.76,15-23.83,35.46-36.41m0-9.41a9.2,9.2,0,0,0-4.93,1.39c-14.8,9.09-27.75,22.36-38.5,39.38-11.1,17.66-16.73,39.46-16.73,64.81,0,41.51,16.62,74.79,49.41,98.9a9.35,9.35,0,0,0,12-.67,9.42,9.42,0,0,0,1.57-11.92c-10.49-16.7-16.83-32.88-18.85-48.06-2.1-16.39-3.18-29.12-3.18-37.8,0-36.7,9-67.31,26.77-91a9.4,9.4,0,0,0-7.53-15.06" transform="translate(0.01 -0.01)"/><path class="cls-4" d="M1594.46,594.73c-31.53,0-57.4-10-76.86-29.63-9.75-10.09-17.11-22.89-21.93-38.08-4.74-14.93-7.15-32.47-7.15-52.14C1488.52,388,1528,344,1605.73,344a256.07,256.07,0,0,1,81.61,13.25,4.69,4.69,0,0,1,3.2,4.46q0,20.32.69,31.25.74,9.54.72,23.45a4.71,4.71,0,0,1-4.71,4.71h-4.69a4.7,4.7,0,0,1-4.57-3.62c-3.52-14.79-11.54-26.14-24.55-34.65-13.38-8.55-29.66-12.9-48.39-12.9-58.34,0-86.67,32.16-86.67,98.3,0,67.21,23.89,99.86,73,99.86,19.2,0,32.83-4.17,40.47-12.38,1-2,3-8.53,3-23.72V502.23c0-25.2-12-30.46-21.1-32.23a4.69,4.69,0,0,1-3.8-4.61v-4a4.87,4.87,0,0,1,1.47-3.43,4.74,4.74,0,0,1,3.24-1.28l24.47,1.32c8,.62,14.64,1,19.95,1.34a4.69,4.69,0,0,1,4.44,4.7V575.68a4.72,4.72,0,0,1-3,4.41c-25.32,9.71-47.55,14.64-66,14.64" transform="translate(0.01 -0.01)"/><path d="M1605.74,348.69a249.77,249.77,0,0,1,80.09,13q0,20.54.7,31.55c.49,6.33.71,14,.71,23.17h-4.68q-5.65-23.82-26.56-37.51-21.35-13.67-51-13.67-91.35,0-91.37,103,0,104.57,77.76,104.55,31,0,43.92-13.89,4.23-7.29,4.23-26.92V502.22q0-32-24.9-36.84v-4c5.8.3,13.85.74,24.21,1.34q12,.87,20,1.32V575.69Q1621.49,590,1594.46,590q-45.57,0-73.53-28.24-13.86-14.31-20.78-36.18t-6.93-50.73q0-126.18,112.52-126.18m0-9.41c-79.76,0-121.93,46.87-121.93,135.59,0,20.14,2.49,38.18,7.38,53.59,5,15.87,12.76,29.28,23,39.85,20.46,20.69,47.43,31.12,80.28,31.12,19.09,0,41.87-5,67.75-15a9.4,9.4,0,0,0,6-8.78V464.07a9.42,9.42,0,0,0-8.88-9.42c-5.29-.3-11.88-.71-19.81-1.29-10.5-.63-18.59-1.06-24.39-1.36h-.49a9.4,9.4,0,0,0-9.41,9.41v4a9.41,9.41,0,0,0,7.6,9.23c8.06,1.58,17.3,6.13,17.3,27.61V532c0,13.35-1.54,19.07-2.54,21.35-6.89,6.68-19.07,10-36.2,10-46,0-68.35-31.13-68.35-95.14s26-93.61,82-93.61c17.83,0,33.26,4.11,45.91,12.18,11.88,7.78,19.24,18.17,22.46,31.76a9.45,9.45,0,0,0,9.17,7.24h4.68a9.43,9.43,0,0,0,9.42-9.41c0-9.52-.25-17.33-.74-23.88-.43-7-.68-17.38-.68-30.84a9.4,9.4,0,0,0-6.4-8.92,260.55,260.55,0,0,0-83.1-13.5" transform="translate(0.01 -0.01)"/><path class="cls-4" d="M2046,575.1a4.73,4.73,0,0,1-4.71-4.71V464.07a4.71,4.71,0,0,1,4.52-4.7c7.44-.3,14.23-.74,20.42-1.32q15.62-1.35,20.41-1.34a4.71,4.71,0,0,1,4.71,4.71v4a4.71,4.71,0,0,1-3,4.39C2076,474.5,2070,487.21,2070,508.63v56a4.69,4.69,0,0,1-4.06,4.67,80.58,80.58,0,0,0-8.36,2.47,50.14,50.14,0,0,0-5.91,1.69c-1.72.64-3.2,1.13-4.41,1.45a4.78,4.78,0,0,1-1.22.17" transform="translate(0.01 -0.01)"/><path d="M2086.62,461.42v4q-21.37,8.16-21.36,43.24v56a82.43,82.43,0,0,0-9.17,2.65,50.51,50.51,0,0,0-6.12,1.77c-1.56.59-2.9,1-4,1.32V464.07c7.53-.3,14.4-.73,20.67-1.33q15.27-1.33,20-1.32m0-9.41c-3.44,0-10.22.43-20.78,1.35-6.17.58-12.89,1-20.22,1.3a9.42,9.42,0,0,0-9,9.41V570.39a9.41,9.41,0,0,0,9.41,9.41,8.89,8.89,0,0,0,2.45-.34,44.33,44.33,0,0,0,4.86-1.58,40.43,40.43,0,0,1,4.95-1.43c4.72-1.49,7.28-2.28,8.45-2.48a9.83,9.83,0,0,0,8-9.32v-56c0-28.61,11.52-33,15.3-34.45a9.4,9.4,0,0,0,6.07-8.79v-4a9.41,9.41,0,0,0-9.42-9.41" transform="translate(0.01 -0.01)"/><path class="cls-4" d="M1964.24,594.73c-31.53,0-57.4-10-76.86-29.63-9.75-10.09-17.11-22.89-21.93-38.08-4.74-14.93-7.15-32.47-7.15-52.14C1858.3,388,1897.73,344,1975.51,344a256.16,256.16,0,0,1,81.61,13.25,4.69,4.69,0,0,1,3.2,4.46q0,20.32.69,31.25.73,9.54.72,23.45a4.71,4.71,0,0,1-4.71,4.71h-4.68a4.7,4.7,0,0,1-4.58-3.62c-3.52-14.79-11.54-26.14-24.55-34.65-13.38-8.55-29.66-12.9-48.39-12.9-58.34,0-86.67,32.16-86.67,98.3,0,67.21,23.89,99.86,73,99.86,19.2,0,32.83-4.17,40.47-12.38,1-2,3-8.53,3-23.72V502.23c0-25.2-12.05-30.46-21.11-32.23a4.69,4.69,0,0,1-3.8-4.61v-4a4.87,4.87,0,0,1,1.47-3.43,4.74,4.74,0,0,1,3.24-1.28l24.47,1.32c8,.62,14.64,1,19.95,1.34a4.68,4.68,0,0,1,4.44,4.7V575.68a4.72,4.72,0,0,1-3,4.41c-25.32,9.71-47.55,14.64-66,14.64" transform="translate(0.01 -0.01)"/><path d="M1975.52,348.69a249.77,249.77,0,0,1,80.09,13q0,20.54.7,31.55c.49,6.33.71,14,.71,23.17h-4.68q-5.65-23.82-26.56-37.51-21.35-13.67-51-13.67-91.35,0-91.37,103,0,104.57,77.76,104.55,31,0,43.92-13.89,4.23-7.29,4.23-26.92V502.22q0-32-24.9-36.84v-4c5.8.3,13.85.74,24.21,1.34q12,.87,19.95,1.32V575.69Q1991.27,590,1964.24,590q-45.57,0-73.53-28.24-13.86-14.31-20.78-36.18T1863,474.87q0-126.18,112.52-126.18m0-9.41c-79.76,0-121.93,46.87-121.93,135.59,0,20.14,2.49,38.18,7.38,53.59,5,15.87,12.76,29.28,23,39.85,20.46,20.69,47.43,31.12,80.28,31.12,19.09,0,41.87-5,67.75-15a9.4,9.4,0,0,0,6-8.78V464.07a9.42,9.42,0,0,0-8.88-9.42c-5.29-.3-11.88-.71-19.81-1.29-10.5-.63-18.59-1.06-24.39-1.36h-.49a9.4,9.4,0,0,0-9.41,9.41v4a9.41,9.41,0,0,0,7.6,9.23c8.06,1.58,17.3,6.13,17.3,27.61V532c0,13.35-1.54,19.07-2.54,21.35-6.89,6.68-19.07,10-36.2,10-46,0-68.35-31.13-68.35-95.14s26.05-93.61,82-93.61c17.83,0,33.26,4.11,45.91,12.18,11.88,7.78,19.24,18.17,22.46,31.76a9.45,9.45,0,0,0,9.17,7.24H2057a9.43,9.43,0,0,0,9.42-9.41c0-9.52-.25-17.33-.74-23.88-.43-7-.68-17.38-.68-30.84a9.4,9.4,0,0,0-6.4-8.92,260.55,260.55,0,0,0-83.1-13.5" transform="translate(0.01 -0.01)"/><path class="cls-4" d="M1869.58,565.39a4.64,4.64,0,0,1-2.79-.92c-31.51-23.17-47.49-55.17-47.49-95.12,0-24.45,5.38-45.42,16-62.27,10.35-16.43,22.81-29.19,37-37.91a4.71,4.71,0,0,1,2.46-.7,4.72,4.72,0,0,1,3.77,7.53c-18.39,24.49-27.73,56-27.73,93.8,0,8.89,1.11,21.8,3.26,38.44,2.09,15.85,8.66,32.64,19.52,49.94a4.77,4.77,0,0,1-.79,6,4.67,4.67,0,0,1-3.2,1.24" transform="translate(0.01 -0.01)"/><path d="M1874.75,373.18q-28.66,38.18-28.65,96.62,0,13.67,3.28,39.05,3.3,24.93,20.19,51.84Q1824,527.14,1824,469.35q0-35.49,15.29-59.76,15-23.83,35.46-36.41m0-9.41a9.2,9.2,0,0,0-4.93,1.39c-14.8,9.09-27.75,22.36-38.5,39.38-11.1,17.66-16.73,39.46-16.73,64.81,0,41.51,16.62,74.79,49.41,98.9a9.35,9.35,0,0,0,12-.67,9.42,9.42,0,0,0,1.57-11.92c-10.49-16.7-16.83-32.88-18.85-48.06-2.1-16.39-3.18-29.12-3.18-37.8,0-36.7,9-67.31,26.77-91a9.4,9.4,0,0,0-7.53-15.06" transform="translate(0.01 -0.01)"/><path class="cls-4" d="M2469.41,593c-21.08-1.75-36.76-2.64-46.61-2.64a4.68,4.68,0,0,1-4.18-2.56L2300,355.24a4.71,4.71,0,0,1,4.2-6.84h23a4.69,4.69,0,0,1,4.35,2.92q4.67,11.35,13.05,28.63c8.43,16.89,10.2,21.09,10.78,22.84a20.26,20.26,0,0,1,2.09,4.57l54.95,106.83c18.62,36.08,38.46,58.18,59,65.67a4.71,4.71,0,0,1,3.11,4.43v4a4.72,4.72,0,0,1-4.71,4.71,2.55,2.55,0,0,1-.39,0" transform="translate(0.01 -0.01)"/><path d="M2327.21,353.11q4.71,11.46,13.16,28.89,9.38,18.75,10.56,22.29a26.69,26.69,0,0,1,2.12,4.63l55.2,107.43q28.9,56,61.55,67.93v4q-32-2.65-47-2.64L2304.19,353.11h23m0-9.42h-23a9.41,9.41,0,0,0-8.38,13.69l118.61,232.5a9.45,9.45,0,0,0,8.4,5.15c9.71,0,25.24.87,46.21,2.6.24,0,.51,0,.77,0a9.42,9.42,0,0,0,9.41-9.41v-4a9.35,9.35,0,0,0-6.19-8.82c-19.37-7.08-38.34-28.41-56.4-63.44l-54.93-106.88a36.31,36.31,0,0,0-2.18-4.82c-.94-2.47-3.33-7.76-10.73-22.54-5.48-11.27-9.81-20.81-12.86-28.23a9.39,9.39,0,0,0-8.71-5.86" transform="translate(0.01 -0.01)"/><path class="cls-4" d="M2349.29,593a4.69,4.69,0,0,1-4.7-4.7v-4a4.7,4.7,0,0,1,3.95-4.64c12.31-2,13.89-8.21,13.89-13.45,0-4.61-1.93-13.87-11.22-31.79l-19.61-38.49h-82.86l-21,38.57-1,2.41a5,5,0,0,1-1.13,1.63h0c.15,0-.91,1.94-2.62,5.18a35.36,35.36,0,0,0-4.39,16.77c0,5.76,1.72,14.06,16.61,19.39a4.69,4.69,0,0,1,3.12,4.42v4a4.7,4.7,0,0,1-4.71,4.7c-2.76,0-7.54-.36-14.38-1.13a226.78,226.78,0,0,0-24.37-1.5,243.25,243.25,0,0,0-24.42,1.52c-7,.75-11.59,1.11-13.87,1.11a4.71,4.71,0,0,1-4.71-4.7v-4a4.71,4.71,0,0,1,2.67-4.23c16.25-7.76,31.35-24.25,44.9-49l76.75-140.24a60.1,60.1,0,0,0-21.58-22.21c-9.69-5.73-21.25-8.93-34.33-9.49a4.7,4.7,0,0,1-4.5-4.71v-4a4.72,4.72,0,0,1,4.71-4.7h8.2q11.19,0,30.63,1.35,19.93,1.31,26,1.3a4.68,4.68,0,0,1,4.17,2.58l118.63,232.5a4.71,4.71,0,0,1-4.1,6.85c-15,.28-33.37,1.16-54.5,2.61a1.77,1.77,0,0,1-.32,0m-30.92-123-26.56-52.28L2263.06,470Z" transform="translate(0.01 -0.01)"/><path d="M2228.79,350.45q11,0,30.31,1.34,20.19,1.32,26.29,1.32L2404,585.62q-22.79.42-54.74,2.64v-4q17.88-2.85,17.87-18.09,0-11.24-11.75-34l-20.91-41h-88.55l-22.33,41-1.16,2.86c-.15.15-1.34,2.28-3.52,6.4a39.78,39.78,0,0,0-4.94,19q0,16.74,19.73,23.81v4q-4,0-13.85-1.1a227.05,227.05,0,0,0-24.91-1.54,246.22,246.22,0,0,0-24.9,1.54q-10.11,1.11-13.38,1.1v-4q25.83-12.33,47-50.95l78-142.5a64.86,64.86,0,0,0-24.53-26.26q-15.64-9.26-36.54-10.15v-4h8.23m26.3,124.2H2326L2292,407.58l-36.89,67.07M2228.79,341h-8.23a9.42,9.42,0,0,0-9.41,9.41v4a9.4,9.4,0,0,0,9,9.4c12.29.52,23.1,3.5,32.13,8.84a54.29,54.29,0,0,1,18.56,18.26L2195.4,528.81c-13.07,23.85-27.47,39.64-42.79,47a9.4,9.4,0,0,0-5.35,8.48v4a9.42,9.42,0,0,0,9.42,9.41c1.61,0,4.89-.13,14.4-1.15A234.38,234.38,0,0,1,2195,595a220.22,220.22,0,0,1,23.87,1.47,148.7,148.7,0,0,0,14.89,1.17,9.41,9.41,0,0,0,9.41-9.41v-4a9.36,9.36,0,0,0-6.23-8.84c-12-4.29-13.49-10.26-13.49-15a30.42,30.42,0,0,1,3.82-14.57c1.54-2.9,2.54-4.74,3-5.49a8.36,8.36,0,0,0,.92-1.75l1-2.4,19.39-35.65h77.2L2347,536.49c9.32,18,10.72,26.37,10.72,29.7,0,3,0,7.2-9.94,8.8a9.39,9.39,0,0,0-7.93,9.29v4a9.43,9.43,0,0,0,9.41,9.41c.23,0,.44,0,.66,0,21-1.45,39.29-2.33,54.27-2.6a9.42,9.42,0,0,0,8.19-13.7L2293.77,348.81a9.4,9.4,0,0,0-8.38-5.12c-3.84,0-12.48-.43-25.69-1.29-12.95-.91-23.36-1.36-30.91-1.36M2271,465.24l20.63-37.52,19.05,37.52Z" transform="translate(0.01 -0.01)"/><path class="cls-4" d="M2821.72,553.26a4.69,4.69,0,0,1-2.94-1L2574.71,356.77a4.69,4.69,0,0,1-1.49-5.23,4.74,4.74,0,0,1,4.44-3.14h27.71a4.82,4.82,0,0,1,3,1l189.88,151.84V419.51c0-14.83-1-26.29-3.13-34.09a32.65,32.65,0,0,0-11.74-17.15c-6-4.59-14-7.69-23.65-9.18a4.73,4.73,0,0,1-4-4.67v-3.95a4.71,4.71,0,0,1,4.71-4.71c.15,0,3,.21,8.6.68,20.24,1.3,34.2,2,41.43,2,6.59,0,22.69-.89,47.82-2.62a1.88,1.88,0,0,1,.34,0,4.62,4.62,0,0,1,3.2,1.26,4.68,4.68,0,0,1,1.5,3.45v3.95a4.74,4.74,0,0,1-4.12,4.69,34.31,34.31,0,0,0-18.86,8.36,32.75,32.75,0,0,0-10.79,16.32c-2.05,7-3.1,17.16-3.1,30.21V548.55a4.68,4.68,0,0,1-4.71,4.71" transform="translate(0.01 -0.01)"/><path d="M2858.6,350.46v4a39.53,39.53,0,0,0-21.37,9.49A37.63,37.63,0,0,0,2825,382.44q-3.32,11.26-3.3,31.55V548.55l-244-195.44h27.71l197.54,157.94V419.51q0-23-3.28-35.3a37.53,37.53,0,0,0-13.38-19.63q-10.11-7.71-25.85-10.15v-4c.15,0,2.9.23,8.23.66q30.75,2,41.81,2,10.08,0,48.15-2.65m-98.19-9.41a9.41,9.41,0,0,0-9.41,9.41v4a9.42,9.42,0,0,0,8,9.3c8.87,1.36,16.11,4.16,21.55,8.3a28.13,28.13,0,0,1,10.06,14.72c1.92,7.27,2.91,18.34,2.91,32.76v72L2611.27,345.75a9.48,9.48,0,0,0-5.89-2.05h-27.71a9.4,9.4,0,0,0-5.9,16.74l244.06,195.45a9.54,9.54,0,0,0,5.89,2.07,9.28,9.28,0,0,0,4.07-.93,9.43,9.43,0,0,0,5.34-8.48V414c0-12.59,1-22.32,2.92-28.89a28.25,28.25,0,0,1,9.22-14,29.94,29.94,0,0,1,16.49-7.36,9.43,9.43,0,0,0,8.25-9.34v-4a9.39,9.39,0,0,0-9.41-9.41c-.23,0-.44,0-.66,0-25,1.75-41,2.63-47.49,2.63-7.14,0-21-.68-41.21-2-5.67-.48-8.66-.68-8.83-.68" transform="translate(0.01 -0.01)"/><path class="cls-4" d="M2550.87,593a4.72,4.72,0,0,1-4.7-4.71v-4a4.7,4.7,0,0,1,3.71-4.59C2562,577,2570,572,2574.24,564.18c4.44-8.24,6.7-23.53,6.7-45.4l-.23-112.89-15.15-12c-22.91-18.38-42.39-30.12-57.89-34.92a4.73,4.73,0,0,1-3.31-4.5v-4a4.65,4.65,0,0,1,1.49-3.43,4.7,4.7,0,0,1,3.22-1.28l42.33,2.67a4.73,4.73,0,0,1,2.66,1L2824.65,566.5a4.67,4.67,0,0,1,1.77,3.67v18.09a4.71,4.71,0,0,1-4.7,4.71H2817a4.83,4.83,0,0,1-3-1L2608.91,428v92.81c0,21.27,2.78,36,8.3,43.84s13.93,12.65,26,15.08a4.67,4.67,0,0,1,3.76,4.61v4a4.69,4.69,0,0,1-4.7,4.71,1.88,1.88,0,0,1-.34,0c-23.44-1.75-39.51-2.64-47.82-2.64-9.35,0-23.75.89-42.78,2.64a3.24,3.24,0,0,1-.44,0" transform="translate(0.01 -0.01)"/><path d="M2509.06,350.46l42.06,2.65,270.59,217.06v18.09H2817L2604.2,418.19V520.76q0,33.53,9.17,46.55t28.89,17v4q-35.49-2.65-48.15-2.65-14.34,0-43.24,2.65v-4q20.22-4.39,27.5-17.86t7.27-47.66l-.23-115.15-16.92-13.46q-35.2-28.23-59.43-35.73v-4m0-9.41a9.39,9.39,0,0,0-9.41,9.41v4a9.41,9.41,0,0,0,6.63,9c14.94,4.63,33.88,16.1,56.34,34.09L2576,408.16l.23,110.62c0,26.26-3.34,38-6.14,43.15-3.52,6.51-10.47,10.82-21.22,13.16a9.43,9.43,0,0,0-7.41,9.2v4a9.43,9.43,0,0,0,9.41,9.42c.28,0,.57,0,.87,0,18.9-1.75,33.15-2.62,42.37-2.62,8.17,0,24.13.89,47.45,2.62.23,0,.46,0,.7,0a9.44,9.44,0,0,0,9.41-9.42v-4a9.4,9.4,0,0,0-7.56-9.22c-10.79-2.2-18.34-6.5-23.06-13.2-3.39-4.82-7.44-15.87-7.44-41.11v-83l197.54,157.86a9.44,9.44,0,0,0,5.87,2.07h4.69a9.41,9.41,0,0,0,9.41-9.42V570.17a9.4,9.4,0,0,0-3.52-7.36L2557,345.75a9.33,9.33,0,0,0-5.31-2l-42-2.65a5.82,5.82,0,0,0-.59,0" transform="translate(0.01 -0.01)"/><polygon class="cls-4" points="939.86 461.08 941.61 460.02 940.16 461.36 939.86 461.08"/><polygon points="945.17 452.42 931.99 460.31 940.16 467.71 950.18 458.6 945.17 452.42"/></g></g></g></g></g></svg>