<svg xmlns="http://www.w3.org/2000/svg" viewBox="0 0 1173.04 239.5"><defs><style>.cls-1{fill:#fefefe;}</style></defs><title>mantis</title><g id="Layer_2" data-name="Layer 2"><g id="Layer_1-2" data-name="Layer 1"><path class="cls-1" d="M461,190.27c0-13,1.64-23.67,7-33.37s13.81-15.46,24.74-18a46.31,46.31,0,0,1,26,1.7c9.27,3.16,16.24,9,20.45,17.81,6.66,13.86,7.9,28.36,5.2,43.53-1.72,9.6-4.93,18.09-11.47,25.45S517.49,238,508.16,239.13c-11.19,1.39-21.86-1.08-30.94-8.2a36.8,36.8,0,0,1-11.75-16.44C462.34,206.05,460.64,197.28,461,190.27Zm9.15-1.26a58.3,58.3,0,0,0,1.66,19.19c2.57,9.09,7,16.8,16.22,20.75,7.35,3.13,14.85,3.29,22.68,2.23a25.81,25.81,0,0,0,17.41-9.89c5.92-7.45,7.83-16.51,8.46-25.68.55-8.12.77-16.39-1.57-24.36-2-6.94-4.27-13.76-10.1-18.81-6.17-5.35-13.3-6.89-21.19-7.18-14.33-.53-24.78,5.82-29.82,18.8A59,59,0,0,0,470.17,189Z"/><path class="cls-1" d="M167.72,187.5A55.38,55.38,0,0,1,171,163.57c3.59-9.65,9.63-17.61,19.23-21.8,13.77-6,27.68-5.73,40.93,1.67,9.49,5.3,15,13.78,17.92,24.24a79.39,79.39,0,0,1,1.35,36c-2.78,15.19-9.92,29.55-30.51,34.28-13.6,3.12-26,1.19-37-7.65-6.49-5.23-10.38-12.26-12.86-20.23C167.86,203,167.47,195.71,167.72,187.5Zm74.68,1.57c.41-8.34-.09-16.4-3.13-24.17a30.57,30.57,0,0,0-12.44-15.52c-7.1-4.47-14.69-3.7-22.37-3.86-8.94-.19-19.83,7.11-23.66,16.73a68.34,68.34,0,0,0-4.33,19.59c-.92,10.3-.47,20.37,2.8,30.15s9.89,16.44,20,18.79a49.71,49.71,0,0,0,17.81.44c10.28-1.36,18.76-9.53,22.14-18.72A56.66,56.66,0,0,0,242.4,189.07Z"/><path class="cls-1" d="M337.77,188.73c0-14.65.07-29.3-.07-43.95,0-2.71.74-3.43,3.4-3.36,7.39.18,14.83-.43,22.17.16,14.76,1.18,25.36,13.53,22.78,28.9-1,5.94-3.06,11.1-9,14-2.37,1.15-1,2.63.39,3.7,3.76,3,7.39,6.17,8.88,10.87,3.85,12.14,2.58,28-10.7,35.55a22.36,22.36,0,0,1-10.4,3,209.15,209.15,0,0,1-25.4-.68c-2.85-.3-2-2-2-3.42C337.75,218.57,337.77,203.65,337.77,188.73Zm7.44,16.46c.08,6.5-.48,13,1.61,19.4.71,2.16,1.56,4.08,3.55,5.22,4.65,2.65,17.75,1.27,22.24-1.86,5-3.49,6.35-8.81,7.66-14.09,2.14-8.61-3.86-18.6-12-21.6-7.11-2.63-14.31-.85-21.44-1.46-2-.17-1.64,1.34-1.65,2.5C345.2,197.26,345.22,201.22,345.21,205.19Zm0-37.24c0,5.06.11,9.17-.05,13.27-.08,2.2.39,3.16,2.86,3.05,4.78-.19,9.59.15,14.37-.1,7.83-.41,14.62-4.23,16.09-13,1.25-7.5,1.22-15.06-6-20.1s-15.48-4.81-23.79-3c-2,.42-2,2.13-2.45,3.41C344.23,157.12,345.68,163.07,345.22,168Z"/><path class="cls-1" d="M661.12,185.88c5.57-.08,11.09,1.27,16.68.81,1.92-.15,1.77,1.21,1.77,2.47,0,13.69,0,27.38,0,41.08,0,1.58-.44,2.67-1.9,3.14-9.66,3.12-19.34,6.17-29.73,5.1-16-1.65-27.75-9.37-33.55-24.57-2.65-6.94-3.16-14.48-3.13-22,0-12.49,1.24-24.58,8.4-35.32,6.34-9.51,15.42-14.17,26.54-16,10.84-1.78,21.45-.41,32.1,1a81.71,81.71,0,0,1,10.58,2.62,2,2,0,0,1,1.5,2.15c-.37,6.3.48,12.56.8,18.83,0,.71.41,1.79-.79,2-.92.15-1.37-.36-1.65-1.33-2.67-9.08-9.06-14.88-17.7-17.49-13-3.93-25.84-3.43-37.72,4.33a26.59,26.59,0,0,0-11,15.58c-4.24,15.31-4.42,30.66,1.32,45.87,5.53,14.69,18.92,18.78,32.24,17.5,1.22-.12,2.42-.39,3.64-.51,7.57-.73,11.88-5.45,11.91-13.12q0-7.6,0-15.2c0-7.2-2.06-13.12-9.84-15.36a10,10,0,0,1-1.07-.44Z"/><path class="cls-1" d="M813.9,185.88c5.28-.1,10.5,1.26,15.8.84,1.75-.13,1.38,1.34,1.38,2.34,0,13.83,0,27.66,0,41.49,0,1.69-.43,2.45-2.29,3.13-11.25,4.16-22.73,6.69-34.6,3.86-10.52-2.51-19.48-7.71-24.6-17.91-7-13.93-7.12-28.48-4.69-43.54,1.89-11.72,6.34-21.65,16-28.75,8.69-6.38,18.89-7.7,29.26-7.7a113.76,113.76,0,0,1,30.11,4.28c1.3.36,2.33.75,2.4,2.28.32,6.91,1,13.81.26,21.82-2.69-3.6-3.39-7.17-5.56-9.91-5.72-7.23-13.33-10.86-22.24-11.62-8.12-.7-16.14-.56-23.91,3.06-8.8,4.1-14.17,10.71-17,19.72-3.61,11.46-3.31,23.23-1.44,34.77,1.76,10.9,6.46,20.7,17.56,25.35a32.89,32.89,0,0,0,17.91,2.17c3.81-.61,7.87-.52,11.12-3.27,2.62-2.21,4.29-4.71,4.2-8.35q-.24-9.24,0-18.48c.18-6.84-2.42-11.71-9.12-14a7.52,7.52,0,0,1-1-.53Z"/><path class="cls-1" d="M986,236.78c-7.48-.1-14.58,1.66-22.34.53,1.74-2,4-1.5,5.49-3,3.46-3.42,2.62-7.31,1.16-10.82A242.75,242.75,0,0,0,958.82,200a3.48,3.48,0,0,0-3.53-2c-10.4.07-20.81.19-31.2-.06-3.73-.09-4.54,2.77-5.77,4.84a129.81,129.81,0,0,0-8.67,16.72c-2.44,6-3.91,12.1,5.94,17.78a241.36,241.36,0,0,0-31.13.08c2.2-2.39,4.95-3.63,7.17-5.63,8.86-8,13.53-18.7,19.1-28.84q10.54-19.17,21.06-38.36c1.16-2.1,2.4-4.16,3.52-6.28.75-1.42.23-2.58-.63-4-5.44-8.68-14-11.69-23.47-13.29a143.15,143.15,0,0,1,25.36.52c1.69.18,2.2,2,2.75,3.11,8.57,17.84,17.86,35.32,26.92,52.91C972.91,210.49,979.34,223.55,986,236.78Zm-46-73.14-15.14,27.67h29.3C949.6,181.91,945.28,172.77,940,163.64Z"/><path class="cls-1" d="M375.64.85c8.8.16,17.3-.36,25.79.84,1.07.15,1.07.86,1.44,1.59C414.55,26,426.32,48.69,438,71.43c4.26,8.3,8.3,16.72,12.71,25.64-7.77-.26-15,.82-22.35,1.41.07-1.88,1.59-1.77,2.57-2.15,4.38-1.69,6-5.18,4.79-9.63-2.56-9.73-8.4-17.91-12.38-27-.64-1.45-1.59-1.26-2.61-1.26q-16.44,0-32.86,0c-1,0-1.89-.12-2.6,1.23-3.89,7.31-8,14.49-11.64,21.94-2.93,6-.16,11.64,5.38,14.57.73.39,1.7.37,1.46,1.48s-1.21.7-2,.56a73,73,0,0,0-27.25.07c-.64.13-1.43.55-1.75-.32s.38-1.29,1.16-1.76c8.94-5.38,14.48-13.61,19.25-22.64,6.62-12.52,13.6-24.84,20.48-37.22,3.16-5.71,6.46-11.35,9.65-17.05.94-1.68.57-3.23-.55-4.8-5.12-7.17-11.92-11.35-20.8-12C377.71,2.45,376.47,2.61,375.64.85Zm43.55,50.88c-4.24-8.79-9-16.75-12.53-25.32a3.22,3.22,0,0,0-1.75-1.57c-.73-.27-1,.57-1.34,1.18-4.58,8.51-9.19,17-13.92,25.71Z"/><path class="cls-1" d="M201.09,2c7.32-.66,7.37-.69,10.58,5.61q13.79,27,27.47,54.06a38.19,38.19,0,0,1,1.43,3.83c3.63-7.4,7-14.32,10.42-21.24,3.94-8,7.84-16.12,11.8-24.16,2.66-5.4,5.64-10.66,8-16.18,1.72-4,4.82-1.95,7.21-2.06,2.76-.13,1.35,2.52,1.38,3.81.5,23.23,2.06,46.41,3.31,69.6.36,6.69-.57,13.42.69,20.08.4,2.11-1.05,1.79-2.21,1.74a87,87,0,0,0-17.72,1.35c-.54-.81-.26-1.4.23-1.56,8.6-2.78,10.71-9.87,10.71-17.53,0-11.06-.92-22.11-1.35-33.17-.36-9,.15-17.94-1.49-27.74L240.78,81.58C227.47,54.88,214.39,28.65,201.09,2Z"/><path class="cls-1" d="M1029.51,141a48,48,0,0,1,16.65.69c4,.83,6.72,4.41,9.88,6.9,12.33,9.71,24.51,19.6,36.73,29.44q17.84,14.36,35.64,28.74c9.1,7.32,18.24,14.59,27.36,21.9,1,.83,2.52,1.53,2.59,2.95.1,2,1.15,4.54-.55,5.78-1.89,1.38-3.47-1.09-4.79-2.13-15-11.85-30-23.83-44.91-35.8q-18.57-14.88-37.12-29.78c-.49-.39-1-.7-1.62-1.07-1,1.48-.57,2.87-.56,4.18.14,15.46-.54,30.93.54,46.38.56,8,3.23,14.63,15.14,17.51-1.47.79-33.44,1.22-38,.36a71.74,71.74,0,0,0,6.84-2.89c6.71-3.75,7.57-10.48,7.67-17,.28-17.52.06-35,.15-52.57a4.88,4.88,0,0,0-2.16-4.36c-8.5-6.76-16.9-13.66-27.15-17.75A21.27,21.27,0,0,1,1029.51,141Z"/><path class="cls-1" d="M512.22,97.94c1.48-2.16,3.91-2.21,5.83-3.26A11.89,11.89,0,0,0,524.13,87a54.41,54.41,0,0,0,2-14.09c-.22-15.74-.13-31.48,0-47.22a5.94,5.94,0,0,0-2.34-5.26c-9.12-7-17.8-14.66-28.95-18.89,6.32-.13,13-2.61,18.56,1.71,14.3,11.16,28.38,22.61,42.48,34,10.47,8.49,21.08,16.83,31.6,25.27C596.31,69.7,605.13,76.86,614,84a36.88,36.88,0,0,0,6,4.48c3.94,2,3.24,5.45,3.15,8.73-.06,2.06-1.07,1.81-2.35.79q-24.65-19.77-49.31-39.5c-11-8.81-22-17.65-33.12-26.33C537,31.06,536.16,29,533.87,29c-.84.91-.41,2-.41,3,0,14.65-.21,29.3.07,43.94.11,5.94,1.36,11.73,6,16.29a17,17,0,0,0,7.22,3.92,2.91,2.91,0,0,1,2.46,2.15C536.72,96.9,524.5,96.31,512.22,97.94Z"/><path class="cls-1" d="M203,98.38c-11.92-1.6-22.76-1.93-33.44,0-.47-.92-.11-1.41.37-1.6,8.08-3.13,10.81-9.71,11.78-17.67,2.1-17.12,2-34.34,2.46-51.53a81.31,81.31,0,0,1,1-13.07c.64-3.39-.84-5.19-3.2-6.79A32.87,32.87,0,0,0,169.42,2.2C169.37.41,170.5,1,171.15,1c5.75-.06,11.49.29,17.23.43,3.61.1,5.06,1.82,6.45,4.54,8.73,17,17.06,34.26,25.82,51.28,5,9.74,10,19.56,14.5,29.56,1.13,2.47,0,8.38-1.92,9.92-1.23,1-1.78-.2-2.15-.94-4.46-8.88-8.85-17.8-13.27-26.7Q210.87,55,203.9,41c-3.58-7.19-7.22-14.35-11.36-22.58-.41,4.71-.28,8.41-.72,12.06a139.66,139.66,0,0,0-1.06,17.58c.06,11-1.22,21.84-1,32.8.16,7.12,3,14.23,11.39,15.82C201.48,96.73,201.72,97.17,203,98.38Z"/><path class="cls-1" d="M1158,221.13l-98.64-79c6.88-1.79,11.18-.35,17.2,4.67,9.61,8,19.46,15.78,29.21,23.65s19.67,15.89,29.55,23.79c4.91,3.92,9.91,7.74,15.41,12v-4.22c0-13.28.15-26.56-.06-39.84-.16-10.23-3.3-16.73-13.72-19.73a6.15,6.15,0,0,1-3.65-2.2,220.74,220.74,0,0,0,39.77.43c-3.6,2.58-8.08,3.4-10.69,7.4a20,20,0,0,0-3.47,10.52c-.78,19.7-.17,39.42-.4,59.13C1158.47,218.82,1158.84,219.94,1158,221.13Z"/><path class="cls-1" d="M615.63,65.78c0-8.71.22-17.42-.07-26.11-.27-8.14.82-16.26-1.29-24.45-1.94-7.54-6.93-10.64-13.49-12.64-.63-.19-1.3-.28-1.92-.5-.14-.05-.17-.45-.47-1.33,13.29.81,26.35.8,39.52.49-3.11,2-6.57,2.82-9.22,5.56a16.75,16.75,0,0,0-4.84,10.67c-1.07,12.57-.55,25.17-.64,37.76-.05,8.61,0,17.21,0,26.63l-100-80c5.66.06,10.24-.95,15,3,16.94,14.21,34.35,27.87,51.61,41.69q11.26,9,22.66,17.86C613.23,65,614,66,615.63,65.78Z"/><path class="cls-1" d="M998.77,84c-.25-2.83,1.53-5.08,1.64-7.84.55-13.35-8.13-22.57-18-26.49-10.06-4-20.42-7.23-30.59-10.94-7.39-2.7-13.06-6.91-13.27-15.83-.19-7.62,3-14.9,11.72-18.87A43.53,43.53,0,0,1,967.37.07,122.51,122.51,0,0,1,997,2.58a2.86,2.86,0,0,1,2.61,3,168,168,0,0,1,.68,19.68c0,.81.55,2.18-1,2.16-1.26,0-1.34-1.2-1.37-2.16-.27-8.29-6-12.59-12.57-15.1-10.19-3.88-20.89-4.81-31.2-.1-5.81,2.64-8.58,6-8.14,11.8.37,4.92,3.42,7.59,7.2,9.43,8.42,4.09,17.39,6.85,26.24,9.91,8,2.78,15.82,5.65,21.51,12.7S1007.45,79,998.77,84Z"/><path class="cls-1" d="M933.26,65.17c1.88,11,7,18.93,16.42,23.86,8.36,4.37,24,5,31-2,8-8,5.72-20-4.58-24.44-11.07-4.81-22.9-7.4-33.93-12.28-8.31-3.67-13.19-9.85-14.55-18.63-.63-4,.78-8,3.55-12.31-.15,5.83.78,10.6,3.42,14.81C938.83,41,945.38,44.65,952.88,47c8.8,2.76,17.83,5,26.13,9.07,10.23,5.09,14.29,10.29,13.92,20.43-.33,9.16-7.68,18.15-16.24,20.7-8.77,2.62-17.39,2-26.15.5-5.07-.88-10.17-1.57-15.27-2.23-1.34-.18-2.49-.19-2.38-2,.51-7.68-2-15.15-1.65-22.83C931.32,69,931.17,67.18,933.26,65.17Z"/><path class="cls-1" d="M32.07,236.85c13.51-2.4,14.23-13.26,14.54-23,.68-21.21.21-42.45.28-63.68,0-2.08-.52-2.93-2.75-2.86-9.69.34-19.44-.67-29.09.81A12,12,0,0,0,5,156.25c-.85,2.38-2.41,4.5-2.58,7.14-.06.83-.55,1.73-1.46,1.71-1.21,0-.87-1.15-.89-1.88-.23-7,1.38-13.87.81-20.85-.17-2,1.24-1.76,2.45-1.7,6,.25,12,.69,18,.77,10,.13,20,.1,30,0,2.29,0,3,.57,3,2.93-.08,29.86-.05,59.72-.09,89.58,0,1,.75,2.92-1.26,2.8C46.07,236.35,39.24,238.45,32.07,236.85Z"/><path class="cls-1" d="M83.06,236.88a35.29,35.29,0,0,1-12,.48c-.81-.08-1.61-.33-2.42-.42-7.15-.75-7.16-.74-7.16-7.84,0-27.51.12-55-.11-82.54,0-4.45,1.3-5.29,5.4-5.18,10.94.29,21.9.17,32.85.06,4.36-.05,8.71-.52,13.07-.78,1.3-.08,2.55-.06,2.19,1.87-1.24,6.65-.32,13.38-.63,20.06,0,1,.5,2.48-1.18,2.56s-1.07-1.48-1.27-2.41c-1.74-8.39-4-13.64-15-14.83-8.36-.89-16.67-.21-25-.63-2.24-.11-2.75.79-2.74,2.86.07,21.76-.13,43.53.19,65.29.08,5.55.74,11.33,4.69,16C76.33,234.29,79.54,235.67,83.06,236.88Z"/><path class="cls-1" d="M759.7,98.41c-6.92-.28-13.35-1.67-19.87-1.32-1.17.07-1.81-.34-1.74-1.61,0-.82,0-1.64,0-2.46,0-29,.06-58-.07-87.07,0-3.24.5-4.39,4.11-4.35C757,1.74,772,2.2,786.84.88c3.36-.3,4.09.93,3.92,4-.26,4.92-.07,9.86-.06,14.79,0,1.88-.1,3.71-1.57,5.39-2-2.17-1.52-4.92-2.27-7.23-2.69-8.27-9.64-9.7-16.69-10.22-7.36-.55-14.78-.07-22.17-.18-2,0-2.56.54-2.55,2.52.07,22.87-.33,45.74.25,68.59.21,8,3,15.82,12.6,18.08a1.51,1.51,0,0,1,.68.44A7.72,7.72,0,0,1,759.7,98.41Z"/><path class="cls-1" d="M709.34,97.71c3-2,6.56-3,8.84-5.9a19,19,0,0,0,4.19-11.51c.3-23.27.24-46.55.45-69.82,0-2.81-1.12-3.05-3.39-3-7.53.11-15.11-.47-22.58.17-10.26.87-13.57,2.23-17.05,12.85-.55,1.69-1.34,4.34-2.47,4.13-2.37-.44-.8-2.9-.88-4.47-.26-5.48,1-10.87,1.23-16.32.1-2.24.75-3.07,3.1-2.93,15.58,1,31.18.89,46.78.77,2.14,0,2.43.85,2.42,2.67q-.06,45,0,90c0,1.24.54,3-1.78,2.8C721.9,96.66,715.72,97.79,709.34,97.71Z"/><path class="cls-1" d="M834.25,98.11c.36-2.51,2.26-1.9,3.31-2.45,7.53-4,8.76-11.21,8.9-18.35.37-19.29.5-38.6,0-57.88C846.16,9.81,843.66,5.71,834.32,2c-.09-1.42,1-1,1.69-1,4.64.09,9.29.19,13.93.33s5,1.93,5,5.84q-.27,43.11,0,86.22c0,3-.62,4.14-3.78,3.8C845.53,96.55,840,98.25,834.25,98.11Z"/><path class="cls-1" d="M308.87,1.51c-10.16,3.79-14.09,9-13.73,20.09.6,18.3,1.38,36.6,2.54,54.87.46,7.27,2.11,14.39,9.07,18.92,1.67,1.09,4.19.11,5.39,2.79-6.72-.08-13.12-1.56-19.59-1.09-1.69.12-1.57-1-1.58-2.17-.15-12-1.64-24-1.81-36-.26-18.16-2.26-36.28-2.46-54.46,0-1-1.12-2.73,1.12-2.69C294.83,1.87,301.81.09,308.87,1.51Z"/><path class="cls-1" d="M946,141.48c2.66,0,5.14-.32,7.48.08,3,.52,3,3.85,3.89,5.86,6.55,14.67,14.07,28.83,21.37,43.11,3.84,7.5,7.47,15.11,11.64,22.42C996,222.8,1002.43,232,1014.43,237a34.5,34.5,0,0,1-11,.38c-.67,0-1.39-.51-2-.38-6.94,1.51-9.15-3.25-11.6-8.25-8-16.21-16.33-32.2-24.59-48.25-6.11-11.86-12-23.87-18.24-35.65A19.68,19.68,0,0,1,946,141.48Z"/><path class="cls-1" d="M478.24,98.3C472.12,98,466.13,96.75,460,97c-2,.1-2.29-2.08-3-3.37Q440.35,61.25,423.8,28.72c-4.5-8.83-8.86-17.75-13.29-26.65.23-.13.43-.32.63-.33,8.76-.2,8.6-.13,12,7.91,4.2,9.87,9.08,19.42,14.14,28.88,5.17,9.66,9.72,19.65,14.89,29.31,5.68,10.62,11.65,21.08,22.44,27.65C475.8,96.21,478.22,95.53,478.24,98.3Z"/><path class="cls-1" d="M884.19,98.56a98.49,98.49,0,0,0-20.13-1.48c-3,.12-1.8-2.24-1.8-3.53-.08-19.58-.06-39.16-.06-58.74,0-10,.09-20-.06-30,0-2.53.63-3.24,3.16-3.22,6,0,12-1.24,18-.51-.38,2.49-2.67,1.26-3.93,2-5.7,3.19-8.53,8-9,14.36-1.28,18.18-.87,36.4-.52,54.58.13,6.51-.69,13.55,4.46,19.27a23.41,23.41,0,0,0,6.7,5A6.71,6.71,0,0,1,884.19,98.56Z"/><path class="cls-1" d="M309.94,237.06c9.5-3.87,12-11.91,12.16-20.73.34-18.06.21-36.12.06-54.19-.07-8.42-2.27-16-10.78-19.95a10.28,10.28,0,0,1-1.54-1.22c6.43-1.12,12.3.74,18.22.53,2.38-.08,1.51,1.86,1.52,3,.06,10.54,0,21.08,0,31.61,0,18.89-.05,37.77.06,56.65,0,2.93-.41,4.11-3.83,4.29C320.58,237.32,315.35,237.84,309.94,237.06Z"/><path class="cls-1" d="M461.06,224.54c-7.06-3.95-11.2-10.31-13.8-17.64a54.49,54.49,0,0,1-.08-37c2.78-8,7.85-14.19,15.64-19.12-12.4,24.7-13.13,48.9-1.21,73.23A7.4,7.4,0,0,0,461.06,224.54Z"/><path class="cls-1" d="M168.77,151.17c-12.24,24.74-12.52,49-1.27,73.44-11.7-7.53-16.15-19-17-31.88C149.16,170.78,157.48,157.78,168.77,151.17Z"/><path class="cls-1" d="M250.94,225.5c10.57-24.64,11.3-48.9-.06-73.93,9.45,6.05,14.43,14.41,16.2,24.68C271.31,200.73,263,217.5,250.94,225.5Z"/><path class="cls-1" d="M545.16,224c6.78-14.16,8.65-29,7.36-44.61A67.34,67.34,0,0,0,544.24,152c3.46,1,8.29,5.56,10.93,9.84,6.46,10.48,7.84,21.75,6.39,33.84-1.28,10.73-5.45,19.68-13.19,27.13-.81.78-1.83,1-2.55,1.76Z"/><path class="cls-1" d="M763.05,224c-11.87-10.18-16.06-23.24-15.41-38.6.55-13,6.17-23.2,15.24-31.92a8.71,8.71,0,0,1,3.08-1.8,76.46,76.46,0,0,0-6.5,15.35,74,74,0,0,0-2.9,28.54,82.42,82.42,0,0,0,3.74,19.89c1,2.79,3,5.12,3.29,8.17Z"/><path class="cls-1" d="M613.27,152.3c-12.39,23.77-12.33,47.68-1.37,72.8-13.39-11.27-17.84-25.06-16.75-40.88C596.15,169.68,605,156.53,613.27,152.3Z"/><path class="cls-1" d="M686.59,208.3c0-6.29.08-12.59-.05-18.88,0-2.16.64-2.95,2.8-2.76,3.69.33,7.34-.27,11-.76.72-.1,1.75-.43,2.2.45s-.43,1.42-1.08,1.87c-4.91,3.41-7.06,8.1-7,14.07.11,7.8-.06,15.6-.12,23.39,0,1.94-5.37,5.3-7,4.43-1.3-.68-.7-1.94-.71-2.93C686.56,220.89,686.59,214.59,686.59,208.3Z"/><path class="cls-1" d="M855.72,186.51c-8.73,5-9.43,13-9.17,21.52.18,6,.05,12,0,18.07,0,1.39-4.46,4.43-6.17,4.08-2.31-.47-1.15-2.43-1.16-3.65-.1-12.18,0-24.37-.13-36.55,0-2.71.74-3.72,3.4-3.3C846.83,187.36,851.06,185.31,855.72,186.51Z"/><path class="cls-1" d="M387.47,189.23c11.52,3,17,11.42,17,22.29,0,10.39-7.73,20.16-16.57,22,6-6.35,8.06-14,8-21.88S394,195.85,387.47,189.23Z"/><path class="cls-1" d="M383.51,143.16c11.07,2.24,17.73,11.65,17.28,20.58-.43,8.44-6.55,16.14-12.8,17C394.84,167.25,393.82,154.73,383.51,143.16Z"/><path class="cls-1" d="M461.61,224c.54.5,1.7,1.08.84,1.76s-1.11-.53-1.39-1.19A7.4,7.4,0,0,1,461.61,224Z"/><path class="cls-1" d="M545.82,224.55l-1.39,1.35c-.68-1,.07-1.46.73-2Z"/><path class="cls-1" d="M763.59,223.66c.41,0,.89.23.6.66-.44.63-.82.11-1.14-.29Z"/></g></g></svg>