<svg xmlns="http://www.w3.org/2000/svg" xmlns:xlink="http://www.w3.org/1999/xlink" viewBox="0 0 320 132"><defs><style>.cls-1{fill:none;}.cls-2{fill:#fff;}.cls-3{fill:url(#linear-gradient);}.cls-4{fill:url(#linear-gradient-2);}.cls-5{fill:url(#linear-gradient-3);}.cls-6{fill:url(#linear-gradient-4);}.cls-7{fill:#0bafa7;}.cls-8{fill:url(#linear-gradient-5);}.cls-9{fill:url(#linear-gradient-6);}.cls-10{fill:url(#linear-gradient-7);}.cls-11{fill:url(#linear-gradient-8);}.cls-12{fill:url(#linear-gradient-9);}.cls-13{fill:url(#linear-gradient-10);}</style><linearGradient id="linear-gradient" x1="108.77" y1="36.85" x2="108.77" y2="98.76" gradientUnits="userSpaceOnUse"><stop offset="0" stop-color="aqua"/><stop offset="0.99" stop-color="#00a99d"/></linearGradient><linearGradient id="linear-gradient-2" x1="182.59" y1="37.35" x2="182.59" y2="99.26" xlink:href="#linear-gradient"/><linearGradient id="linear-gradient-3" x1="258.46" y1="37.35" x2="258.46" y2="99.26" xlink:href="#linear-gradient"/><linearGradient id="linear-gradient-4" x1="305.25" y1="37.35" x2="305.25" y2="99.26" xlink:href="#linear-gradient"/><linearGradient id="linear-gradient-5" x1="37.96" y1="60.37" x2="57.11" y2="90.68" gradientTransform="translate(0.92 6.88) rotate(0.29)" xlink:href="#linear-gradient"/><linearGradient id="linear-gradient-6" x1="38.96" y1="60.5" x2="20.46" y2="90.65" gradientTransform="translate(0.92 6.88) rotate(0.29)" xlink:href="#linear-gradient"/><linearGradient id="linear-gradient-7" x1="35.47" y1="58.89" x2="19.98" y2="27.27" gradientTransform="translate(0.92 6.88) rotate(0.29)" xlink:href="#linear-gradient"/><linearGradient id="linear-gradient-8" x1="41.35" y1="59.13" x2="56.36" y2="27.67" gradientTransform="translate(0.92 6.88) rotate(0.29)" xlink:href="#linear-gradient"/><linearGradient id="linear-gradient-9" x1="39.97" y1="58.54" x2="75.38" y2="58.7" gradientTransform="translate(0.92 6.88) rotate(0.29)" xlink:href="#linear-gradient"/><linearGradient id="linear-gradient-10" x1="36.93" y1="58.66" x2="2.33" y2="59.14" gradientTransform="translate(0.92 6.88) rotate(0.29)" xlink:href="#linear-gradient"/></defs><title>ohmniBigLogo</title><g id="Layer_2" data-name="Layer 2"><g id="Layer_1-2" data-name="Layer 1"><rect class="cls-1" width="320" height="132"/><polygon class="cls-2" points="68.13 82.21 68.1 49.11 39.39 32.57 10.71 49.17 10.71 49.17 10.75 82.3 10.75 82.3 39.45 98.83 68.13 82.24 68.13 82.24 68.13 82.21"/><path class="cls-3" d="M82.68,49.71c0-.3.51-.49,1.27-.49h21.38c.76,0,1.15.15,1.15.39v13c0,.19.38.34.89.34h2.54c.64,0,1.15-.19,1.15-.34V49.66c0-.25.38-.44,1-.44h21.51c.76,0,1.27.19,1.27.44v36.1c0,.24-.38.54-1,.54H112.2c-.63,0-1.14-.3-1.14-.54V72.85c0-.2-.26-.39-.77-.39h-2.92c-.64,0-.89.19-.89.39v13c0,.24-.51.49-1.15.49h-21c-.89,0-1.65-.35-1.65-.74Z"/><path d="M133.83,86.8H112.2c-.79,0-1.64-.4-1.64-1V73a.76.76,0,0,0-.27,0h-2.92a1.37,1.37,0,0,0-.4,0V85.81c0,.65-.82,1-1.64,1h-21c-1,0-2.15-.44-2.15-1.24V49.71c0-.23.13-1,1.77-1h21.38c1.09,0,1.64.3,1.64.89V62.37a1.71,1.71,0,0,0,.4.05h2.54a2.27,2.27,0,0,0,.65-.09V49.66c0-.43.4-.94,1.51-.94h21.51c1.11,0,1.77.35,1.77.94v36.1C135.35,86.35,134.7,86.8,133.83,86.8Zm-22.28-1.16a1.2,1.2,0,0,0,.65.16h21.63a.94.94,0,0,0,.52-.12V49.82a2.17,2.17,0,0,0-.77-.11H112.07a1.53,1.53,0,0,0-.52.08V62.57c0,.66-1,.84-1.64.84h-2.54c-.85,0-1.39-.33-1.39-.84V49.78a2.33,2.33,0,0,0-.65-.07H84a1.89,1.89,0,0,0-.77.12V85.5a1.83,1.83,0,0,0,1.15.3h21a1.38,1.38,0,0,0,.65-.13V72.85c0-.15.07-.89,1.39-.89h2.92c.87,0,1.26.46,1.26.89Z"/><path class="cls-4" d="M142.32,86.8c-.51,0-1-.25-1-.44V50.21c0-.24.38-.49,1-.49h34.1c.64,0,1.15.2,1.28.49l3.81,9.84a.68.68,0,0,0,.64.5.52.52,0,0,0,.51-.55l3.05-9.74c.13-.29.64-.54,1.4-.54h35.38c.89,0,1.4.2,1.4.54V86.31c0,.29-.64.49-1.4.49h-23c-.76,0-1.4-.2-1.4-.54V70.78c0-.39-.12-.54-.38-.54s-.51.19-.89,1L190.17,86.4c-.13.3-.77.4-1.4.4H174.39a1.7,1.7,0,0,1-1.4-.54l-5.86-14.14c-.38-.84-.89-1-1.27-1a.59.59,0,0,0-.63.64V86.26c0,.34-.39.54-1.28.54Z"/><path d="M222.49,87.3h-23c-1.18,0-1.89-.39-1.89-1V70.87a2.84,2.84,0,0,0-.33.57L190.62,86.6c-.2.47-.81.7-1.85.7H174.39a2.16,2.16,0,0,1-1.8-.75l-.06-.1-5.85-14.14c-.32-.69-.67-.69-.82-.69s-.14,0-.14.15V86.26c0,.47-.3,1-1.77,1H142.32c-.61,0-1.51-.3-1.51-.94V50.21c0-.58.62-1,1.51-1h34.1a1.79,1.79,0,0,1,1.73.8L182,59.87c.06.18.14.18.17.18s0,0,0,0v-.07l3.1-9.87a1.91,1.91,0,0,1,1.85-.84h35.38c1.65,0,1.89.65,1.89,1V86.31C224.38,86.92,223.66,87.3,222.49,87.3Zm-23.94-1.14a2.24,2.24,0,0,0,.9.14h23a2.73,2.73,0,0,0,.9-.13V50.34a2.21,2.21,0,0,0-.9-.13H187.11a1.36,1.36,0,0,0-.94.24l-3,9.64a1,1,0,0,1-1,.95,1.16,1.16,0,0,1-1.1-.82l-3.82-9.83a1.42,1.42,0,0,0-.81-.18h-34.1a1.11,1.11,0,0,0-.52.1V86.19a1.3,1.3,0,0,0,.52.11H164a2.07,2.07,0,0,0,.78-.1V71.77a1.1,1.1,0,0,1,1.13-1.14,1.86,1.86,0,0,1,1.73,1.28L173.42,86a1.34,1.34,0,0,0,1,.3h14.38a2.49,2.49,0,0,0,1-.13L196.33,71c.32-.68.71-1.29,1.34-1.29.21,0,.88.08.88,1Zm-8.84,0Z"/><path class="cls-5" d="M230.34,50.36c0-.35.63-.64,1.4-.64h21.5c.89,0,1.53.2,1.78.59l7.64,11.13a1.19,1.19,0,0,0,.89.59.68.68,0,0,0,.76-.64v-11c0-.35.64-.64,1.53-.64h19.09c1,0,1.65.34,1.65.69V86.16c0,.34-.51.64-1.4.64H261.39c-.51,0-1.28-.2-1.4-.49l-5.6-8.9a1.32,1.32,0,0,0-1.15-.7c-.38,0-.63.2-.63.7v8.75c0,.34-.77.64-1.66.64H231.61c-.76,0-1.27-.3-1.27-.69Z"/><path d="M285.18,87.3H261.39c-.39,0-1.53-.14-1.84-.75L254,77.63a.84.84,0,0,0-.71-.42.21.21,0,0,0-.11,0,.34.34,0,0,0,0,.18v8.75c0,.78-1.11,1.14-2.15,1.14H231.61c-1,0-1.77-.49-1.77-1.19V50.36c0-.75.95-1.14,1.9-1.14h21.5a2.47,2.47,0,0,1,2.2.82l7.63,11.11a.76.76,0,0,0,.48.38c.08,0,.27,0,.27-.14v-11c0-.68.81-1.14,2-1.14h19.09c1.26,0,2.15.49,2.15,1.19V86.16C287.08,86.68,286.58,87.3,285.18,87.3Zm-24.75-1.23a2,2,0,0,0,1,.23h23.79a1.52,1.52,0,0,0,.9-.19V50.48a1.88,1.88,0,0,0-1.15-.27H265.84a1.87,1.87,0,0,0-1,.23v11a1.17,1.17,0,0,1-1.26,1.14,1.68,1.68,0,0,1-1.31-.83l-7.63-11.11c-.12-.19-.54-.38-1.37-.38h-21.5a1.68,1.68,0,0,0-.91.22V86.11a1.19,1.19,0,0,0,.78.19H251a2.34,2.34,0,0,0,1.16-.24V77.41a1.07,1.07,0,0,1,1.13-1.19,1.8,1.8,0,0,1,1.58.94Z"/><path class="cls-6" d="M294.69,86.8c-.89,0-1.66-.35-1.66-.74V50.21c0-.24.51-.49,1.15-.49h21.76c.89,0,1.52.2,1.52.49V86.16c0,.29-.63.64-1.52.64Z"/><path d="M315.94,87.3H294.69c-1.05,0-2.15-.44-2.15-1.24V50.21c0-.65.82-1,1.64-1h21.76c1.28,0,2,.36,2,1V86.16C318,86.81,317.09,87.3,315.94,87.3ZM293.53,86a1.84,1.84,0,0,0,1.16.3h21.25a1.86,1.86,0,0,0,1-.24V50.36a2.92,2.92,0,0,0-1-.15H294.18a1.52,1.52,0,0,0-.65.13Z"/><path class="cls-7" d="M76.18,44.56,39.09,23.19,2,44.63l0,42.81,37.1,21.37L76.23,87.37Zm-37,43.76L19.82,77.18l0-22.32L39.11,43.68,58.45,54.82l0,22.32Z"/><polygon class="cls-8" points="39.49 88.51 58.47 77.52 75.56 87.37 39.51 108.23 39.49 88.51"/><polygon class="cls-9" points="2.75 87.44 19.82 77.56 38.83 88.51 38.84 108.23 2.75 87.44"/><polygon class="cls-10" points="2.7 44.63 38.76 23.77 38.78 43.49 19.79 54.48 2.7 44.63"/><polygon class="cls-11" points="39.44 43.49 39.42 23.77 75.52 44.56 58.27 54.32 39.44 43.49"/><polygon class="cls-12" points="58.8 76.95 58.6 54.9 75.85 45.13 75.89 86.79 58.8 76.95"/><polygon class="cls-13" points="2.37 45.21 19.46 55.05 19.48 76.99 2.41 86.87 2.37 45.21"/><path d="M76.18,44.56,39.09,23.19,2,44.63H2l0,42.8h0l37.09,21.37L76.23,87.37Zm-1.33,0L58.27,53.94,39.77,43.3l0-19ZM58.47,77.14,40.15,87.74l0-21.29,18.15-10.6Zm-38.68-23L3.36,44.63,38.43,24.34l0,19ZM39.11,43.68,57.27,54.13,39.13,64.74,20.79,54.28Zm-1,44.07L19.82,77.18l0-21.18L38.14,66.46ZM2.7,45.78l16.43,9.46,0,21.56L2.74,86.3Zm.71,41.66,16.41-9.5L38.49,88.7l0,19Zm35.75.88Zm.68,19.34,0-19L58.47,77.9,74.9,87.37Zm19.29-30.9-.2-21.67,16.59-9.4,0,40.53Z"/></g></g></svg>