<svg xmlns="http://www.w3.org/2000/svg" viewBox="0 0 400 400"><defs><style>.cls-1{fill:none;}.cls-2{fill:#454266;}.cls-3{fill:#3a3654;}.cls-4{fill:#9898cb;}.cls-5{fill:#3b3756;}.cls-6{fill:#3b3755;}.cls-7{fill:#3d3957;}.cls-8{fill:#9797c9;}</style></defs><title>php</title><g id="Layer_2" data-name="Layer 2"><g id="Layer_1-2" data-name="Layer 1"><rect class="cls-1" width="400" height="400"/><path class="cls-2" d="M258.6,337.8c-21.2,9.7-43.6,13.3-66.7,12A149.9,149.9,0,0,1,56.7,244.4c-27.2-87,29.8-178.5,120-192.5,80-12.4,155.6,40.4,170.7,119.4a2.08,2.08,0,0,1-.1,1.1c-15.8-7.9-32-15-47.5-22.8a2.49,2.49,0,0,1-1,3c-5.3-4.8-9.8-2.4-15.2.6-4.6,2.6-10.2,3.2-15.2-.4,1.7-2.9,4.2-1.8,6.7-1.4-5.3-1.2-9.8-4.7-15.3-5.4-6.3-3.2-12.3-6.9-19.3-8.6-8.7-2.1-17.3-2.4-25.9.1a10.28,10.28,0,0,1-4.9.7c-5.9-3.5-11.7-7.4-18.8-8.2-12.4-7.6-24.6-6.3-36.6.8a21.2,21.2,0,0,1-10.1,2.7c-8.5.6-16.7,1.9-23.6,7.6-8.5,6.9-12.1,16-12.2,26.6-.2,22.8-2.1,45.5-2.4,68.3-.1,6-1,11.9-1.1,17.9-.1,7.9,3.1,13.3,10.4,16.2,15.2,7.7,30.7,14.6,46.2,21.7,18.7,8.6,37.3,17.4,56,26,12.4,5.7,24.8,11.4,37.1,17.4C255.9,335.9,257.6,336.3,258.6,337.8Z"/><path class="cls-3" d="M258.6,337.8c-7.3-1.3-13.4-5.5-20-8.5-24.7-11.2-49-22.9-73.6-34.3-15.7-7.3-31.6-14.4-47.4-21.6a11.23,11.23,0,0,1-2-1.8c.8-1.2,2.1-1.5,3.3-1.9,5.9-2.1,8.8-6.3,9.7-12.5,2-14.1,3.5-28.2,5.7-42.3.3-1.9.7-3.7.9-5.5.5-4.5,2.9-5.6,7-4.4a24.35,24.35,0,0,0,11.7.1c5.8-1.2,7-.4,7.1,5.7.2,13.7,0,27.3.1,41a40.81,40.81,0,0,0,.4,7.8c2,10.7,9.2,15.6,21.6,14.6,8.8-.7,14.9-7.5,15.3-17.1.1-3.4-.1-6.7.2-10.1s2-5.1,5.2-3.7c9,3.8,17.9,3.1,26.8-.5,3.4-1.3,5.4.3,5.8,3.9.3,3.2.1,6.4.2,9.5.3,11.2,6.8,17.7,17.9,18,12.3.3,19.8-6,20.3-17.5.5-9.9.3-19.9.1-29.8a104.73,104.73,0,0,1,3.5-29.4,43.81,43.81,0,0,0-3.4-31.7c-1.3-2.5-4-5.5-1.5-8.2s6.3-1.6,9.6-.7a48.06,48.06,0,0,1,4.6,2.2c6.7,2.9,10.5.5,11.4-7.1-.1-2.4-.4-4.6,3.4-2.8,13.2,6.4,26.5,12.6,39.9,18.8a14.87,14.87,0,0,1,5,4.3,141.62,141.62,0,0,1-5.9,77.9c-14.2,39.1-40.5,67.7-78,85.7A37.82,37.82,0,0,1,258.6,337.8Z"/><path class="cls-4" d="M299,152c3.7,1.7,5.3,3.5.2,5.5-.5.2-1.4.4-1.4.7-1.3,8.9-6.7,2.8-10.3,2.6-1.4-.1-2.7-1.9-4.2-2.6-3-1.4-6.9-1.7-9.1-.1s1,4.1,2,6.1c5.6,11.8,7.2,24,3.2,36.5a57.91,57.91,0,0,0-2.8,19.8c.3,11.8.1,23.6.1,35.4-.1,12.2-7.9,19.7-20.2,19.8-13.6,0-21.4-6.9-21.6-19.4-.1-4.1,1.4-9.7-.7-12-2.8-3.1-7.1,1.8-10.9,2.5-6.4,1.2-12.4.8-18.1-1.9-4.5-2.1-5.4-.7-5,3.6a58.87,58.87,0,0,1,0,8.4c-.2,11.1-7.5,18.6-18.1,18.7-14.1.1-22.2-6.4-22.4-18.6-.2-15.7-.2-31.5,0-47.2.1-4.5-.9-5.6-5.2-3.8-4.1,1.7-8.5,1.4-12.7,0-3-1-4.5-1-5,3-1.9,16-4.4,31.8-6.4,47.8-1.2,9.2-5.4,13.7-14.7,14.4-7.7-1.8-12.6-6.7-12.3-13.8,1.2-32.5,2.4-65,4.4-97.5a26.74,26.74,0,0,1,20.4-25c13.5-3.5,27-7.1,40.4-11.3,8.6-2.7,16.6,0,23.4,5.8,4.2,2.9,5.4,5,6.5,11.4,1.7-.7,3-2.1,4.7-2.8,1.9-.8,3.6-1.9,5.8-1.1q27.9-9.15,51.8,8c3.6,1.1,6.5,3,7.6,6.9,6.2,1.3,12.5,2.5,17.9-2.5a10.37,10.37,0,0,1,3.5-1.7C294.1,146.3,297.2,147.7,299,152Z"/><path class="cls-5" d="M209,137.4c-3.3,1.6-6.7,4.8-9.8,4.5-3.5-.4-2.5-6.2-5-8.8a17.68,17.68,0,0,1-2.1-3.2C199,129.2,204.2,132.8,209,137.4Z"/><path class="cls-6" d="M201.5,180.1h1.7c8.1,0,11.1,2.1,11.3,7.6a12.59,12.59,0,0,1-10.9,12.8,17,17,0,0,1-4.5.1c-3.1-.3-5,.5-5.3,3.9-.2,2.9-1.7,4.4-4.8,3.8-4.1-.9-1.4-3.7-1.2-5.3.8-5.7,2.4-11.3,3.1-17,.6-4.9,2.9-6.8,7.7-6A14.31,14.31,0,0,0,201.5,180.1Z"/><path class="cls-6" d="M225.8,176.5c-1.4,3.3.5,3.7,3.2,3.6a43.41,43.41,0,0,1,5.1.1c4,.3,5.8,2.5,5.2,6.4s-1.6,7.7-2.2,11.6c-.5,3.1-2.8,2.6-4.7,2.4-2.8-.3-1.7-2.3-1.3-3.8.4-2,1-4,1.2-6,.2-2.3,2.2-5.6-2.3-6.1-3.2-.4-6.4-.7-6.8,4.2-.2,3.1-1.3,6.2-1.8,9.3s-2.7,2.6-4.7,2.4c-2.5-.2-1.5-2-1.2-3.3,1.4-7.2,2.8-14.3,4.2-21.5.4-2.3,1.3-3.7,4.1-3.4C226.8,172.6,225.8,174.7,225.8,176.5Z"/><path class="cls-7" d="M148.5,166.3c-.2,3-1.8,4.9-4.9,5-3.5.1-5.3-2.1-5.2-5.3a4.84,4.84,0,0,1,5.2-4.8C146.7,161.3,148.3,163.3,148.5,166.3Z"/><path class="cls-8" d="M202.3,184.5c3,0,5.7.2,5.6,4.3-.2,4.8-3.3,7.5-8.5,7.3-1.4-.1-3.4.8-3.4-2.2C196,187.7,198.1,184.5,202.3,184.5Z"/></g></g></svg>