<svg xmlns="http://www.w3.org/2000/svg" viewBox="0 0 400 400"><defs><style>.cls-1{fill:none;}.cls-2{fill:#67daf9;}</style></defs><title>react</title><g id="Layer_2" data-name="Layer 2"><g id="Layer_1-2" data-name="Layer 1"><rect class="cls-1" width="400" height="400"/><circle class="cls-2" cx="199.8" cy="200.1" r="30.4"/><path class="cls-2" d="M132.7,349.8h-1.2a33.58,33.58,0,0,1-15.8-4.3A32.74,32.74,0,0,1,104.1,334a50.21,50.21,0,0,1-6.2-16.2c-2.5-11.5-2.4-25.8.3-42.3,2.6-16.1,7.5-33.7,14.6-52.3a414.37,414.37,0,0,1,27.6-57.7,390.34,390.34,0,0,1,36.1-52.7c12.6-15.4,25.3-28.5,38-38.7,13-10.5,25.2-17.7,36.5-21.4A49,49,0,0,1,268.1,50a33.58,33.58,0,0,1,15.8,4.3,32.74,32.74,0,0,1,11.6,11.5A50.21,50.21,0,0,1,301.7,82c2.5,11.5,2.4,25.8-.3,42.3-2.6,16.1-7.5,33.7-14.6,52.3a414.37,414.37,0,0,1-27.6,57.7A396.76,396.76,0,0,1,223.1,287c-12.6,15.4-25.3,28.5-38,38.7-13,10.5-25.2,17.7-36.5,21.4A52,52,0,0,1,132.7,349.8ZM266.8,64.6a39.14,39.14,0,0,0-11.4,2c-9.4,3-20.4,9.5-31.8,18.8-24.5,20-49.6,51-70.7,87.5s-35.4,73.7-40.4,105c-2.3,14.5-2.5,27.3-.4,36.9,1.9,8.9,5.6,15,10.9,18.1s12.4,3.2,21.1.4c9.4-3,20.4-9.5,31.8-18.8,24.5-20,49.6-51,70.7-87.5S282,153.3,287,122c2.3-14.5,2.5-27.3.4-36.9-1.9-8.9-5.6-15-10.9-18.1A19.12,19.12,0,0,0,266.8,64.6Z"/><path class="cls-2" d="M200,268.6a408.28,408.28,0,0,1-63.7-4.9c-19.6-3.2-37.3-7.7-52.5-13.5-15.6-6-28-13-36.7-20.9a51.38,51.38,0,0,1-10.9-13.5,32.49,32.49,0,0,1,0-31.6,51.38,51.38,0,0,1,10.9-13.5c8.8-7.9,21.1-14.9,36.7-20.9a264,264,0,0,1,52.5-13.5,397.37,397.37,0,0,1,63.7-4.9,408.28,408.28,0,0,1,63.7,4.9c19.6,3.2,37.3,7.7,52.5,13.5,15.6,6,28,13,36.7,20.9a51.38,51.38,0,0,1,10.9,13.5,32.49,32.49,0,0,1,0,31.6,51.38,51.38,0,0,1-10.9,13.5c-8.8,7.9-21.1,14.9-36.7,20.9a264,264,0,0,1-52.5,13.5A408.28,408.28,0,0,1,200,268.6Zm0-122.7c-42.1,0-81.5,6.2-111.1,17.5-13.7,5.2-24.9,11.5-32.2,18.1-6.8,6.1-10.2,12.3-10.2,18.5s3.4,12.3,10.2,18.5c7.3,6.6,18.4,12.9,32.2,18.1,29.6,11.3,69,17.5,111.1,17.5s81.5-6.2,111.1-17.5c13.7-5.2,24.9-11.5,32.2-18.1,6.8-6.1,10.2-12.3,10.2-18.5s-3.4-12.3-10.2-18.5c-7.3-6.6-18.4-12.9-32.2-18.1C281.5,152.1,242.1,145.9,200,145.9Z"/><path class="cls-2" d="M266.9,350a52,52,0,0,1-15.9-2.7c-11.2-3.6-23.5-10.8-36.5-21.4a274.4,274.4,0,0,1-38-38.7,403.4,403.4,0,0,1-36.1-52.7,403.85,403.85,0,0,1-27.6-57.7c-7.1-18.6-12-36.2-14.6-52.3-2.6-16.5-2.7-30.7-.3-42.3A50.21,50.21,0,0,1,104.1,66a34.44,34.44,0,0,1,11.6-11.5,33.58,33.58,0,0,1,15.8-4.3,48.69,48.69,0,0,1,17.1,2.7c11.2,3.6,23.5,10.8,36.5,21.4a274.4,274.4,0,0,1,38,38.7,403.4,403.4,0,0,1,36.1,52.7,403.85,403.85,0,0,1,27.6,57.7c7.1,18.6,12,36.2,14.6,52.3,2.6,16.5,2.7,30.7.3,42.3a50.21,50.21,0,0,1-6.2,16.2,34.44,34.44,0,0,1-11.6,11.5,33.58,33.58,0,0,1-15.8,4.3Zm9.7-16.9,3.6,6.3-3.6-6.3c5.3-3.1,9-9.1,10.9-18.1,2.1-9.6,1.9-22.4-.4-36.9-5-31.2-19.4-68.5-40.4-105S200.6,105.6,176,85.6c-11.4-9.3-22.4-15.8-31.8-18.8-8.7-2.8-15.8-2.7-21.1.4s-9,9.1-10.9,18.1c-2.1,9.6-1.9,22.4.4,36.9,5,31.2,19.4,68.5,40.4,105s46.1,67.5,70.7,87.5c11.4,9.3,22.4,15.8,31.8,18.8C264.2,336.2,271.3,336.1,276.6,333.1Z"/></g></g></svg>